<svg width="64" height="64" viewBox="0 0 64 64" fill="none" xmlns="http://www.w3.org/2000/svg">
<path d="M37.063 18.062H37.0034C36.4512 18.062 36.0332 18.5098 36.0332 19.062C36.0332 19.6142 36.5107 20.062 37.063 20.062C37.6153 20.062 38.063 19.6142 38.063 19.062C38.063 18.5098 37.6152 18.062 37.063 18.062Z" fill="#071E1E"/>
<path d="M45.1787 18.062H45.123C44.5708 18.062 44.1508 18.5098 44.1508 19.062C44.1508 19.6142 44.6264 20.062 45.1786 20.062C45.7308 20.062 46.1786 19.6142 46.1786 19.062C46.1786 18.5098 45.731 18.062 45.1787 18.062Z" fill="#071E1E"/>
<path d="M53.2983 18.062H53.2387C52.6865 18.062 52.2685 18.5098 52.2685 19.062C52.2685 19.6142 52.746 20.062 53.2983 20.062C53.8506 20.062 54.2983 19.6142 54.2983 19.062C54.2983 18.5098 53.8506 18.062 53.2983 18.062Z" fill="#071E1E"/>
<path d="M45.1953 45.9268C40.0464 43.023 38.5044 43.2603 34.5781 45.48C32.5635 46.8189 30.1377 46.0025 25.9218 42.5689C25.0942 41.8946 24.2626 41.1426 23.453 40.337C22.6439 39.5245 21.8925 38.693 21.2186 37.8648C18.0404 33.9649 17.1751 30.4058 18.2074 29.3331C21.2494 26.0621 20.559 23.3761 17.8739 18.6158C16.2567 15.5567 14.4808 12.5118 12.1171 11.8131C10.4032 11.3097 7.85829 12.6285 7.10049 13.1315C5.15129 14.4298 3.30019 16.7262 2.26939 19.1252C0.373391 23.5388 0.876291 28.8581 1.97939 32.3649C3.79139 38.1139 8.14049 44.7712 13.6142 50.1735C19.0185 55.6496 25.6757 59.9977 31.4223 61.8048C33.2377 62.3776 35.539 62.7892 37.9506 62.7892C40.1943 62.7892 42.5336 62.4328 44.663 61.5182C47.0619 60.4855 49.3568 58.6344 50.6518 56.6876C51.1557 55.9322 52.4794 53.3878 51.9702 51.6666C51.2754 49.3071 48.2305 47.5308 45.1953 45.9268ZM44.2368 47.6821C46.0889 48.6611 49.5366 50.4839 50.0517 52.2334C50.1573 52.5898 50.0289 53.2393 49.7919 53.9144L36.2627 46.8254C38.8073 45.4165 39.8377 45.2009 44.2368 47.6821ZM11.5513 13.7314C13.3037 14.2495 15.1265 17.6977 16.1187 19.5742C18.74 24.2212 18.7317 25.6876 17.0461 27.6321L9.74799 14.0356C10.304 13.83 10.8529 13.6944 11.247 13.6944C11.3633 13.6943 11.4658 13.7061 11.5513 13.7314ZM43.873 59.6807C39.9555 61.3643 35.0419 60.8501 32.0229 59.897C26.5712 58.1826 20.2197 54.0205 15.0332 48.7642C15.0298 48.7608 15.0269 48.7579 15.0234 48.7544C9.76949 43.5698 5.60599 37.2178 3.88719 31.7642C2.93749 28.7447 2.42529 23.8296 4.10739 19.9141C4.95149 17.9496 6.41969 16.085 7.97729 14.9661L15.9003 29.7279C15.4641 32.1011 16.8192 35.6317 19.6679 39.128C20.3832 40.0069 21.1801 40.8887 22.039 41.751C22.8984 42.607 23.7797 43.4038 24.6586 44.1197C27.7465 46.635 30.9889 48.7459 34.0253 47.9112L48.8961 55.7032C47.7888 57.3002 45.8823 58.816 43.873 59.6807Z" fill="#071E1E"/>
<path d="M60.9551 10.771C56.3843 2.05911 45.5757 -1.31049 36.8604 3.25681L36.8599 3.25731C28.148 7.82961 24.7774 18.6386 29.3462 27.3525C29.6773 27.9838 30.0552 28.6074 30.4736 29.2138L27.7724 33.8437C27.5839 34.1665 27.5912 34.5678 27.7919 34.8833C27.9916 35.1992 28.3515 35.3745 28.724 35.3437L36.474 34.6586C39.1835 36.1654 42.1639 36.9213 45.1488 36.9213C47.9862 36.9213 50.8275 36.2377 53.4418 34.8661C62.1543 30.2944 65.5249 19.4854 60.9551 10.771ZM52.5127 33.0952C47.6655 35.6382 41.9404 35.5166 37.1973 32.77C37.045 32.6816 36.8716 32.6352 36.6963 32.6352C36.667 32.6352 36.6377 32.6367 36.6084 32.6391L30.4746 33.1811L32.5278 29.6621C32.7295 29.3159 32.7055 28.8828 32.4663 28.5615C31.9531 27.8716 31.4995 27.1523 31.1177 26.4238C27.0606 18.6865 30.0532 9.08841 37.7896 5.02781L37.7891 5.02831C45.5269 0.970212 55.1245 3.96481 59.1841 11.7002C63.2417 19.438 60.2485 29.0356 52.5127 33.0952Z" fill="#071E1E"/>
</svg>
