<svg width="91" height="90" viewBox="0 0 91 90" fill="none" xmlns="http://www.w3.org/2000/svg">
<path d="M61 78H79.5C80.0523 78 80.5 77.5523 80.5 77V40.5C80.5 39.9477 80.9477 39.5 81.5 39.5H86.7283C87.6647 39.5 88.0874 38.3282 87.3667 37.7303L46.1349 3.52665C45.7662 3.22086 45.2325 3.21938 44.8622 3.52312L3.16183 37.7268C2.43567 38.3224 2.85683 39.5 3.79601 39.5H9C9.55228 39.5 10 39.9477 10 40.5V77C10 77.5523 10.4477 78 11 78H27.5" stroke="black" stroke-width="5"/>
<g clip-path="url(#clip0_22_96)">
<path d="M51.9352 29.6687C51.1688 29.3825 50.3061 29.4843 49.6281 29.9487C49.5061 30.0322 49.3924 30.1277 49.2878 30.2309C48.81 30.7023 48.5461 31.3288 48.5397 31.9979L48.4771 41.6214L44.7947 44.7366L41.1523 41.5722L41.2171 31.9507C41.2245 31.1312 40.8293 30.3593 40.1542 29.8821C39.4817 29.4094 38.6214 29.297 37.853 29.5781C35.1425 30.5691 32.6205 32.1655 30.5638 34.1944C26.7284 37.9778 24.5946 43.0287 24.5568 48.4162C24.5053 56.2461 28.7856 63.1816 35.7598 66.6327L35.3866 121.07C35.3584 125.203 38.66 128.593 42.7467 128.622L45.6912 128.645C47.6524 128.656 49.5086 127.901 50.9158 126.513C52.3473 125.101 53.1435 123.211 53.1572 121.194L53.5269 66.7512C55.5402 65.7834 57.3694 64.4925 58.9725 62.9111C62.8069 59.1288 64.94 54.0751 64.9776 48.6874C65.0336 40.3024 59.7935 32.6587 51.9352 29.6687ZM55.4504 59.3465C53.9238 60.8486 52.1391 61.9941 50.1466 62.7517C49.8175 62.8756 49.5216 63.0626 49.2725 63.3083C48.7966 63.7778 48.5336 64.4072 48.53 65.0772L48.3191 95.5898L48.3079 95.6008L48.1325 121.158C48.1287 121.841 47.8621 122.478 47.3853 122.949C46.9346 123.393 46.3443 123.637 45.7263 123.631L42.7817 123.612C41.4647 123.603 40.3991 122.477 40.4103 121.104L40.583 95.5489L40.5739 95.5396L40.7821 65.0189C40.7845 63.978 40.1606 63.058 39.1966 62.6779C33.3019 60.3473 29.523 54.7622 29.568 48.4448C29.5946 44.3973 31.1973 40.6014 34.0817 37.7562C34.7274 37.1191 35.4313 36.541 36.1808 36.028L36.1354 42.6864C36.1294 43.4195 36.4418 44.1167 36.9964 44.599L43.1276 49.926C44.0637 50.7388 45.4355 50.7498 46.3902 49.9483L52.5944 44.7029C52.642 44.6633 52.6886 44.6211 52.7334 44.5769C53.2037 44.113 53.4751 43.4678 53.4797 42.8042L53.5251 36.1496C57.5634 39.0098 60.0018 43.6858 59.9688 48.6509C59.9384 52.7044 58.3329 56.503 55.4504 59.3465Z" fill="black"/>
</g>
<defs>
<clipPath id="clip0_22_96">
<rect width="42" height="63" fill="white" transform="translate(23.5 26.5)"/>
</clipPath>
</defs>
</svg>
