<svg width="45" height="45" viewBox="0 0 45 45" fill="none" xmlns="http://www.w3.org/2000/svg">
<g clip-path="url(#clip0_30_15)">
<path d="M16.777 36.48V38.813C16.7764 39.3968 16.5443 39.9566 16.1314 40.3695C15.7186 40.7823 15.1588 41.0145 14.575 41.015C13.9911 41.0145 13.4313 40.7823 13.0185 40.3695C12.6057 39.9566 12.3735 39.3968 12.373 38.813V31.823C12.3719 31.5406 12.2593 31.2701 12.0596 31.0704C11.8599 30.8707 11.5894 30.7581 11.307 30.757H6.65797C6.37558 30.7581 6.10505 30.8707 5.90536 31.0704C5.70567 31.2701 5.59303 31.5406 5.59197 31.823V33.684C5.59197 34.637 4.81497 35.414 3.86197 35.414C2.90997 35.414 2.13197 34.637 2.13197 33.684V4.946C2.11624 4.2635 2.35264 3.59915 2.79597 3.08C3.23929 2.56085 3.85843 2.22333 4.53497 2.132C4.62297 2.123 4.70097 2.123 4.79697 2.123H4.84097C5.48869 2.13006 6.11107 2.37574 6.58897 2.813C7.13897 3.32 7.46197 4.037 7.46197 4.788C7.46197 5.374 7.94197 5.854 8.52797 5.854H31.701V7.715H33.816V5.855H36.481C36.7635 5.85394 37.0342 5.74116 37.2339 5.54126C37.4337 5.34136 37.5462 5.07057 37.547 4.788C37.537 2.15 35.388 0 32.75 0H4.77897C4.70997 0.009 4.63997 0.009 4.56997 0.009C4.49097 0.009 4.41297 0.009 4.32497 0.017C3.12292 0.163595 2.01713 0.748262 1.21917 1.65913C0.421214 2.57 -0.0128714 3.74311 -2.81249e-05 4.954V33.684C0.022936 34.693 0.439908 35.653 1.16167 36.3586C1.88344 37.0641 2.85266 37.4591 3.86197 37.4591C4.87128 37.4591 5.84051 37.0641 6.56227 36.3586C7.28404 35.653 7.70101 34.693 7.72397 33.684V32.88H10.258V38.805C10.2593 39.9518 10.7155 41.0513 11.5266 41.8621C12.3376 42.673 13.4371 43.1289 14.584 43.13C15.7306 43.1287 16.8299 42.6726 17.6407 41.8618C18.4516 41.051 18.9076 39.9517 18.909 38.805V37.538H21.705V35.414H17.843C17.5606 35.4151 17.29 35.5277 17.0904 35.7274C16.8907 35.9271 16.778 36.1976 16.777 36.48V36.48ZM8.77297 2.123H32.75C33.816 2.123 34.777 2.761 35.196 3.723H9.46297C9.32859 3.15333 9.09503 2.61174 8.77297 2.123V2.123Z" fill="#071E1E"/>
<path d="M42.073 13.9799H41.269V13.1769C41.268 12.8945 41.1553 12.624 40.9556 12.4243C40.7559 12.2246 40.4854 12.112 40.203 12.1109H39.408C39.3733 11.3579 39.0498 10.6472 38.5047 10.1265C37.9596 9.60583 37.2348 9.31517 36.481 9.31494H17.843C17.0892 9.31517 16.3644 9.60583 15.8194 10.1265C15.2743 10.6472 14.9507 11.3579 14.916 12.1109H14.112C13.8296 12.112 13.5591 12.2246 13.3594 12.4243C13.1597 12.624 13.0471 12.8945 13.046 13.1769V16.9069C13.046 17.4929 13.526 17.9739 14.112 17.9739H14.916C14.9507 18.727 15.2743 19.4377 15.8194 19.9584C16.3644 20.4791 17.0892 20.7697 17.843 20.7699H36.481C37.2348 20.7697 37.9596 20.4791 38.5047 19.9584C39.0498 19.4377 39.3733 18.727 39.408 17.9739H40.212C40.4944 17.9729 40.7649 17.8602 40.9646 17.6606C41.1643 17.4609 41.277 17.1903 41.278 16.9079V16.1039H42.082C42.527 16.1039 42.885 16.4619 42.885 16.9079V21.5649C42.8853 21.6705 42.8647 21.7751 42.8245 21.8727C42.7842 21.9703 42.7251 22.059 42.6505 22.1337C42.5759 22.2084 42.4873 22.2676 42.3897 22.308C42.2922 22.3484 42.1876 22.3691 42.082 22.3689H30.897C29.6278 22.3711 28.4112 22.8762 27.5137 23.7737C26.6163 24.6711 26.1111 25.8877 26.109 27.1569V29.8219H24.379C24.0966 29.823 23.8261 29.9356 23.6264 30.1353C23.4267 30.335 23.3141 30.6055 23.313 30.8879V41.1379C23.336 42.147 23.753 43.107 24.4747 43.8125C25.1965 44.518 26.1657 44.9131 27.175 44.9131C28.1843 44.9131 29.1536 44.518 29.8753 43.8125C30.5971 43.107 31.0141 42.147 31.037 41.1379V30.8879C31.036 30.6055 30.9233 30.335 30.7236 30.1353C30.5239 29.9356 30.2534 29.823 29.971 29.8219H28.224V27.1569C28.2253 26.4505 28.5065 25.7735 29.006 25.274C29.5055 24.7745 30.1826 24.4933 30.889 24.4919H42.073C42.8493 24.4919 43.5938 24.1836 44.1427 23.6346C44.6916 23.0857 45 22.3412 45 21.5649V16.9079C45 16.1317 44.6916 15.3872 44.1427 14.8382C43.5938 14.2893 42.8493 13.9809 42.073 13.9809V13.9799ZM36.481 18.6379H17.843C17.7374 18.6382 17.6327 18.6176 17.535 18.5773C17.4374 18.537 17.3486 18.4778 17.2739 18.403C17.1992 18.3283 17.14 18.2396 17.0997 18.1419C17.0594 18.0443 17.0388 17.9396 17.039 17.8339V12.2419C17.039 11.7959 17.397 11.4379 17.843 11.4379H36.481C36.926 11.4379 37.285 11.7959 37.285 12.2419V17.8339C37.2853 17.9396 37.2647 18.0443 37.2244 18.1419C37.184 18.2396 37.1248 18.3283 37.0501 18.403C36.9754 18.4778 36.8867 18.537 36.789 18.5773C36.6913 18.6176 36.5867 18.6382 36.481 18.6379V18.6379ZM28.896 39.1459H25.427V31.9539H28.897V39.1459H28.896ZM27.157 42.8759C26.7208 42.8749 26.301 42.7101 25.9806 42.4141C25.6602 42.1182 25.4626 41.7127 25.427 41.2779H28.879C28.8483 41.7132 28.6534 42.1205 28.3337 42.4174C28.0139 42.7142 27.5933 42.8785 27.157 42.8769V42.8759Z" fill="#071E1E"/>
<path d="M18.9 22.3691H16.777V29.1591H18.901V22.3691H18.9ZM18.9 30.7571H16.777V32.8811H18.901V30.7571H18.9ZM8.65102 11.1851H6.52802V23.5661H8.65001V11.1851H8.65102ZM8.65102 25.1651H6.52802V27.2881H8.65001V25.1651H8.65102ZM35.676 14.9151H33.553V17.0391H35.676V14.9151V14.9151ZM31.946 14.9151H29.823V17.0391H31.946V14.9151V14.9151Z" fill="#071E1E"/>
</g>
<defs>
<clipPath id="clip0_30_15">
<rect width="45" height="45" fill="white"/>
</clipPath>
</defs>
</svg>
