<svg xmlns="http://www.w3.org/2000/svg" xmlns:xlink="http://www.w3.org/1999/xlink" width="0" height="0" style="position:absolute">

    <symbol id="icon-arrow" viewBox="0 0 8 4">
        <path d="M3.312 3.835L.182.972A.542.542 0 0 1 0 .57C0 .417.064.274.182.166a.668.668 0 0 1 .881 0l2.69 2.46 2.69-2.46A.641.641 0 0 1 6.88 0c.166 0 .322.059.44.166.117.108.182.25.182.403A.542.542 0 0 1 7.32.97L4.19 3.833A.648.648 0 0 1 3.75 4a.64.64 0 0 1-.44-.165z"></path>
    </symbol>

    <symbol id="icon-arrow-top" viewBox="0 0 70 70">
        <g opacity=".8"><rect opacity=".5" width="70" height="70" rx="15"></rect><rect x="4.375" y="4.268" width="61.25" height="59.756" rx="12" filter="url(#a)"></rect></g><path d="M33.27 29.454l-8.76 7.872a1.48 1.48 0 0 0-.51 1.11c0 .417.18.81.51 1.106.68.608 1.785.608 2.465 0l7.53-6.766 7.528 6.766c.325.296.762.458 1.227.458a1.83 1.83 0 0 0 1.23-.458c.33-.296.51-.689.51-1.106 0-.417-.18-.81-.51-1.106l-8.76-7.872A1.832 1.832 0 0 0 34.5 29a1.81 1.81 0 0 0-1.23.454z"></path><defs><filter id="a" x="4.375" y="4.268" width="61.25" height="61.756" filterUnits="userSpaceOnUse" color-interpolation-filters="sRGB"><feFlood flood-opacity="0" result="BackgroundImageFix"></feFlood><feColorMatrix in="SourceAlpha" values="0 0 0 0 0 0 0 0 0 0 0 0 0 0 0 0 0 0 127 0"></feColorMatrix><feOffset dy="2"></feOffset><feColorMatrix values="0 0 0 0 1 0 0 0 0 1 0 0 0 0 1 0 0 0 1 0"></feColorMatrix><feBlend in2="BackgroundImageFix" result="effect1_dropShadow"></feBlend><feBlend in="SourceGraphic" in2="effect1_dropShadow" result="shape"></feBlend></filter></defs>
    </symbol>

    <symbol id="icon-arrow_min" viewBox="0 0 4 7">
        <path opacity=".3" d="M3.835 3.91L.972 6.83a.56.56 0 0 1-.806 0 .592.592 0 0 1 0-.822l2.46-2.51L.167.989A.576.576 0 0 1 0 .58C0 .425.059.28.166.17a.56.56 0 0 1 .805 0l2.862 2.92A.58.58 0 0 1 4 3.5a.575.575 0 0 1-.165.41z"></path>
    </symbol>

    <symbol id="icon-b-logo" viewBox="0 0 127 56">
        <g clip-path="url(#a)"><path d="M17.268 36.008s-.465-.243-1.378-.746a4.99 4.99 0 0 1-2.097-2.192c-.48-.96-.719-2.117-.719-3.472v-4.72c0-1.355.24-2.512.72-3.471a4.99 4.99 0 0 1 2.096-2.193c.913-.502 2.022-.76 3.295-.76 1.063 0 2.006.227 2.845.7.839.471 1.528 1.141 2.082 2.024.539.884.928 1.95 1.138 3.213h-3.295a4.337 4.337 0 0 0-.569-1.446c-.255-.396-.569-.716-.943-.93a2.442 2.442 0 0 0-1.243-.319c-.6 0-1.109.122-1.528.366-.42.243-.734.609-.959 1.08-.224.473-.329 1.051-.329 1.721v4.72c0 .67.105 1.249.33 1.72.224.473.539.838.958 1.082.42.243.928.365 1.528.365.464 0 .883-.107 1.258-.32a2.71 2.71 0 0 0 .943-.913 3.98 3.98 0 0 0 .554-1.462h3.295c-.21 1.249-.599 2.33-1.138 3.213-.54.883-1.243 1.568-2.067 2.025-.839.472-1.782.7-2.845.7-1.288.015-1.932.015-1.932.015zm10.662-12.44h3.19V35.84h-3.19V23.568zm1.378 4.553h6.216v3.121h-6.216v-3.121zm3.325 2.543l2.89-1.249 3.266 6.425h-3.64l-2.516-5.177zm0-1.873l2.112-5.223h3.325L35 30.908l-2.367-2.117zm7.923 6.289c-.644-.625-.958-1.584-.958-2.848 0-1.218.36-2.116 1.078-2.726.719-.609 1.797-.913 3.22-.913h3.025l.165 2.466H43.91c-.48 0-.839.092-1.078.29-.24.198-.36.487-.36.883s.15.7.45.898c.299.198.763.29 1.377.29.854 0 1.483-.092 1.902-.29.42-.198.63-.502.63-.929l.239 1.782a1.65 1.65 0 0 1-.6 1.127 3.486 3.486 0 0 1-1.332.685 6.04 6.04 0 0 1-1.677.228c-1.288-.015-2.262-.32-2.906-.944zm6.26-7.02c0-.563-.18-1.005-.554-1.31-.374-.304-.898-.456-1.587-.456-.45 0-.899.076-1.333.228a3.91 3.91 0 0 0-1.168.625l-1.977-1.98c.479-.563 1.123-.99 1.902-1.31a7.243 7.243 0 0 1 2.62-.471c1.049 0 1.947.183 2.696.533.75.365 1.318.883 1.708 1.553.389.685.584 1.507.584 2.466v7.887h-2.89V28.06zm8.762 7.948s-.345-.167-1.034-.487a4.062 4.062 0 0 1-1.662-1.4c-.42-.61-.689-1.356-.809-2.224h3.115c.075.412.255.747.57.975.299.228.703.35 1.198.35.539 0 .943-.091 1.243-.29a.961.961 0 0 0 .434-.837v-.015c0-.32-.12-.578-.375-.746-.254-.183-.614-.259-1.063-.259h-1.318v-2.71h1.318c.375 0 .66-.106.854-.32.194-.213.3-.502.3-.883v-.015c0-.35-.12-.609-.36-.807-.24-.198-.584-.29-1.033-.29-.45 0-.84.123-1.139.381-.314.26-.524.61-.629 1.066h-3.1c.255-1.31.794-2.314 1.648-3.045.853-.716 1.932-1.08 3.25-1.08 1.392 0 2.456.304 3.22.897.748.594 1.138 1.432 1.138 2.528v.015c0 .624-.165 1.188-.48 1.644-.314.473-.763.807-1.347 1.036.673.106 1.183.41 1.557.898.375.487.554 1.127.554 1.919v.015c0 1.172-.404 2.07-1.213 2.71-.809.64-1.947.96-3.414.96-.974.014-1.423.014-1.423.014zm8.985-.928c-.644-.625-.959-1.584-.959-2.848 0-1.218.36-2.116 1.079-2.726.719-.609 1.797-.913 3.22-.913h3.025l.165 2.466h-3.175c-.48 0-.839.092-1.079.29-.24.198-.359.487-.359.883s.15.7.45.898c.299.198.763.29 1.377.29.854 0 1.483-.092 1.902-.29.42-.198.63-.502.63-.929l.239 1.782a1.65 1.65 0 0 1-.6 1.127 3.52 3.52 0 0 1-1.317.685 6.039 6.039 0 0 1-1.678.228c-1.318-.015-2.291-.32-2.92-.944zm6.26-7.02c0-.563-.18-1.005-.554-1.31-.374-.304-.899-.456-1.588-.456-.449 0-.898.076-1.332.228a4.102 4.102 0 0 0-1.169.625l-1.977-1.98c.48-.563 1.124-.99 1.903-1.31a7.242 7.242 0 0 1 2.62-.471c1.049 0 1.947.183 2.696.533.749.365 1.318.883 1.707 1.553.39.685.585 1.507.585 2.466v7.887h-2.89V28.06zm6.036-4.492h3.175V35.84h-3.19l.015-12.272zm1.707 4.735h7.413v3h-7.413v-3zm5.571-4.735h3.19V35.84h-3.19V23.568zm8.477 11.816a4.09 4.09 0 0 1-1.782-1.828c-.405-.806-.614-1.766-.614-2.892v-1.995c0-1.111.21-2.055.614-2.847a4.133 4.133 0 0 1 1.782-1.812c.779-.411 1.722-.624 2.816-.624 1.093 0 2.036.213 2.815.624a4.13 4.13 0 0 1 1.782 1.812c.405.792.614 1.75.614 2.847v2.04c0 1.112-.209 2.071-.614 2.863a4.13 4.13 0 0 1-1.782 1.812c-.779.41-1.722.624-2.815.624-1.094 0-2.037-.198-2.816-.624zm4.298-3.06c.36-.381.54-.914.54-1.615v-2.04c0-.685-.18-1.218-.54-1.599-.36-.38-.853-.563-1.497-.563-.63 0-1.124.183-1.483.563-.36.381-.524.914-.524 1.6v2.04c0 .7.18 1.233.524 1.613.344.38.839.579 1.483.579.644-.015 1.153-.198 1.497-.579zM3.64 40.257c.224-.472.538-.837.958-1.081.42-.244.928-.366 1.527-.366.465 0 .869.107 1.243.32.375.213.69.518.944.929.255.396.45.883.569 1.446h3.295c-.21-1.248-.584-2.33-1.138-3.212-.54-.883-1.243-1.569-2.082-2.025-.839-.472-1.782-.7-2.846-.7-1.288 0-2.38.258-3.294.76a4.99 4.99 0 0 0-2.097 2.193c-.48.96-.719 2.117-.719 3.472v4.72c0 1.355.24 2.512.719 3.471a4.99 4.99 0 0 0 2.097 2.193c.913.502 1.377.746 1.377.746h1.932c1.064 0 2.007-.229 2.846-.7.839-.473 1.527-1.143 2.067-2.026.554-.883.928-1.949 1.138-3.212H8.88c-.12.578-.3 1.065-.554 1.461-.255.396-.57.7-.944.914-.374.213-.793.32-1.258.32-.599 0-1.108-.122-1.527-.366-.42-.244-.734-.609-.959-1.08-.224-.473-.33-1.051-.33-1.721v-4.72c0-.686.106-1.264.33-1.736zM24.771 49.91v-9.258h-9.12v5.969c0 .791-.03 1.416-.09 1.873-.06.456-.195.806-.39 1.05-.194.244-.494.366-.898.366h-.734V56h2.846v-3.091h7.158v3.09h2.83v-6.09h-1.601zm-6.544 0c.404-.64.614-1.462.614-2.497v-3.776h2.74v6.257h-3.354v.016zM36.362 41.277c-.748-.533-1.662-.807-2.71-.807-1.124 0-2.082.228-2.876.67-.794.441-1.393 1.096-1.812 1.964-.42.852-.629 1.888-.629 3.106v1.385c0 1.157.21 2.147.644 2.97a4.348 4.348 0 0 0 1.887 1.872c.824.426 1.243.64 1.243.64h1.737c.794 0 1.588-.153 2.367-.472a7.082 7.082 0 0 0 2.111-1.355l-2.081-1.873c-.345.289-.72.502-1.139.654a3.664 3.664 0 0 1-1.273.229c-.823 0-1.467-.229-1.932-.685-.374-.366-.584-.868-.659-1.477h7.399v-.807c0-1.447-.195-2.68-.584-3.7-.375-1.005-.944-1.781-1.693-2.314zM31.24 45.92c.03-.76.225-1.37.63-1.811.419-.472 1.018-.7 1.782-.7.584 0 1.063.197 1.407.578.36.38.57.929.66 1.644l.03.29H31.24zM47.805 40.652h-6.14v7.37c0 .593-.136 1.065-.42 1.385-.285.32-.674.487-1.198.487v3.122h.24c.913 0 1.692-.183 2.35-.548.66-.366 1.154-.899 1.498-1.6.345-.7.51-1.537.51-2.527v-4.583h3.16v9.151h3.19V40.652h-3.19zM61.493 41.003c-.748-.366-1.647-.533-2.695-.533-.959 0-1.842.152-2.621.472-.794.304-1.423.746-1.902 1.31l1.977 1.978a3.933 3.933 0 0 1 1.168-.624 4.09 4.09 0 0 1 1.333-.228c.689 0 1.213.152 1.587.457.375.304.554.746.554 1.309v.518h-2.92c-1.438 0-2.516.304-3.22.913-.719.61-1.078 1.523-1.078 2.726 0 1.279.314 2.223.958 2.847.644.624 1.603.944 2.906.944.584 0 1.153-.076 1.677-.229.524-.152.974-.38 1.318-.685.15-.121.255-.274.36-.426v1.172h2.89v-7.887c0-.959-.195-1.781-.584-2.466-.39-.685-.959-1.203-1.708-1.568zm-1.228 9.18c-.419.199-1.048.29-1.902.29-.614 0-1.063-.091-1.377-.29-.3-.197-.45-.486-.45-.898 0-.395.12-.685.36-.883.24-.198.599-.289 1.078-.289h2.905v1.142c.015.426-.194.73-.614.929zM70.105 40.652H66.93v12.272h3.175v-4.537h4.103v4.537h3.175V40.652h-3.175v4.736h-4.103v-4.736zM90.099 42.906a4.133 4.133 0 0 0-1.783-1.812c-.778-.411-1.722-.624-2.815-.624s-2.037.213-2.816.624a4.133 4.133 0 0 0-1.782 1.812c-.404.792-.614 1.736-.614 2.847v1.995c0 1.126.21 2.086.614 2.893a4.09 4.09 0 0 0 1.782 1.827c.78.41 1.723.624 2.816.624 1.093 0 2.037-.213 2.815-.624a4.133 4.133 0 0 0 1.783-1.812c.404-.792.614-1.751.614-2.863v-2.04c0-1.111-.21-2.055-.614-2.847zm-2.576 4.887c0 .7-.18 1.234-.54 1.614-.359.38-.853.579-1.497.579-.644 0-1.138-.198-1.483-.579-.344-.38-.524-.913-.524-1.614v-2.04c0-.685.18-1.218.524-1.599.36-.38.854-.563 1.483-.563.644 0 1.138.183 1.498.563.359.381.539.914.539 1.599v2.04zM80.168 1.903C81.456.64 83.238 0 85.545 0h11.681c2.307 0 4.104.64 5.392 1.903 1.273 1.264 1.917 3.121 1.917 5.558 0 2.45-.644 4.293-1.917 5.557-1.273 1.264-3.07 1.903-5.392 1.903H85.545c-2.307 0-4.104-.64-5.392-1.903-1.273-1.264-1.917-3.121-1.917-5.557 0-2.437.644-4.294 1.932-5.558zm2.112 8.846c.764.7 1.842 1.05 3.265 1.05h11.681c1.423 0 2.517-.35 3.265-1.05.749-.7 1.138-1.796 1.138-3.273 0-1.492-.374-2.573-1.138-3.274-.748-.7-1.842-1.05-3.265-1.05H85.545c-1.408 0-2.501.35-3.265 1.05-.764.7-1.138 1.797-1.138 3.274s.374 2.573 1.138 3.273z"></path><path d="M83.703 12.85l3.924 1.66-3.654 4.644-.27-6.303zM86.623 9.212a1.48 1.48 0 0 0 1.468-1.492 1.48 1.48 0 0 0-1.468-1.492 1.48 1.48 0 0 0-1.468 1.492 1.48 1.48 0 0 0 1.468 1.492zM91.386 9.212a1.48 1.48 0 0 0 1.467-1.492 1.48 1.48 0 0 0-1.467-1.492 1.48 1.48 0 0 0-1.468 1.492 1.48 1.48 0 0 0 1.468 1.492zM96.163 9.212a1.48 1.48 0 0 0 1.468-1.492 1.48 1.48 0 0 0-1.468-1.492 1.48 1.48 0 0 0-1.468 1.492 1.48 1.48 0 0 0 1.468 1.492zM98.08 8.83c1.288-1.263 3.071-1.902 5.377-1.902h11.682c2.306 0 4.103.64 5.391 1.903 1.273 1.264 1.917 3.121 1.917 5.557 0 2.452-.644 4.294-1.917 5.558-1.273 1.263-3.07 1.903-5.391 1.903h-11.682c-2.306 0-4.104-.64-5.392-1.903-1.273-1.264-1.917-3.122-1.917-5.558.015-2.436.644-4.293 1.932-5.557zm2.112 8.847c.764.7 1.842 1.05 3.265 1.05h11.682c1.422 0 2.516-.35 3.264-1.05.749-.7 1.139-1.797 1.139-3.274 0-1.492-.375-2.573-1.139-3.273-.748-.7-1.842-1.05-3.264-1.05h-11.682c-1.408 0-2.501.35-3.265 1.05-.764.7-1.138 1.797-1.138 3.273 0 1.477.39 2.574 1.138 3.274z"></path><path d="M110.331 29.995h-2.052V28c0-1.933 1.543-3.502 3.445-3.502h11.831c.764 0 1.393-.64 1.393-1.416V16.84c0-.777-.629-1.416-1.393-1.416h-2.291v-2.086h2.291c1.902 0 3.445 1.568 3.445 3.502v6.242c0 1.934-1.543 3.502-3.445 3.502h-11.831c-.764 0-1.393.64-1.393 1.416v1.995z"></path><path d="M111.08 39.495h-3.565a.708.708 0 0 1-.703-.715v-8.466c0-.396.314-.715.703-.715h3.565a.71.71 0 0 1 .704.715v8.466a.71.71 0 0 1-.704.715z"></path></g><defs><clipPath id="a"><path d="M0 0h127v56H0z"></path></clipPath></defs>
    </symbol>

    <symbol id="icon-build" viewBox="0 0 38 48">
        <path d="M36.87 37.5c-.03-.203-.671-5.092-3.177-6.884l-.01-.01a13.11 13.11 0 0 0-2.567-1.326.77.77 0 0 0-.224-.111l-.52-.183a40.633 40.633 0 0 0-2.414-.83l-.478-.162a1.365 1.365 0 0 0-.194-.05c-1.192-.375-2.261-.658-2.821-.81v-.921a7.487 7.487 0 0 0 3.005-5.983v-.607c.101.01.193.02.295.02a2.256 2.256 0 0 0 2.261-2.247v-1.69c0-.466-.142-.911-.407-1.276.163-.324.234-.678.224-1.042v-.709a2.505 2.505 0 0 0-.55-1.69l-.02-.02a1.78 1.78 0 0 0-.56-.385c-.194-1.822-1.132-6.792-5.521-8.776l-.051-.051H23.1a10.113 10.113 0 0 0-3.667-.77h-.357a10.588 10.588 0 0 0-3.544.547h-.03l-.062.02c-4.91 1.792-5.867 7.066-6.06 8.99a1.78 1.78 0 0 0-.56.384l-.01.02a2.482 2.482 0 0 0-.591 1.7v.73c-.01.364.07.718.224 1.052-.265.375-.408.82-.408 1.286v1.63c0 1.073.734 2.034 1.793 2.257.255.06.52.06.774.03v.608c0 2.318 1.1 4.524 2.954 5.931v.962a62.44 62.44 0 0 0-6.295 2.025h-.03l-.062.02c-.967.364-1.904.84-2.79 1.417l-.01.01c-2.354 1.7-3.056 6.023-3.179 6.883L.03 46.256a.59.59 0 0 0 .508.657l.795.102a.583.583 0 0 0 .652-.496l1.171-8.787c.214-1.64 1.04-4.585 2.353-5.567a8.79 8.79 0 0 1 1.039-.587v4.606c-.703.324-2.088 1.245-2.088 3.512v6.225c0 .537.438.972.978.972h27.206c.54 0 .978-.435.978-.972v-6.215c0-2.257-1.386-3.188-2.088-3.502v-4.596c.336.172.672.375.988.597 1.497 1.084 2.24 4.465 2.383 5.568l1.12 8.371a.986.986 0 0 0 1.11.84.99.99 0 0 0 .856-1.103l-1.12-8.382zm-9.38-21.835a.304.304 0 0 1 .275-.324c.081-.01.153.02.214.071.06.05.102.122.102.203v1.76a.3.3 0 0 1-.102.193.289.289 0 0 1-.214.071.302.302 0 0 1-.275-.263v-1.71zm-17.326-2.227v-.83c0-.07.01-.152.03-.212h.092c.54 0 .988-.436.988-.982 0-.213.041-5.102 3.555-7.36v2.38c0 .141.03.283.102.425.122.243 1.263 2.358 4.37 2.358 3.116 0 4.247-2.115 4.37-2.368a1.02 1.02 0 0 0 .09-.415V4.419c3.006 2.4 3.046 6.944 3.046 6.985 0 .536.438.982.978.982h.092c.02.07.03.151.03.222v.83a2.217 2.217 0 0 0-1.609.547H11.784a2.196 2.196 0 0 0-1.345-.537l-.01-.01h-.265zm-.173 2.217a.311.311 0 0 1 .275-.324c.081-.01.153.02.214.071.06.05.102.122.102.203v1.75a.3.3 0 0 1-.102.193.321.321 0 0 1-.214.07.303.303 0 0 1-.275-.262v-1.7zm10.287-8.523v-4.12c.51.06 1.019.182 1.518.344V6.14c-.377.496-.917.84-1.518.992zm-3.483-.982V3.204a9.67 9.67 0 0 1 1.517-.243v4.191a2.709 2.709 0 0 1-1.517-1.002zM8.514 36.912v-6.144c.438-.162.906-.334 1.416-.496v6.873c0 .537.438.982.988.982h16.287c.54 0 .988-.435.988-.982v-6.853l1.395.486v6.145c0 .485.367.9.856.971.132.02 1.242.213 1.242 1.822v5.244H6.426v-5.244c0-1.518 1.029-1.781 1.253-1.822.468-.09.835-.506.835-.982zm4.033-20.974h12.977v4.292c0 3.058-2.506 5.548-5.592 5.548H18.12c-3.076 0-5.582-2.49-5.582-5.547v-4.293h.01zm6.499 19.203l4.838-6.144c.54.141 1.355.364 2.312.647v6.51h-14.32l.01-6.53a72.069 72.069 0 0 1 2.26-.637l4.9 6.154zM15.5 27.539v-.294a7.497 7.497 0 0 0 2.628.476h1.803c.876 0 1.752-.162 2.577-.455v.273l-3.483 4.434-3.525-4.434z"></path><path d="M11.254 38.563H7.159v1.822h4.095v-1.822zm19.658 0h-4.095v1.822h4.095v-1.822z"></path>
    </symbol>

    <symbol id="icon-c-location" viewBox="0 0 23 33">
        <path d="M17.512 25.36l4.203-7.198.028-.052A11.815 11.815 0 0 0 23 12.758c0-3.174-1.213-6.141-3.423-8.37-2.21-2.23-5.134-3.433-8.24-3.389-3.01.045-5.849 1.285-7.994 3.484A11.842 11.842 0 0 0 0 12.685a12.028 12.028 0 0 0 1.256 5.425l.03.052 4.202 7.197.939 1.617 2.722 4.658a2.7 2.7 0 0 0 2.347 1.365 2.7 2.7 0 0 0 2.347-1.365l2.723-4.658.946-1.617zM2.867 17.231a10.012 10.012 0 0 1-1.047-4.54c.036-5.344 4.318-9.751 9.546-9.825 2.614-.037 5.077.974 6.933 2.85a9.947 9.947 0 0 1 2.881 7.041 9.93 9.93 0 0 1-1.047 4.474l-7.85 13.45a.888.888 0 0 1-.78.457.881.881 0 0 1-.78-.458L2.867 17.23z"></path><path d="M11.504 8.5c-2.297 0-4.167 1.912-4.167 4.26 0 2.347 1.87 4.259 4.167 4.259 2.296 0 4.166-1.912 4.166-4.26 0-2.347-1.87-4.259-4.166-4.259zm0 6.651c-1.293 0-2.34-1.07-2.34-2.392 0-1.321 1.047-2.391 2.34-2.391 1.292 0 2.34 1.07 2.34 2.391 0 1.322-1.055 2.392-2.34 2.392z"></path>
    </symbol>

    <symbol id="icon-c-mail" viewBox="0 0 35 26">
        <path d="M31.195.184H2.899A2.902 2.902 0 0 0 0 3.082v19.813a2.9 2.9 0 0 0 2.899 2.892H31.2c1.599 0 2.899-1.3 2.899-2.899V3.082A2.912 2.912 0 0 0 31.195.184zm1.353 2.898v19.813c0 .086-.02.166-.04.245-1.784-1.704-7.436-7.064-11.097-10.208 3.814-3.462 9.73-8.881 11.09-10.122.027.086.047.18.047.272zm-14.52 10.832c-.212.192-.557.424-.981.424-.425 0-.77-.232-.982-.424-2.56-2.309-9.406-8.57-13.326-12.158a.638.638 0 0 1 .16-.027H31.2c.053 0 .107.013.16.027-2.54 2.321-10.527 9.624-13.333 12.158zm-4.192.066c.451.411.863.783 1.194 1.081.597.538 1.294.823 2.017.823.723 0 1.426-.285 2.016-.823.325-.298.743-.67 1.194-1.08 3.595 3.083 9.313 8.496 11.123 10.227a.647.647 0 0 1-.185.033H2.899a.575.575 0 0 1-.186-.033c1.81-1.724 7.528-7.144 11.123-10.228zm-1.154-1.048c-3.655 3.144-9.312 8.504-11.09 10.202-.02-.08-.04-.16-.04-.246V3.082a.96.96 0 0 1 .047-.272c1.346 1.24 7.263 6.653 11.083 10.122z"></path>
    </symbol>

    <symbol id="icon-c-phone" viewBox="0 0 29 28">
        <path d="M28.198 20.62l-4.538-4.402c-1.069-1.046-2.814-1.046-3.89 0l-2.607 2.53a.466.466 0 0 1-.598.049 29.624 29.624 0 0 1-6.981-6.667.443.443 0 0 1 .042-.582l2.665-2.592a2.626 2.626 0 0 0 0-3.777L7.753.764a2.857 2.857 0 0 0-3.89 0l-1.439 1.4A7.893 7.893 0 0 0 .23 5.948a7.78 7.78 0 0 0 .171 4.345 23.379 23.379 0 0 0 2.97 5.856 30.347 30.347 0 0 0 3.89 4.609 30.137 30.137 0 0 0 5.215 4.096 23.6 23.6 0 0 0 6.753 2.924c.62.146 1.254.222 1.888.222h.014c2.208-.014 4.281-.86 5.834-2.39l1.24-1.207a2.64 2.64 0 0 0-.007-3.784zM5.829 1.761c.243 0 .478.09.649.263l4.545 4.422c.17.166.27.395.27.63a.884.884 0 0 1-.27.638l-2.665 2.592a2.156 2.156 0 0 0-.235 2.89 30.784 30.784 0 0 0 3.206 3.638 31.081 31.081 0 0 0 4.217 3.445 2.349 2.349 0 0 0 2.935-.25l2.579-2.543a.936.936 0 0 1 .648-.264c.242 0 .477.09.648.264l4.552 4.435a.885.885 0 0 1 .271.63.915.915 0 0 1-.17.527l-1.326 1.29c-1.553 1.531-3.854 2.169-5.998 1.67a21.579 21.579 0 0 1-6.212-2.71 28.652 28.652 0 0 1-4.9-3.846 28.596 28.596 0 0 1-3.662-4.325 21.649 21.649 0 0 1-2.75-5.412c-.748-2.246-.136-4.664 1.588-6.32l1.44-1.4a.894.894 0 0 1 .64-.264z"></path>
    </symbol>

    <symbol id="icon-c-time" viewBox="0 0 30 30">
        <path d="M15 0C6.717 0 0 6.717 0 15c0 8.283 6.717 15 15 15 8.283 0 15-6.717 15-15C29.993 6.717 23.283.007 15 0zm0 28.234C7.692 28.234 1.766 22.308 1.766 15S7.692 1.766 15 1.766 28.234 7.692 28.234 15C28.227 22.308 22.308 28.227 15 28.234z"></path><path d="M15.88 12.517V7.205a.877.877 0 0 0-.88-.88.877.877 0 0 0-.88.88v5.312a2.65 2.65 0 0 0-1.603 1.604H9.635a.877.877 0 0 0-.879.88c0 .487.392.878.88.878h2.881a2.65 2.65 0 0 0 2.786 1.752 2.64 2.64 0 0 0 .576-5.114zM15 15.88a.877.877 0 0 1-.88-.879c0-.488.392-.88.88-.88s.88.392.88.88-.392.88-.88.88zM4.374 14.121h.074a.85.85 0 0 1 .85.85v.074a.85.85 0 0 1-.85.85h-.074a.85.85 0 0 1-.85-.85v-.074a.855.855 0 0 1 .85-.85zM15 24.709c.488 0 .88.392.88.88a.877.877 0 0 1-.88.879.877.877 0 0 1-.88-.88c0-.487.392-.879.88-.879zm10.589-10.588c.488 0 .88.392.88.88a.878.878 0 0 1-.88.879.877.877 0 0 1-.88-.88c0-.487.392-.879.88-.879zM15 3.532c.488 0 .88.392.88.88a.877.877 0 0 1-.88.879.877.877 0 0 1-.88-.88c0-.487.392-.879.88-.879z"></path>
    </symbol>

    <symbol id="icon-calc" viewBox="0 0 70 70">
        <rect opacity=".5" width="70" height="70" rx="15"></rect><rect x="4.375" y="4.268" width="61.25" height="59.756" rx="12" filter="url(#a)"></rect><g clip-path="url(#b)"><path d="M40.282 55a4.395 4.395 0 0 1-4.39-4.388V39.897a4.382 4.382 0 0 1 4.39-4.388h14.327a4.394 4.394 0 0 1 4.39 4.388v10.715A4.38 4.38 0 0 1 54.61 55H40.282z"></path><path d="M40.282 54.49a3.889 3.889 0 0 1-3.88-3.878V39.897a3.889 3.889 0 0 1 3.88-3.879H54.61a3.889 3.889 0 0 1 3.88 3.879v10.715a3.889 3.889 0 0 1-3.88 3.879H40.282z"></path><path d="M58.313 50.612a3.713 3.713 0 0 1-3.704 3.702H40.281a3.713 3.713 0 0 1-3.704-3.702V39.897a3.713 3.713 0 0 1 3.705-3.703h14.327a3.713 3.713 0 0 1 3.704 3.703v10.715z"></path><path opacity=".8" d="M40.282 53.335a3.019 3.019 0 0 1-3.018-3.017V39.603a3.019 3.019 0 0 1 3.018-3.017H54.61a3.019 3.019 0 0 1 3.018 3.017v10.715a3.019 3.019 0 0 1-3.019 3.017H40.282z"></path><path d="M40.282 53.629a3.019 3.019 0 0 1-3.018-3.017V39.897a3.019 3.019 0 0 1 3.018-3.017H54.61a3.019 3.019 0 0 1 3.018 3.017v10.715a3.019 3.019 0 0 1-3.019 3.017H40.282zM15.39 33.491A4.382 4.382 0 0 1 11 29.103V18.388C11 15.958 12.96 14 15.39 14h14.328c2.43 0 4.39 1.959 4.39 4.388v10.715a4.382 4.382 0 0 1-4.39 4.388H15.39z"></path><path d="M15.39 32.982a3.889 3.889 0 0 1-3.88-3.879V18.388a3.889 3.889 0 0 1 3.88-3.879h14.328a3.889 3.889 0 0 1 3.88 3.879v10.715a3.889 3.889 0 0 1-3.88 3.879H15.39z"></path><path d="M33.422 29.103a3.713 3.713 0 0 1-3.705 3.703H15.39a3.7 3.7 0 0 1-3.705-3.703V18.388a3.713 3.713 0 0 1 3.705-3.702h14.327a3.713 3.713 0 0 1 3.705 3.702v10.715z"></path><path opacity=".8" d="M15.41 31.806a3.019 3.019 0 0 1-3.018-3.016V18.094a3.019 3.019 0 0 1 3.018-3.017h14.288a3.019 3.019 0 0 1 3.019 3.017V28.79a3.019 3.019 0 0 1-3.019 3.017H15.41z"></path><path d="M15.39 32.12a3.019 3.019 0 0 1-3.018-3.017V18.388a3.019 3.019 0 0 1 3.018-3.017h14.328a3.019 3.019 0 0 1 3.018 3.017v10.715a3.019 3.019 0 0 1-3.018 3.017H15.39zM40.262 33.491a4.382 4.382 0 0 1-4.39-4.388V18.388c0-2.43 1.98-4.388 4.39-4.388H54.59c2.43 0 4.39 1.959 4.39 4.388v10.715a4.382 4.382 0 0 1-4.39 4.388H40.262z"></path><path d="M40.263 32.982a3.889 3.889 0 0 1-3.881-3.879V18.388a3.889 3.889 0 0 1 3.88-3.879H54.59a3.889 3.889 0 0 1 3.88 3.879v10.715a3.889 3.889 0 0 1-3.88 3.879H40.263z"></path><path d="M58.294 29.103a3.713 3.713 0 0 1-3.704 3.703H40.261a3.713 3.713 0 0 1-3.704-3.703V18.388a3.713 3.713 0 0 1 3.704-3.702H54.59a3.713 3.713 0 0 1 3.704 3.702v10.715z"></path><path opacity=".8" d="M40.282 31.806a3.019 3.019 0 0 1-3.018-3.016V18.094a3.019 3.019 0 0 1 3.018-3.017H54.57a3.019 3.019 0 0 1 3.019 3.017V28.79a3.019 3.019 0 0 1-3.019 3.017H40.282z"></path><path d="M40.263 32.12a3.019 3.019 0 0 1-3.019-3.017V18.388a3.019 3.019 0 0 1 3.019-3.017H54.59a3.019 3.019 0 0 1 3.018 3.017v10.715a3.019 3.019 0 0 1-3.018 3.017H40.262zM15.39 55A4.395 4.395 0 0 1 11 50.612V39.897c0-2.41 1.96-4.388 4.39-4.388h14.328c2.43 0 4.39 1.959 4.39 4.388v10.715c0 2.43-1.96 4.388-4.39 4.388H15.39z"></path><path d="M15.39 54.49a3.889 3.889 0 0 1-3.88-3.878V39.897a3.889 3.889 0 0 1 3.88-3.879h14.328a3.889 3.889 0 0 1 3.88 3.879v10.715a3.889 3.889 0 0 1-3.88 3.879H15.39z"></path><path d="M33.422 50.612a3.713 3.713 0 0 1-3.705 3.702H15.39a3.713 3.713 0 0 1-3.705-3.702V39.897a3.713 3.713 0 0 1 3.705-3.703h14.327a3.713 3.713 0 0 1 3.705 3.703v10.715z"></path><path opacity=".8" d="M15.41 53.315a3.019 3.019 0 0 1-3.018-3.016V39.603a3.019 3.019 0 0 1 3.018-3.017h14.288a3.019 3.019 0 0 1 3.019 3.017v10.696a3.019 3.019 0 0 1-3.019 3.016H15.41z"></path><path d="M15.39 53.629a3.019 3.019 0 0 1-3.018-3.017V39.897a3.019 3.019 0 0 1 3.018-3.017h14.328a3.019 3.019 0 0 1 3.018 3.017v10.715a3.019 3.019 0 0 1-3.018 3.017H15.39zM43.517 24.754v-2.017h7.84v2.017h-7.84zm2.842-2.977v-2.155h2.156v2.155h-2.156zm0 6.092v-2.155h2.156v2.155h-2.156z"></path><path d="M18.82 47.556l2.313-2.311-2.332-2.312 1.43-1.43 2.333 2.331 2.313-2.311 1.391 1.39-2.313 2.312 2.333 2.331-1.43 1.43-2.333-2.331-2.313 2.312-1.392-1.41zM43.517 44.54v-1.98h7.84v1.98h-7.84zm0 3.388V45.95h7.84v1.978h-7.84zM21.564 27.673v-2.919h-2.94v-2.017h2.94v-2.919h1.96v2.919h2.94v2.017h-2.94v2.92h-1.96z"></path></g><defs><filter id="a" x="4.375" y="4.268" width="61.25" height="61.756" filterUnits="userSpaceOnUse" color-interpolation-filters="sRGB"><feFlood flood-opacity="0" result="BackgroundImageFix"></feFlood><feColorMatrix in="SourceAlpha" values="0 0 0 0 0 0 0 0 0 0 0 0 0 0 0 0 0 0 127 0"></feColorMatrix><feOffset dy="2"></feOffset><feColorMatrix values="0 0 0 0 1 0 0 0 0 0.796274 0 0 0 0 0.0583333 0 0 0 1 0"></feColorMatrix><feBlend in2="BackgroundImageFix" result="effect1_dropShadow"></feBlend><feBlend in="SourceGraphic" in2="effect1_dropShadow" result="shape"></feBlend></filter><clipPath id="b"><path d="M11 14h48v41H11z"></path></clipPath></defs>
    </symbol>

    <symbol id="icon-calculation" viewBox="0 0 42 53">
    </symbol>

    <symbol id="icon-calendar" viewBox="0 0 39 39">
        <path d="M29.572 17.495a1.553 1.553 0 1 0 0-3.105 1.553 1.553 0 0 0 0 3.105z"></path><path d="M37.786 19.006c.67 0 1.214-.543 1.214-1.213V8.967a5.862 5.862 0 0 0-5.856-5.856h-2.35V1.227a1.213 1.213 0 1 0-2.427 0V3.12h-7.732V1.227c0-.67-.543-1.213-1.205-1.213s-1.213.543-1.213 1.213V3.12h-7.655V1.227A1.2 1.2 0 0 0 9.357.014c-.67 0-1.213.543-1.213 1.213V3.12H5.869A5.862 5.862 0 0 0 .014 8.975v24.17A5.862 5.862 0 0 0 5.869 39h11.856a1.213 1.213 0 1 0 0-2.427H5.869a3.444 3.444 0 0 1-3.437-3.437V8.966A3.444 3.444 0 0 1 5.87 5.53h2.275v1.892a1.213 1.213 0 1 0 2.427 0V5.53h7.654v1.892c0 .67.543 1.214 1.214 1.214.67 0 1.197-.552 1.197-1.214V5.53h7.73v1.892a1.213 1.213 0 1 0 2.428 0V5.53h2.35a3.444 3.444 0 0 1 3.437 3.437V17.8a1.193 1.193 0 0 0 1.205 1.205z"></path><path d="M29.962 20.933c-4.981 0-9.03 4.056-9.03 9.03 0 4.972 4.057 9.029 9.03 9.029 4.973 0 9.03-4.057 9.03-9.03 0-4.973-4.048-9.03-9.03-9.03zm0 15.64a6.618 6.618 0 0 1-6.61-6.61c0-3.642 2.97-6.612 6.61-6.612 3.65 0 6.611 2.97 6.611 6.611 0 3.64-2.962 6.611-6.61 6.611z"></path><path d="M29.707 25.065c-.67 0-1.213.544-1.213 1.214v4.277c0 .67.543 1.214 1.213 1.214h2.25a1.213 1.213 0 1 0 0-2.427H30.92V26.27c0-.661-.543-1.205-1.214-1.205zm-6.874-7.57a1.553 1.553 0 1 0 0-3.105 1.553 1.553 0 0 0 0 3.105zm-6.737 6.739a1.553 1.553 0 1 0 0-3.106 1.553 1.553 0 0 0 0 3.106zm-6.739-6.739a1.553 1.553 0 1 0 0-3.105 1.553 1.553 0 0 0 0 3.105zm0 6.739a1.553 1.553 0 1 0 0-3.106 1.553 1.553 0 0 0 0 3.106zm0 6.738a1.553 1.553 0 1 0 0-3.106 1.553 1.553 0 0 0 0 3.106zm6.739 0a1.553 1.553 0 1 0 0-3.106 1.553 1.553 0 0 0 0 3.106zm0-13.477a1.553 1.553 0 1 0 0-3.105 1.553 1.553 0 0 0 0 3.105z"></path>
    </symbol>

    <symbol id="icon-check" viewBox="0 0 10 8">
        <path d="M4.527 7.115a1.161 1.161 0 0 1-1.643 0L.34 4.571a1.161 1.161 0 1 1 1.642-1.642l1.516 1.516c.115.114.3.114.415 0L8.018.34A1.161 1.161 0 0 1 9.66 1.982L4.527 7.115z"></path>
    </symbol>

    <symbol id="icon-circle_check" viewBox="0 0 70 70">
        <path d="M59.746 10.254C53.143 3.637 44.352 0 35 0c-9.352 0-18.143 3.637-24.746 10.254C3.637 16.857 0 25.648 0 35c0 9.352 3.637 18.143 10.254 24.746C16.87 66.35 25.648 70 35 70c9.352 0 18.143-3.637 24.746-10.254C66.35 53.13 70 44.352 70 35c0-9.352-3.637-18.143-10.254-24.746zM35 65.898C17.965 65.898 4.102 52.035 4.102 35S17.965 4.102 35 4.102 65.898 17.965 65.898 35 52.035 65.898 35 65.898z"></path><path d="M51.72 23.775a2.038 2.038 0 0 0-2.898 0L30.706 41.877l-9.529-9.53a2.038 2.038 0 0 0-2.898 0c-.793.807-.807 2.106 0 2.9l10.978 10.978c.397.396.93.601 1.45.601.519 0 1.052-.205 1.449-.601L51.72 26.66a2.022 2.022 0 0 0 0-2.885z"></path>
    </symbol>

    <symbol id="icon-clean" viewBox="0 0 43 43">
        <path d="M40.59 25.453h-6.08V15.422h6.08a.996.996 0 0 0 .992-.992v-3.463l1.407-9.829a.983.983 0 0 0-.187-.732 1.012 1.012 0 0 0-.65-.39C42.095 0 42.046 0 42.005 0H22.202a.978.978 0 0 0-.7.293.991.991 0 0 0-.284.837l1.407 9.829v3.463c0 .544.447.992.991.992h6.081v10.04h-.423a2.411 2.411 0 0 0-2.406 2.406 2.411 2.411 0 0 0 2.406 2.406h.423v.846H25.34l.618-9.333h.487a.996.996 0 0 0 .992-.992v-2.829a.996.996 0 0 0-.992-.992h-4.764a5.291 5.291 0 0 0-2.382-3.455 5.206 5.206 0 0 0 .025-3.772 5.207 5.207 0 0 0-2.748-2.918 5.193 5.193 0 0 0-4.008-.122A5.207 5.207 0 0 0 9.65 9.447a4.865 4.865 0 0 0-.366 1.17c-3.853-.276-7.276 2.504-7.796 6.341H.992A.996.996 0 0 0 0 17.95v2.83c0 .544.447.99.992.99h.488l1.35 20.284c.032.52.47.927.99.927h38.185a.996.996 0 0 0 .992-.992V27.844c0-1.31-1.081-2.39-2.406-2.39zM27.438 6.227V1.984h.846v1.414h1.983V1.984h3.675v2.121h1.983V1.984h.846v4.243h1.983V1.984h2.106l-1.13 7.918H24.478l-1.13-7.918h2.105v4.243h1.984zM39.6 11.885v1.553H24.61v-1.553H39.6zm-7.073 3.537v10.04h-.845v-10.04h.845zm-18.909-3l-.22-.179a7.372 7.372 0 0 0-2.154-1.195 3.24 3.24 0 1 1 5.878 2.374c-.147.22-.204.488-.147.748.05.26.204.488.423.634.073.049.147.081.22.114a3.275 3.275 0 0 1 2.016 2.073h-5.211a.996.996 0 0 0-.992.992v6.365a.42.42 0 0 1-.423.423.42.42 0 0 1-.422-.423v-1.415a2.411 2.411 0 0 0-2.407-2.406 2.411 2.411 0 0 0-2.406 2.406v4.951a.42.42 0 0 1-.423.423.42.42 0 0 1-.423-.423v-9.926a.996.996 0 0 0-.991-.992h-2.44a5.368 5.368 0 0 1 6.48-4.243l.032.008h.025a5.361 5.361 0 0 1 2.122 1.049l.22.178 1.243-1.536zm-8.666 9.357v6.08a2.411 2.411 0 0 0 2.406 2.407 2.411 2.411 0 0 0 2.407-2.406v-4.951a.42.42 0 0 1 .422-.423.42.42 0 0 1 .423.423v1.415a2.411 2.411 0 0 0 2.406 2.406 2.411 2.411 0 0 0 2.407-2.407V21.78h8.552l-.618 9.333H22.21a2.411 2.411 0 0 0-2.407 2.406v7.495H4.748L3.463 21.78h1.488zm32.81 9.333H34.51v-.846h3.252a.42.42 0 0 1 .422.423.425.425 0 0 1-.422.423zM21.78 33.518a.42.42 0 0 1 .423-.423h15.552a2.411 2.411 0 0 0 2.406-2.406 2.411 2.411 0 0 0-2.406-2.406h-8.48a.42.42 0 0 1-.422-.423.42.42 0 0 1 .422-.423h11.317a.42.42 0 0 1 .422.423v6.08H21.78v-.422zm10.747-3.252v.846h-.845v-.846h.845zm-17.104-10.47v-.846h10.04v.845h-10.04zM4.95 18.95v.845H1.984v-.845H4.95zm32.526 18.527v3.536h-1.553v-3.536H33.94v3.536h-1.553v-3.536h-1.984v3.536h-1.552v-3.536h-1.984v3.536h-1.553v-3.536h-1.983v3.536h-1.553v-5.089h19.226v5.09h-1.552v-3.537h-1.976zM1.415 10.47h1.983V9.057h1.415V7.072H3.398V5.658H1.415v1.414H0v1.984h1.415v1.415z"></path><path d="M40.876 23.194v-1.415h1.414v-1.984h-1.414v-1.414h-1.984v1.414h-1.415v1.984h1.415v1.415h1.984zM12.024 4.813h1.984V3.398h1.414V1.415h-1.415V0h-1.983v1.415h-1.415v1.983h1.415v1.415zm15.414 2.26h-1.985v1.984h1.985V7.073z"></path>
    </symbol>

    <symbol id="icon-close" viewBox="0 0 18 18">
        <path d="M10.575 9l7.088-7.088c.45-.45.45-1.162 0-1.575-.45-.45-1.163-.45-1.576 0L9 7.388 1.912.338c-.45-.45-1.162-.45-1.575 0-.45.45-.45 1.163 0 1.576L7.388 9l-7.05 7.05c-.45.45-.45 1.162 0 1.575a.991.991 0 0 0 .788.375c.3 0 .563-.113.788-.337L9 10.575l7.087 7.088c.226.224.526.337.788.337s.563-.113.788-.337c.45-.45.45-1.163 0-1.576L10.575 9z"></path>
    </symbol>

    <symbol id="icon-document" viewBox="0 0 41 51">
    </symbol>

    <symbol id="icon-document-pen" viewBox="0 0 48 48">
    </symbol>

    <symbol id="icon-download" viewBox="0 0 26 32">
        <path d="M24.696 8.28L17.137.347A1.096 1.096 0 0 0 16.346 0H4.385A4.348 4.348 0 0 0 1.29 1.29 4.35 4.35 0 0 0 0 4.38v22.617c0 1.164.462 2.262 1.29 3.096a4.367 4.367 0 0 0 3.095 1.284h16.232a4.348 4.348 0 0 0 3.095-1.29 4.35 4.35 0 0 0 1.29-3.096V9.041c0-.27-.108-.54-.306-.762zm-5.83 1.847h3.94v16.87c0 1.2-.984 2.178-2.19 2.178H4.386c-1.188 0-2.19-.996-2.19-2.178V4.38c0-1.182 1.002-2.178 2.19-2.178h10.863v4.32a3.623 3.623 0 0 0 3.617 3.605zm0-2.202c-.78 0-1.41-.63-1.41-1.404V3.876l3.857 4.05h-2.448z"></path><path d="M5.308 23.488a1.1 1.1 0 0 0 1.098 1.098h12.195c.606 0 1.098-.492 1.098-1.098 0-.606-.498-1.098-1.11-1.098H6.406a1.095 1.095 0 0 0-1.098 1.098zm8.296-13.87a1.098 1.098 0 0 0-2.195 0v7.17l-2.43-2.616a1.1 1.1 0 0 0-1.607 1.5l4.33 4.655.007.006c.216.222.498.348.798.348.305 0 .587-.126.803-.354l4.337-4.655c.204-.21.306-.492.3-.786-.012-.3-.132-.57-.348-.768a1.111 1.111 0 0 0-.786-.3c-.3.012-.57.132-.767.348l-2.436 2.61V9.618h-.006z"></path>
    </symbol>

    <symbol id="icon-eye" viewBox="0 0 25 15">
        <path d="M12.499 0C7.723 0 3.392 2.63.196 6.903a1 1 0 0 0 0 1.189C3.392 12.37 7.723 15 12.499 15c4.776 0 9.107-2.63 12.303-6.903.26-.35.26-.839 0-1.189C21.606 2.63 17.275 0 12.499 0zm.342 12.781c-3.17.201-5.788-2.43-5.589-5.626.164-2.635 2.286-4.772 4.904-4.936 3.17-.201 5.789 2.43 5.59 5.626-.17 2.63-2.292 4.766-4.905 4.936zm-.158-2.44a2.836 2.836 0 0 1-3.007-3.026 2.852 2.852 0 0 1 2.644-2.662 2.836 2.836 0 0 1 3.006 3.027c-.091 1.426-1.237 2.574-2.643 2.662z"></path>
    </symbol>

    <symbol id="icon-fb" viewBox="0 0 9 15">
        <path d="M7.95.297L6.08.294c-2.099 0-3.456 1.392-3.456 3.547v1.635H.745a.294.294 0 0 0-.294.294v2.37c0 .162.132.293.294.293h1.88v5.979c0 .162.13.294.293.294H5.37a.294.294 0 0 0 .293-.294V8.433h2.198a.294.294 0 0 0 .293-.294l.001-2.369a.294.294 0 0 0-.294-.294H5.663V4.09c0-.667.16-1.005 1.027-1.005h1.26a.294.294 0 0 0 .293-.294V.59a.294.294 0 0 0-.294-.294z"></path>
    </symbol>

    <symbol id="icon-file" viewBox="0 0 25 32">
        <path d="M24.694 8.279L17.137.348A1.096 1.096 0 0 0 16.345 0H4.385A4.348 4.348 0 0 0 1.29 1.29 4.35 4.35 0 0 0 0 4.38v22.616c0 1.164.462 2.261 1.29 3.095a4.367 4.367 0 0 0 3.095 1.284h16.23a4.348 4.348 0 0 0 3.095-1.29A4.35 4.35 0 0 0 25 26.99V9.04c0-.27-.108-.54-.306-.761zm-5.83 1.847h3.94v16.87c0 1.2-.983 2.177-2.189 2.177H4.385c-1.188 0-2.19-.995-2.19-2.177V4.379c0-1.182 1.002-2.177 2.19-2.177h10.862V6.52a3.623 3.623 0 0 0 3.617 3.605zm0-2.201c-.78 0-1.41-.63-1.41-1.404V3.875l3.857 4.05h-2.447z"></path><path d="M5.309 23.486c0 .607.491 1.098 1.097 1.098H18.6c.606 0 1.098-.491 1.098-1.098 0-.605-.498-1.097-1.11-1.097H6.406a1.094 1.094 0 0 0-1.097 1.098zm8.295-13.87a1.098 1.098 0 0 0-2.195 0v7.17l-2.43-2.616a1.1 1.1 0 0 0-1.607 1.5l4.33 4.655.007.006c.216.222.498.348.797.348.306 0 .588-.126.804-.354l4.337-4.656c.204-.21.306-.492.3-.786a1.11 1.11 0 0 0-1.134-1.068c-.3.013-.57.133-.768.349l-2.435 2.61V9.615h-.006z"></path>
    </symbol>

    <symbol id="icon-four" viewBox="0 0 63 83">
        <path d="M55.817 67.467V83h-19.43V67.467H0V58.1L33.208 0h22.609v50.037H63v17.43h-7.183zM38.86 23.477h-.236l-15.19 27.39H37.8v-13.28l1.06-14.11z"></path>
    </symbol>

    <symbol id="icon-inst" viewBox="0 0 15 15">
        <path d="M10.683.98h-6.15A3.792 3.792 0 0 0 .745 4.768v6.15c0 2.089 1.7 3.788 3.788 3.788h6.15c2.088 0 3.788-1.7 3.788-3.788v-6.15c0-2.088-1.7-3.788-3.788-3.788zm2.57 9.938a2.573 2.573 0 0 1-2.57 2.57h-6.15a2.573 2.573 0 0 1-2.57-2.57v-6.15a2.573 2.573 0 0 1 2.57-2.57h6.15a2.573 2.573 0 0 1 2.57 2.57v6.15z"></path><path d="M7.608 4.308a3.54 3.54 0 0 0-3.537 3.536 3.54 3.54 0 0 0 3.537 3.537 3.54 3.54 0 0 0 3.537-3.537 3.54 3.54 0 0 0-3.537-3.536zm0 5.855a2.321 2.321 0 0 1-2.319-2.319 2.322 2.322 0 0 1 2.319-2.319 2.322 2.322 0 0 1 2.319 2.32 2.321 2.321 0 0 1-2.319 2.318zm3.685-6.89a.897.897 0 0 0-.893.893.9.9 0 0 0 .262.632.9.9 0 0 0 .631.262.902.902 0 0 0 .632-.262.897.897 0 0 0 0-1.263.897.897 0 0 0-.632-.262z"></path>
    </symbol>

    <symbol id="icon-logo" viewBox="0 0 171 74">
        <path d="M23.25 47.583s-.624-.322-1.855-.986a6.651 6.651 0 0 1-2.823-2.897c-.645-1.268-.967-2.797-.967-4.587v-6.237c0-1.791.322-3.32.967-4.588a6.65 6.65 0 0 1 2.823-2.897c1.23-.664 2.723-1.006 4.437-1.006 1.432 0 2.702.302 3.831.925 1.13.624 2.057 1.51 2.803 2.676.726 1.167 1.25 2.576 1.533 4.246h-4.437c-.16-.745-.423-1.389-.766-1.912-.343-.523-.766-.945-1.27-1.227a3.336 3.336 0 0 0-1.674-.422c-.807 0-1.492.16-2.057.482-.564.322-.988.805-1.29 1.429-.303.624-.444 1.388-.444 2.273v6.238c0 .885.141 1.65.444 2.273.302.624.726 1.107 1.29 1.428.565.322 1.25.483 2.057.483.625 0 1.19-.14 1.694-.422a3.63 3.63 0 0 0 1.27-1.207c.343-.524.605-1.167.746-1.932H34c-.283 1.65-.807 3.078-1.533 4.245-.726 1.167-1.674 2.073-2.783 2.676-1.129.624-2.4.926-3.831.926-1.734.02-2.601.02-2.601.02zm14.358-16.438h4.296v16.217h-4.296V31.145zm1.856 6.016h8.368v4.124h-8.368v-4.124zm4.476 3.36l3.892-1.65 4.396 8.49h-4.9l-3.388-6.84zm0-2.475l2.843-6.9h4.477l-4.134 9.697-3.186-2.797zm10.667 8.31c-.867-.825-1.29-2.093-1.29-3.763 0-1.61.483-2.796 1.451-3.601.968-.805 2.42-1.207 4.336-1.207h4.073l.222 3.259h-4.275c-.645 0-1.13.12-1.452.382-.323.262-.484.644-.484 1.167s.202.926.605 1.187c.403.262 1.029.383 1.855.383 1.15 0 1.997-.121 2.561-.383.565-.261.847-.664.847-1.227l.323 2.354a2.17 2.17 0 0 1-.807 1.489c-.484.402-1.069.704-1.794.905a8.274 8.274 0 0 1-2.259.302c-1.734-.02-3.045-.422-3.912-1.247zm8.429-9.276c0-.744-.242-1.328-.746-1.73-.504-.402-1.21-.604-2.138-.604-.605 0-1.21.101-1.794.302a5.298 5.298 0 0 0-1.573.825l-2.662-2.615c.645-.745 1.512-1.308 2.561-1.73a9.916 9.916 0 0 1 3.529-.624c1.411 0 2.621.241 3.63.704 1.008.483 1.774 1.167 2.298 2.052.525.906.787 1.992.787 3.26v10.42h-3.892V37.08zm11.797 10.503s-.464-.221-1.391-.644a5.445 5.445 0 0 1-2.239-1.85c-.564-.806-.927-1.791-1.089-2.938h4.195c.1.543.342.985.766 1.287.403.302.948.463 1.613.463.726 0 1.27-.12 1.674-.382.383-.262.585-.624.585-1.107v-.02c0-.422-.162-.765-.505-.986-.342-.241-.826-.342-1.431-.342h-1.775v-3.581h1.775c.504 0 .887-.14 1.15-.423.261-.281.402-.663.402-1.166v-.02c0-.463-.16-.805-.484-1.067-.322-.262-.786-.382-1.39-.382-.606 0-1.13.16-1.533.503-.424.342-.706.805-.847 1.408h-4.175c.343-1.73 1.07-3.058 2.219-4.024 1.149-.945 2.6-1.428 4.375-1.428 1.876 0 3.308.402 4.336 1.187 1.008.784 1.533 1.891 1.533 3.34v.02c0 .825-.222 1.569-.646 2.173-.423.623-1.028 1.066-1.815 1.368.908.14 1.593.543 2.098 1.187.504.644.746 1.489.746 2.535v.02c0 1.55-.545 2.736-1.634 3.581-1.089.845-2.621 1.268-4.597 1.268-1.311.02-1.916.02-1.916.02zm12.099-1.227c-.867-.825-1.29-2.093-1.29-3.763 0-1.61.484-2.796 1.452-3.601.967-.805 2.42-1.207 4.335-1.207h4.073l.222 3.259H91.45c-.645 0-1.13.12-1.452.382-.322.262-.484.644-.484 1.167s.202.926.605 1.187c.404.262 1.029.383 1.855.383 1.15 0 1.997-.121 2.561-.383.565-.261.847-.664.847-1.227l.323 2.354a2.17 2.17 0 0 1-.807 1.489c-.484.402-1.068.704-1.774.905a8.273 8.273 0 0 1-2.259.302c-1.774-.02-3.085-.422-3.932-1.247zm8.43-9.276c0-.744-.243-1.328-.747-1.73-.504-.402-1.21-.604-2.137-.604-.605 0-1.21.101-1.795.302a5.558 5.558 0 0 0-1.573.825l-2.662-2.615c.646-.745 1.513-1.308 2.561-1.73a9.916 9.916 0 0 1 3.53-.624c1.41 0 2.62.241 3.629.704 1.008.483 1.774 1.167 2.299 2.052.524.906.786 1.992.786 3.26v10.42h-3.892V37.08zm8.126-5.935h4.275v16.217h-4.295l.02-16.217zm2.299 6.257h9.981v3.964h-9.981v-3.964zm7.501-6.257h4.295v16.217h-4.295V31.145zm11.413 15.613a5.456 5.456 0 0 1-2.4-2.414c-.544-1.067-.826-2.334-.826-3.823v-2.636c0-1.468.282-2.716.826-3.762a5.513 5.513 0 0 1 2.4-2.394c1.049-.544 2.319-.825 3.791-.825s2.743.281 3.791.825a5.513 5.513 0 0 1 2.4 2.394c.544 1.046.826 2.314.826 3.762v2.696c0 1.469-.282 2.736-.826 3.783a5.514 5.514 0 0 1-2.4 2.394c-1.048.543-2.319.825-3.791.825s-2.742-.262-3.791-.825zm5.787-4.044c.484-.503.726-1.207.726-2.133v-2.696c0-.905-.242-1.61-.726-2.112-.484-.503-1.149-.745-2.016-.745-.847 0-1.512.242-1.996.745s-.706 1.207-.706 2.112v2.696c0 .926.242 1.63.706 2.133.463.503 1.129.764 1.996.764.867-.02 1.553-.261 2.016-.764zM4.9 53.196c.303-.623.726-1.106 1.29-1.428.565-.322 1.25-.483 2.058-.483.625 0 1.17.14 1.673.422a3.51 3.51 0 0 1 1.27 1.228c.343.523.606 1.167.767 1.911h4.436c-.282-1.65-.786-3.078-1.532-4.245-.726-1.167-1.674-2.072-2.803-2.676-1.13-.624-2.4-.926-3.832-.926-1.734 0-3.206.342-4.436 1.006a6.65 6.65 0 0 0-2.823 2.898C.323 52.17 0 53.699 0 55.49v6.237c0 1.79.323 3.32.968 4.587a6.65 6.65 0 0 0 2.823 2.898c1.23.663 1.855.985 1.855.985h2.602c1.431 0 2.702-.302 3.83-.925 1.13-.624 2.058-1.51 2.784-2.676.746-1.167 1.25-2.575 1.532-4.245h-4.436c-.161.764-.403 1.408-.746 1.931a3.63 3.63 0 0 1-1.27 1.207 3.412 3.412 0 0 1-1.694.423c-.807 0-1.493-.161-2.057-.483-.565-.322-.988-.805-1.29-1.428-.303-.624-.445-1.389-.445-2.274V55.49c0-.906.142-1.67.444-2.294zM33.353 65.952V53.72h-12.28v7.887c0 1.047-.04 1.871-.121 2.475-.08.604-.262 1.066-.525 1.388-.262.322-.665.483-1.21.483h-.987V74h3.83v-4.084h9.64V74h3.811v-8.048h-2.158zm-8.812 0c.545-.845.827-1.931.827-3.3v-4.99h3.69v8.27h-4.517v.02zM48.96 54.544c-1.007-.704-2.238-1.066-3.649-1.066-1.512 0-2.803.302-3.872.885-1.069.584-1.875 1.449-2.44 2.596-.564 1.126-.847 2.495-.847 4.104v1.831c0 1.53.283 2.837.867 3.923a5.802 5.802 0 0 0 2.541 2.475c1.11.563 1.674.845 1.674.845h2.34a8.472 8.472 0 0 0 3.185-.624 9.557 9.557 0 0 0 2.843-1.79L48.8 65.248a5.02 5.02 0 0 1-1.533.865 5.048 5.048 0 0 1-1.714.302c-1.11 0-1.976-.302-2.601-.905-.505-.483-.787-1.147-.888-1.952h9.962v-1.066c0-1.912-.262-3.541-.787-4.89-.504-1.327-1.27-2.353-2.278-3.058zm-6.896 6.137c.04-1.006.303-1.81.847-2.394.565-.624 1.371-.926 2.4-.926.786 0 1.432.262 1.895.765.484.503.767 1.227.888 2.173l.04.382h-6.07zM64.366 53.72H56.1v9.737c0 .785-.182 1.409-.565 1.831-.383.423-.907.644-1.613.644v4.124h.322c1.23 0 2.28-.24 3.166-.724.888-.483 1.553-1.187 2.017-2.112.464-.926.686-2.032.686-3.34v-6.056h4.254v12.092h4.296V53.719h-4.295zM82.798 54.182c-1.009-.483-2.219-.704-3.63-.704-1.29 0-2.48.201-3.529.624-1.069.402-1.916.986-2.56 1.73l2.66 2.616c.465-.363.989-.624 1.574-.825a5.6 5.6 0 0 1 1.794-.302c.928 0 1.634.201 2.138.604.504.402.746.985.746 1.73v.684H78.06c-1.936 0-3.388.402-4.336 1.207-.968.805-1.451 2.012-1.451 3.601 0 1.69.423 2.938 1.29 3.763.867.825 2.158 1.247 3.912 1.247.786 0 1.553-.1 2.259-.302.705-.2 1.31-.503 1.774-.905.202-.16.343-.362.484-.563v1.549h3.892V59.514c0-1.268-.262-2.354-.786-3.26-.525-.905-1.291-1.589-2.3-2.072zm-1.654 12.132c-.565.262-1.411.383-2.56.383-.828 0-1.433-.121-1.856-.383-.403-.261-.605-.643-.605-1.187 0-.523.161-.905.484-1.167.323-.261.807-.382 1.452-.382h3.912v1.51c.02.562-.262.965-.827 1.226zM94.393 53.72h-4.275v16.216h4.275V63.94h5.525v5.996h4.275V53.719h-4.275v6.258h-5.525v-6.258zM121.314 56.697a5.514 5.514 0 0 0-2.4-2.394c-1.049-.543-2.319-.825-3.791-.825s-2.743.282-3.791.825a5.514 5.514 0 0 0-2.4 2.394c-.544 1.046-.827 2.294-.827 3.762v2.636c0 1.49.283 2.757.827 3.823a5.455 5.455 0 0 0 2.4 2.414c1.048.544 2.319.825 3.791.825s2.742-.281 3.791-.825a5.513 5.513 0 0 0 2.4-2.394c.544-1.046.826-2.314.826-3.782v-2.697c0-1.468-.282-2.716-.826-3.762zm-3.469 6.459c0 .925-.242 1.63-.726 2.132-.484.503-1.149.765-2.016.765s-1.533-.262-1.997-.765c-.463-.503-.705-1.207-.705-2.132v-2.697c0-.905.242-1.609.705-2.112.484-.503 1.15-.744 1.997-.744.867 0 1.532.241 2.016.744s.726 1.207.726 2.112v2.697zM107.944 2.515C109.678.845 112.078 0 115.183 0h15.729c3.106 0 5.525.845 7.26 2.515 1.714 1.67 2.581 4.124 2.581 7.344 0 3.239-.867 5.673-2.581 7.343s-4.134 2.515-7.26 2.515h-15.729c-3.105 0-5.525-.845-7.259-2.515-1.714-1.67-2.581-4.124-2.581-7.343 0-3.22.867-5.674 2.601-7.344zm2.843 11.69c1.029.925 2.481 1.388 4.396 1.388h15.729c1.916 0 3.388-.463 4.396-1.389 1.008-.925 1.533-2.374 1.533-4.325 0-1.972-.504-3.4-1.533-4.326-1.008-.925-2.48-1.388-4.396-1.388h-15.729c-1.895 0-3.367.463-4.396 1.388-1.028.926-1.532 2.374-1.532 4.326 0 1.951.504 3.4 1.532 4.325z"></path><path d="M112.703 16.981l5.283 2.193-4.92 6.137-.363-8.33zM116.635 12.172a1.974 1.974 0 0 0 1.977-1.971 1.974 1.974 0 0 0-1.977-1.972 1.974 1.974 0 0 0-1.976 1.972c0 1.089.885 1.971 1.976 1.971zM123.047 12.172a1.974 1.974 0 0 0 1.977-1.971 1.974 1.974 0 0 0-1.977-1.972 1.974 1.974 0 0 0-1.976 1.972c0 1.089.885 1.971 1.976 1.971zM129.481 12.172a1.974 1.974 0 0 0 1.976-1.971 1.974 1.974 0 0 0-1.976-1.972 1.974 1.974 0 0 0-1.976 1.972c0 1.089.885 1.971 1.976 1.971zM132.061 11.67c1.734-1.67 4.134-2.516 7.24-2.516h15.728c3.106 0 5.526.845 7.26 2.515 1.714 1.67 2.581 4.125 2.581 7.344 0 3.24-.867 5.674-2.581 7.344s-4.134 2.515-7.26 2.515h-15.728c-3.106 0-5.526-.846-7.26-2.515-1.714-1.67-2.581-4.125-2.581-7.344.02-3.22.867-5.674 2.601-7.344zm2.844 11.689c1.028.925 2.48 1.388 4.396 1.388h15.728c1.916 0 3.388-.463 4.396-1.388 1.009-.926 1.533-2.374 1.533-4.326 0-1.972-.504-3.4-1.533-4.326-1.008-.925-2.48-1.388-4.396-1.388h-15.728c-1.896 0-3.368.463-4.396 1.388-1.029.926-1.533 2.374-1.533 4.326 0 1.952.524 3.4 1.533 4.326z"></path><path d="M148.557 39.636h-2.763V37a4.633 4.633 0 0 1 4.638-4.627h15.93a1.883 1.883 0 0 0 1.876-1.872v-8.249a1.883 1.883 0 0 0-1.876-1.87h-3.085v-2.757h3.085A4.633 4.633 0 0 1 171 22.252v8.25a4.633 4.633 0 0 1-4.638 4.627h-15.93A1.882 1.882 0 0 0 148.557 37v2.636z"></path><path d="M149.564 52.19h-4.799a.946.946 0 0 1-.948-.945V40.058c0-.523.424-.946.948-.946h4.799c.525 0 .948.423.948.946v11.187a.945.945 0 0 1-.948.945z"></path>
    </symbol>

    <symbol id="icon-medal" viewBox="0 0 40 51">
        <path d="M19.5 6.255c-6.804 0-12.345 5.466-12.345 12.176S12.696 30.606 19.5 30.606s12.345-5.465 12.345-12.175c0-6.71-5.541-12.176-12.345-12.176zm0 22.187c-5.607 0-10.161-4.492-10.161-10.022S13.892 8.398 19.5 8.398c5.596 0 10.162 4.492 10.162 10.022S25.108 28.44 19.5 28.44z"></path><path d="M36.838 14.925c-.603-.563-1.229-1.148-1.371-1.613-.165-.509-.011-1.364.142-2.197.242-1.331.527-2.846-.329-3.993-.856-1.158-2.403-1.364-3.775-1.548-.845-.108-1.723-.227-2.14-.53-.417-.293-.79-1.072-1.152-1.818C27.609 1.992 26.929.585 25.535.14c-1.35-.433-2.71.292-3.906.92-.768.411-1.558.833-2.118.833-.56 0-1.35-.422-2.118-.833-1.196-.639-2.557-1.353-3.907-.92-1.415.444-2.095 1.84-2.688 3.085-.362.746-.735 1.525-1.152 1.818-.428.303-1.306.422-2.151.53-1.372.184-2.919.39-3.775 1.548-.845 1.147-.57 2.662-.33 3.993.154.833.308 1.7.143 2.197-.153.466-.779 1.05-1.371 1.613C1.152 15.877 0 16.948 0 18.43c0 1.483 1.152 2.554 2.173 3.507.603.562 1.229 1.147 1.371 1.612.165.509.011 1.364-.142 2.197-.242 1.331-.527 2.846.329 3.994.582.779 1.481 1.136 2.414 1.33v14.232c0 .314.143.617.384.823.242.206.56.292.878.249a85.615 85.615 0 0 1 5.213-.639v3.204c0 .379.197.736.537.92.33.194.746.205 1.076.021l5.454-2.933 5.058 2.922a1.1 1.1 0 0 0 .55.152 1.08 1.08 0 0 0 1.086-1.071v-3.204c1.744.152 3.478.368 5.212.639a.9.9 0 0 0 .175.01 1.093 1.093 0 0 0 1.098-1.082V31.061c.933-.195 1.832-.541 2.414-1.331.845-1.147.57-2.663.33-3.994-.154-.833-.308-1.699-.143-2.197.153-.465.779-1.05 1.371-1.612 1.02-.953 2.173-2.035 2.173-3.507-.011-1.472-1.163-2.543-2.173-3.495zM12.608 43.56a71.23 71.23 0 0 0-4.29.487V31.396c.549.087 1.042.206 1.328.412.417.292.79 1.071 1.152 1.818.46.952.966 2.002 1.822 2.64l-.011 7.295zm11.6 3.485l-3.95-2.284a1.089 1.089 0 0 0-1.076-.01l-4.39 2.359V36.819c.9-.13 1.778-.596 2.58-1.018.767-.411 1.557-.833 2.117-.833s1.35.422 2.118.833c.801.433 1.679.888 2.579 1.018l.022 10.227zm6.474-2.998a96.401 96.401 0 0 0-4.29-.487v-7.294c.855-.639 1.36-1.689 1.821-2.641.362-.747.735-1.526 1.152-1.818.286-.206.78-.325 1.328-.412v12.652h-.01zm4.653-23.68c-.801.747-1.624 1.526-1.953 2.5-.34 1.018-.132 2.154.076 3.247.165.91.352 1.937.055 2.338-.296.4-1.338.552-1.887.628-.132.021-.274.032-.406.054-1.12.151-2.272.303-3.139.92-.856.616-1.36 1.645-1.832 2.63-.395.822-.856 1.763-1.35 1.958-.011 0-.022.011-.033.011h-.01c-.462.152-1.384-.335-2.196-.768-1.01-.53-2.04-1.083-3.16-1.083-1.108 0-2.15.552-3.16 1.083-.812.433-1.734.92-2.195.768-.011 0-.022-.01-.033-.01-.494-.196-.944-1.137-1.35-1.96-.483-.995-.976-2.013-1.832-2.63-.867-.627-2.02-.779-3.139-.92-.131-.021-.274-.032-.406-.053-.56-.076-1.602-.228-1.887-.628-.297-.4-.11-1.44.055-2.338.197-1.093.406-2.23.076-3.247-.318-.984-1.152-1.753-1.953-2.5-.702-.649-1.492-1.396-1.492-1.948s.79-1.288 1.492-1.948c.801-.747 1.624-1.526 1.953-2.5.34-1.017.132-2.153-.076-3.246-.176-.899-.363-1.938-.066-2.338.307-.411 1.36-.552 2.304-.682 1.109-.151 2.26-.303 3.139-.93.856-.618 1.36-1.646 1.832-2.63.406-.845.878-1.808 1.383-1.97.46-.152 1.383.335 2.195.768 1.01.53 2.052 1.082 3.16 1.082s2.15-.552 3.16-1.082c.812-.433 1.734-.92 2.195-.768.505.162.977 1.125 1.383 1.97.483.995.976 2.012 1.832 2.63.867.627 2.02.779 3.139.93.933.12 1.997.26 2.304.682.297.4.11 1.44-.055 2.338-.197 1.093-.406 2.229-.076 3.246.318.985 1.152 1.754 1.953 2.5.702.65 1.492 1.396 1.492 1.948-.01.563-.8 1.299-1.492 1.948z"></path><path d="M22.232 15.043l-1.744-3.614a1.09 1.09 0 0 0-.988-.617 1.09 1.09 0 0 0-.988.617l-1.744 3.614-4.028.52a1.088 1.088 0 0 0-.9.736c-.131.4-.021.822.286 1.114l2.94 2.76-.735 3.94a1.076 1.076 0 0 0 1.065 1.277c.175 0 .362-.044.516-.13l3.566-1.905 3.566 1.905c.373.195.823.173 1.164-.076.34-.249.504-.66.428-1.071l-.736-3.94 2.941-2.76c.307-.28.417-.714.286-1.114a1.106 1.106 0 0 0-.9-.736l-3.995-.52zm-.241 3.972a1.075 1.075 0 0 0-.318.974l.428 2.295-2.085-1.115a1.111 1.111 0 0 0-1.043 0l-2.085 1.115.428-2.295a1.075 1.075 0 0 0-.318-.974l-1.712-1.602 2.348-.303c.363-.043.68-.27.845-.606l1.021-2.11 1.02 2.11c.165.325.472.552.846.606l2.348.303-1.723 1.602z"></path>
    </symbol>

    <symbol id="icon-menu-close" viewBox="0 0 22 22">
        <path d="M21.504 19.177L13.327 11l8.177-8.177a1.65 1.65 0 0 0 0-2.34A1.624 1.624 0 0 0 20.334 0c-.445 0-.852.178-1.17.483l-8.177 8.19L2.823.496a1.677 1.677 0 0 0-1.17-.483C1.208.013.801.19.483.496A1.677 1.677 0 0 0 0 1.666c0 .445.178.852.483 1.17l8.177 8.177-8.177 8.164A1.624 1.624 0 0 0 0 20.347c0 .445.178.852.483 1.17.318.318.725.483 1.17.483.445 0 .852-.178 1.17-.483L11 13.34l8.177 8.177c.318.318.725.483 1.17.483.445 0 .852-.178 1.17-.483.318-.318.483-.725.483-1.17a1.747 1.747 0 0 0-.496-1.17z"></path>
    </symbol>

    <symbol id="icon-meter" viewBox="0 0 70 70">
        <rect opacity=".5" width="70" height="70" rx="15"></rect><rect x="4.375" y="4.268" width="61.25" height="59.756" rx="12" filter="url(#a)"></rect><path d="M21.222 20.136a1.2 1.2 0 0 1-.149.581 1.063 1.063 0 0 1-.4.432c.523.22.785.628.785 1.225 0 .492-.154.888-.463 1.186-.31.293-.736.44-1.28.44h-2.553v-5.49h2.333c.513 0 .929.147 1.248.44.32.288.48.683.48 1.186zm-1.814-.62h-1.076v1.248h1.076c.2 0 .356-.052.471-.157a.565.565 0 0 0 .189-.432.623.623 0 0 0-.173-.479.658.658 0 0 0-.487-.18zm.173 2.206h-1.249v1.257h1.304c.199 0 .356-.052.471-.157a.642.642 0 0 0 .189-.448c.01-.24-.071-.421-.244-.542-.104-.073-.262-.11-.471-.11zm3.997-3.22v1.72h1.178c.66 0 1.165.215 1.515.644.351.43.493.924.425 1.485-.058.47-.26.864-.605 1.178-.34.314-.786.471-1.335.471H22.43v-5.498h1.147zm1.178 2.757h-1.178v1.704c.104 0 .267.003.487.008h.494c.623 0 .961-.251 1.014-.754a.88.88 0 0 0-.189-.667.754.754 0 0 0-.628-.291zm3.919-2.757V24h-1.17v-5.498h1.17zm2.128 1.351h-1.036c-.021-.476.139-.838.479-1.084.345-.251.775-.377 1.288-.377.555 0 .997.147 1.327.44.33.293.495.665.495 1.115 0 .22-.058.425-.173.613-.11.189-.262.34-.455.456.618.282.926.746.926 1.39 0 .513-.188.926-.565 1.24-.372.31-.89.464-1.555.464-.607 0-1.09-.154-1.445-.463-.356-.315-.534-.775-.534-1.383h1.06c0 .267.086.48.26.636a.961.961 0 0 0 .659.236c.283 0 .508-.073.675-.22a.74.74 0 0 0 .26-.581.692.692 0 0 0-.267-.558c-.173-.152-.396-.227-.668-.227h-.409v-.943h.401c.21 0 .382-.06.518-.18a.588.588 0 0 0 .213-.456.575.575 0 0 0-.213-.471.782.782 0 0 0-.51-.173.937.937 0 0 0-.518.141.428.428 0 0 0-.212.385zm7.876.283a1.2 1.2 0 0 1-.15.581 1.063 1.063 0 0 1-.4.432c.524.22.786.628.786 1.225 0 .492-.155.888-.464 1.186-.309.293-.735.44-1.28.44h-2.553v-5.49h2.333c.513 0 .93.147 1.249.44.32.288.479.683.479 1.186zm-1.814-.62h-1.076v1.248h1.076c.199 0 .356-.052.471-.157a.565.565 0 0 0 .189-.432.623.623 0 0 0-.173-.479.658.658 0 0 0-.487-.18zm.173 2.206h-1.25v1.257h1.305c.198 0 .356-.052.47-.157a.642.642 0 0 0 .19-.448c.01-.24-.071-.421-.244-.542-.105-.073-.262-.11-.471-.11zm6.032 1.367h-2.285L40.36 24h-1.225v-.157l2.53-5.388h.541l2.513 5.388V24h-1.217l-.432-.911zm-1.139-2.804L41.17 22.1h1.524l-.762-1.814zm3.954-.762h-1.468v-1.02h4.068v1.02h-1.461V24h-1.139v-4.477zm4.522-1.02v1.72h1.178c.602 0 1.078.183 1.43.549.35.367.526.809.526 1.327 0 .524-.176.972-.527 1.343-.35.372-.827.558-1.43.558H49.26v-5.498h1.147zm1.178 2.756h-1.178v1.704c.084 0 .204.003.361.008h.44c.136 0 .262-.003.377-.008a.777.777 0 0 0 .605-.251.85.85 0 0 0 .22-.613.87.87 0 0 0-.236-.597.755.755 0 0 0-.59-.243zm-40.77 7.594H9.78c-.02-.476.139-.838.48-1.084.345-.251.774-.377 1.287-.377.555 0 .998.147 1.328.44.33.293.494.665.494 1.115 0 .22-.057.425-.172.613a1.27 1.27 0 0 1-.456.456c.618.282.927.746.927 1.39 0 .513-.189.926-.566 1.24-.371.31-.89.464-1.555.464-.607 0-1.089-.154-1.445-.463-.356-.315-.534-.775-.534-1.383h1.06c0 .267.087.48.26.636a.962.962 0 0 0 .66.236c.282 0 .507-.073.675-.22a.74.74 0 0 0 .259-.581.691.691 0 0 0-.267-.558c-.173-.152-.396-.227-.668-.227h-.408v-.943h.4c.21 0 .383-.06.519-.18a.588.588 0 0 0 .212-.456.576.576 0 0 0-.212-.471.783.783 0 0 0-.51-.173.937.937 0 0 0-.52.141.428.428 0 0 0-.211.385zm6.998 3.236h-2.285l-.424.911h-1.226v-.157l2.53-5.388h.541l2.513 5.388V33h-1.217l-.432-.911zm-1.139-2.804l-.761 1.814h1.523l-.762-1.814zm6.026.817l2.207-2.616h.424V33h-1.178v-2.977l-1.382 1.728h-.15l-1.382-1.728V33h-1.178v-5.514h.432l2.207 2.616zm7.273-2.6v1.03h-2.184v1.114h2.042v1.03H27.79v1.256h2.246V33h-3.432v-5.498h3.37zm2.31 5.49h-1.177v-5.498h2.348c.607 0 1.084.197 1.43.59.35.392.526.863.526 1.413 0 .54-.176.998-.526 1.375-.351.377-.828.565-1.43.565h-1.17v1.555zm-.023-2.56h1.194a.738.738 0 0 0 .597-.275c.157-.189.236-.419.236-.691a.993.993 0 0 0-.228-.668.746.746 0 0 0-.605-.275H32.26v1.909zM36.244 33v-5.498h1.186v4.43h1.634v-4.43h1.17v4.43h1.65v-4.43h1.17v4.5h.667v1.705h-1.036V33h-6.44zM48.1 29.858l-3.11 3.158h-.354v-5.514h1.178v3.118l3.086-3.14h.369V33h-1.17v-3.142zm3.612-2.356v2.27c.498 0 .814-.034.95-.102a.729.729 0 0 0 .307-.37c.073-.177.154-.452.243-.824.236-.853.862-1.175 1.877-.966v.801c-.225-.02-.4.008-.526.087-.12.078-.21.22-.267.424-.183.696-.413 1.183-.691 1.46l1.68 2.545V33h-1.327l-1.382-2.262c-.141.037-.43.055-.864.055V33h-1.17v-5.498h1.17zm7.604 4.587H57.03l-.424.911H55.38v-.157l2.529-5.388h.542l2.513 5.388V33h-1.217l-.432-.911zm-1.139-2.804l-.762 1.814h1.524l-.762-1.814zm-1.155 23.32V42.533c0-1.393-1.026-2.533-2.279-2.533H15.257c-1.253 0-2.278 1.14-2.278 2.533v10.072c0 .7.258 1.334.668 1.79.41.456.98.743 1.61.743h4.891c.418 0 .76-.38.76-.844 0-.465-.342-.845-.76-.845h-4.891c-.418 0-.76-.38-.76-.844V42.533c0-.465.342-.844.76-.844h2.446v5.817c0 .236.083.447.22.6a.72.72 0 0 0 .54.244c.417 0 .759-.38.759-.844v-5.817h3.205v3.258a.89.89 0 0 0 .22.6.72.72 0 0 0 .54.245c.417 0 .759-.38.759-.845V41.69h3.205v5.817c0 .236.083.447.22.6a.72.72 0 0 0 .54.244c.417 0 .759-.38.759-.844V41.69h3.205v3.258a.89.89 0 0 0 .22.6.72.72 0 0 0 .54.245c.417 0 .759-.38.759-.845V41.69h3.205v5.817a.9.9 0 0 0 .22.6.72.72 0 0 0 .54.244c.417 0 .759-.38.759-.844V41.69h3.205v3.258c0 .237.084.448.22.6a.72.72 0 0 0 .54.245c.417 0 .759-.38.759-.845V41.69h3.205v5.817a.9.9 0 0 0 .22.6.72.72 0 0 0 .54.244c.417 0 .76-.38.76-.844V41.69h3.204v3.258c0 .237.084.448.22.6a.72.72 0 0 0 .54.245c.417 0 .76-.38.76-.845V41.69h2.445c.418 0 .76.38.76.844v10.072c0 .465-.343.844-.76.844H26.232c-.418 0-.76.38-.76.845 0 .464.342.844.76.844H54.75c1.253 0 2.27-1.131 2.27-2.533z"></path><path d="M23.726 53.703a.715.715 0 0 0-.54-.245.76.76 0 0 0-.539.245.886.886 0 0 0-.22.6c0 .219.083.438.22.599.144.16.334.245.54.245a.759.759 0 0 0 .538-.245.885.885 0 0 0 .22-.6.864.864 0 0 0-.22-.6z"></path><defs><filter id="a" x="4.375" y="4.268" width="61.25" height="61.756" filterUnits="userSpaceOnUse" color-interpolation-filters="sRGB"><feFlood flood-opacity="0" result="BackgroundImageFix"></feFlood><feColorMatrix in="SourceAlpha" values="0 0 0 0 0 0 0 0 0 0 0 0 0 0 0 0 0 0 127 0"></feColorMatrix><feOffset dy="2"></feOffset><feColorMatrix values="0 0 0 0 1 0 0 0 0 0.796274 0 0 0 0 0.0583333 0 0 0 1 0"></feColorMatrix><feBlend in2="BackgroundImageFix" result="effect1_dropShadow"></feBlend><feBlend in="SourceGraphic" in2="effect1_dropShadow" result="shape"></feBlend></filter></defs>
    </symbol>

    <symbol id="icon-minus" viewBox="0 0 23 2">
        <path d="M12.853 2H23V0H0v2h12.853z"></path>
    </symbol>

    <symbol id="icon-minus-big" viewBox="0 0 27 3">
        <path d="M11.912 3H0V0h27v3H11.912z"></path>
    </symbol>

    <symbol id="icon-mobile-menu-btn" viewBox="0 0 30 21">
        <rect width="30" height="3" rx="1.5"></rect><rect y="9" width="30" height="3" rx="1.5"></rect><rect y="18" width="30" height="3" rx="1.5"></rect>
    </symbol>

    <symbol id="icon-mute" viewBox="0 0 51 51">
        <path d="M43.528 7.473C38.705 2.65 32.306 0 25.5 0 18.681 0 12.283 2.65 7.473 7.473 2.663 12.295 0 18.68 0 25.5c0 6.819 2.65 13.217 7.473 18.028C12.283 48.338 18.693 51 25.5 51s13.217-2.65 18.028-7.472C48.338 38.717 51 32.306 51 25.5c0-6.807-2.662-13.217-7.472-18.027zM2.919 25.5c0-6.317 2.615-12.038 6.819-16.148l6.118 6.842h-2.674c-.514 0-.957.292-1.18.713-.01.023-.023.058-.034.081-.012.012-.012.024-.024.047-.011.035-.023.058-.035.093 0 .012 0 .024-.011.035-.012.024-.012.059-.024.082 0 .012 0 .023-.011.035-.012.035-.012.07-.012.105v.024c0 .035-.012.081-.012.116v15.938c0 .035 0 .082.012.117v.023c0 .035.012.07.012.105 0 .012 0 .023.011.035.012.023.012.058.024.082 0 .011 0 .023.011.035.012.035.024.058.035.093 0 .012.012.024.024.047.011.023.023.058.035.082.222.42.665.712 1.179.712h7.59l10.297 6.433c.14.082.28.14.432.176.024.011.059.011.082.011a.89.89 0 0 0 .175.012c.082 0 .175-.012.257-.023a.7.7 0 0 0 .164-.047c.058-.024.105-.035.163-.059.432-.21.759-.642.759-1.202v-4.6l6.69 7.484a22.45 22.45 0 0 1-14.28 5.102C13.042 48.081 2.92 37.946 2.92 25.5zm27.508-6.095v8.734l-8.01-8.967c.024-.105.047-.21.047-.327v-.596l7.963-4.985v6.142zm2.662 3.27a3.327 3.327 0 0 1 3.141 3.315 3.32 3.32 0 0 1-3.14 3.316v-6.632zm-2.662 9.842v5.196l-7.963-4.986v-.595a1.33 1.33 0 0 0-1.33-1.331 1.32 1.32 0 0 0-1.098.584c-.14.21-.222.467-.222.747h-5.312V18.845h3.724l12.201 13.672zm11.49 8.465l-8.29-9.27c2.837-.362 5.032-2.78 5.032-5.71a5.764 5.764 0 0 0-5.581-5.756v-9.352c0-.573-.35-1.028-.818-1.226l-.105-.035a.861.861 0 0 0-.163-.047 1.912 1.912 0 0 0-.257-.024c-.234 0-.467.07-.689.199l-10.298 6.433h-.992L11.944 7.45A22.528 22.528 0 0 1 25.5 2.92c12.446 0 22.581 10.123 22.581 22.581a22.48 22.48 0 0 1-6.165 15.482z"></path>
    </symbol>

    <symbol id="icon-paint" viewBox="0 0 45 45">
    </symbol>

    <symbol id="icon-percent" viewBox="0 0 44 54">
        <path d="M5.51 26.392c0 2.23.944 3.346 2.833 3.346.893 0 1.575-.253 2.047-.76.525-.558.787-1.42.787-2.586V8.138c0-1.166-.262-2.003-.787-2.51-.472-.558-1.154-.836-2.047-.836-1.889 0-2.833 1.115-2.833 3.346v18.254zM0 8.518C0 5.78.708 3.676 2.125 2.206 3.542.736 5.615 0 8.343 0c2.73 0 4.802.735 6.219 2.206 1.417 1.47 2.125 3.574 2.125 6.312v17.493c0 2.738-.709 4.843-2.125 6.313-1.417 1.47-3.49 2.206-6.219 2.206-2.728 0-4.801-.736-6.218-2.206C.708 30.854 0 28.749 0 26.01V8.518zM30.068.38h5.116L13.46 53.62H8.343L30.068.38zm2.755 45.482c0 2.231.944 3.346 2.834 3.346.892 0 1.574-.253 2.046-.76.525-.558.787-1.42.787-2.586V27.608c0-1.166-.262-2.002-.787-2.51-.472-.557-1.154-.836-2.047-.836-1.889 0-2.833 1.116-2.833 3.346v18.254zm-5.51-17.873c0-2.738.709-4.843 2.125-6.313 1.417-1.47 3.49-2.206 6.219-2.206 2.728 0 4.801.736 6.218 2.206C43.292 23.146 44 25.251 44 27.99v17.493c0 2.738-.708 4.842-2.125 6.312-1.417 1.47-3.49 2.206-6.218 2.206-2.73 0-4.802-.735-6.219-2.206-1.416-1.47-2.125-3.574-2.125-6.312V27.989z"></path>
    </symbol>

    <symbol id="icon-person" viewBox="0 0 14 15">
        <path d="M10.963 3.573a3.578 3.578 0 0 1-3.581 3.572A3.578 3.578 0 0 1 3.8 3.573 3.578 3.578 0 0 1 7.38 0c1.978 0 3.582 1.6 3.582 3.573zm-.537 4.998H4.338a3.402 3.402 0 0 0-3.4 3.392v2.501c0 .295.241.536.537.536h11.814a.538.538 0 0 0 .537-.536v-2.501a3.402 3.402 0 0 0-3.4-3.392z"></path>
    </symbol>

    <symbol id="icon-phone" viewBox="0 0 16 18">
        <path d="M15.641 13.812l-2.47-2.63c-.493-.522-1.308-.506-1.817.036l-1.245 1.325a41.58 41.58 0 0 1-.246-.146c-.786-.463-1.862-1.099-2.994-2.305C5.733 8.884 5.136 7.737 4.699 6.9c-.046-.088-.09-.174-.134-.255l.836-.888.41-.438c.51-.543.524-1.41.033-1.934L3.374.754C2.882.23 2.067.247 1.557.79l-.696.746.019.02a4.367 4.367 0 0 0-.574 1.077A4.705 4.705 0 0 0 .05 3.726c-.326 2.88.91 5.51 4.265 9.081 4.637 4.935 8.373 4.562 8.535 4.544a3.97 3.97 0 0 0 1.03-.275c.366-.153.71-.36 1.008-.608l.015.014.705-.735c.51-.543.524-1.41.033-1.935z"></path>
    </symbol>

    <symbol id="icon-planking" viewBox="0 0 48 41">
        <path d="M45.909 22.149c-1.423-2.133-3.352-3.315-5.428-3.315h-3.576c1.546-2.04 2.43-4.927 2.43-8 0-2.398-.523-4.662-1.515-6.554a.945.945 0 0 0-.546-.459.934.934 0 0 0-.707.07.943.943 0 0 0-.384 1.269c.853 1.619 1.299 3.588 1.299 5.673 0 3.347-1.23 6.475-3.145 8h-5.043c-1.915-1.525-3.145-4.653-3.145-8 0-2.46.63-4.755 1.768-6.475 1.07-1.595 2.453-2.482 3.898-2.482 1.015 0 2.015.443 2.891 1.276a.91.91 0 0 0 1.307-.039.943.943 0 0 0-.038-1.323C34.745.623 33.307 0 31.815 0h-16.76c-2.077 0-4.006 1.175-5.429 3.315-1.345 2.024-2.091 4.693-2.091 7.518 0 3.09.876 5.97 2.422 8H7.519c-2.075 0-4.005 1.176-5.428 3.316C.738 24.172 0 26.842 0 29.667s.738 5.502 2.091 7.518C3.514 39.317 5.444 40.5 7.52 40.5h32.962c2.075 0 4.005-1.175 5.428-3.315C47.254 35.16 48 32.492 48 29.667s-.746-5.495-2.091-7.518zM15.423 9.705c.008.311-.1.607-.315.832-.215.226-.5.35-.807.35H9.38c-.024-.855.038-1.65.168-2.264h4.698c.63-.008 1.161.482 1.176 1.082zm-1.114 3.05a2.92 2.92 0 0 0 2.137-.918 2.99 2.99 0 0 0 .83-2.202c-.053-1.603-1.414-2.903-3.021-2.903h-4.23a9.936 9.936 0 0 1 1.139-2.374c1.069-1.603 2.453-2.482 3.89-2.482h12.502a9.543 9.543 0 0 0-1.084 1.3h-5.567c-1.637 0-2.975 1.353-2.975 3.011 0 1.658 1.338 3.012 2.975 3.012h3.476a16.75 16.75 0 0 0-.085 1.634c0 3.082.877 5.97 2.43 8H12.54c-1.53-1.221-2.637-3.47-3.006-6.077h4.774zm6.596-5.432a1.13 1.13 0 0 1-1.122-1.136c0-.63.5-1.136 1.122-1.136h4.537a12.98 12.98 0 0 0-.746 2.272h-3.79zM7.25 29.31H1.86c.024-.77.1-1.533.247-2.265H7.25a1.13 1.13 0 0 1 1.123 1.136A1.134 1.134 0 0 1 7.25 29.31zm-.053 1.875c1.63 0 2.99-1.315 3.021-2.941a3.027 3.027 0 0 0-.846-2.172 2.942 2.942 0 0 0-2.13-.91H2.63a9.4 9.4 0 0 1 .991-1.97c1.07-1.595 2.453-2.482 3.898-2.482h12.502c-.423.42-.815.895-1.176 1.432-1.346 2.024-2.091 4.693-2.091 7.518 0 1.58.238 3.152.691 4.576h-3.767a.94.94 0 0 0-.93.942c0 .521.415.941.93.941h4.544c.27.498.93 1.58 1.83 2.506H7.519c-1.445 0-2.829-.879-3.89-2.482-.9-1.354-1.484-3.067-1.691-4.958h5.259zM20.383 23.2c1.068-1.604 2.452-2.483 3.89-2.483 1.445 0 2.822.88 3.89 2.483 1.146 1.712 1.769 4.015 1.769 6.475 0 2.459-.63 4.755-1.769 6.475-1.068 1.603-2.452 2.482-3.89 2.482-1.445 0-2.822-.88-3.89-2.482-.016-.024-1.777-2.825-1.777-6.475.008-2.468.63-4.763 1.776-6.475zm9.326 13.992C31.054 35.17 31.8 32.5 31.8 29.675c0-2.826-.738-5.503-2.091-7.518a9.065 9.065 0 0 0-1.177-1.432h7.69c-.424.42-.816.895-1.177 1.432-1.346 2.023-2.092 4.692-2.092 7.518 0 2.825.738 5.502 2.092 7.517a9.06 9.06 0 0 0 1.176 1.432h-7.689a9.06 9.06 0 0 0 1.177-1.432zm16.438-7.525c0 2.46-.63 4.755-1.768 6.475-1.069 1.603-2.453 2.482-3.89 2.482-1.446 0-2.822-.879-3.891-2.482-1.146-1.712-1.769-4.016-1.769-6.475 0-2.46.63-4.755 1.769-6.475 1.069-1.603 2.453-2.483 3.89-2.483 1.446 0 2.822.88 3.89 2.483 1.139 1.72 1.769 4.015 1.769 6.475z"></path><path d="M42.033 25.799a.957.957 0 0 0-.492.521.925.925 0 0 0 .016.716c.315.732.492 1.666.492 2.63 0 2.281-.954 3.799-1.577 3.799-.63 0-1.576-1.51-1.576-3.798 0-2.28.954-3.798 1.576-3.798a.94.94 0 0 0 .93-.942.934.934 0 0 0-.93-.941c-1.03 0-1.945.669-2.59 1.883-.546 1.027-.846 2.374-.846 3.79s.3 2.763.845 3.79c.646 1.214 1.561 1.883 2.591 1.883 1.03 0 1.946-.669 2.591-1.883.546-1.027.846-2.374.846-3.79 0-1.245-.223-2.42-.653-3.393a.923.923 0 0 0-1.223-.467zm-17.76 9.541c1.03 0 1.945-.669 2.59-1.883.547-1.027.847-2.374.847-3.79 0-1.417-.3-2.763-.846-3.79-.638-1.214-1.561-1.884-2.591-1.884-1.03 0-1.945.67-2.591 1.884-.546 1.027-.846 2.373-.846 3.79 0 1.416.3 2.763.846 3.79.646 1.214 1.568 1.883 2.59 1.883zm-1.576-5.673c0-2.28.953-3.798 1.576-3.798.63 0 1.576 1.51 1.576 3.798 0 2.28-.954 3.798-1.576 3.798-.623 0-1.576-1.518-1.576-3.798zM31.816 5.16c-1.03 0-1.945.67-2.591 1.883-.546 1.028-.846 2.374-.846 3.79 0 1.417.3 2.763.846 3.79.645 1.215 1.56 1.884 2.59 1.884 1.031 0 1.946-.67 2.592-1.884.546-1.027.846-2.373.846-3.79 0-1.416-.3-2.762-.846-3.79-.646-1.214-1.569-1.883-2.591-1.883zm1.576 5.673c0 2.28-.954 3.798-1.576 3.798-.63 0-1.576-1.51-1.576-3.798 0-2.28.953-3.798 1.576-3.798.622 0 1.576 1.518 1.576 3.798z"></path>
    </symbol>

    <symbol id="icon-plus" viewBox="0 0 23 24">
        <path d="M12.853 13H23v-2H0v2h12.853z"></path><path d="M10 13.353V23.5h2V.5h-2v12.853z"></path>
    </symbol>

    <symbol id="icon-plus-big" viewBox="0 0 27 26">
        <path d="M0 14.64h11.912V26h3.256V14.64H27v-3.127H15.168V0h-3.256v11.513H0v3.126z"></path>
    </symbol>

    <symbol id="icon-return" viewBox="0 0 21 23">
        <path d="M9.399.064C4.785.581 1.088 4.27.561 8.884c-.69 6.032 3.999 11.167 9.876 11.233v2.706c0 .15.188.23.315.137l5.572-4.093a.172.172 0 0 0 0-.277l-5.572-4.092c-.127-.094-.315-.01-.315.136v2.702c-4.13-.066-7.437-3.58-7.155-7.78.24-3.614 3.185-6.546 6.798-6.776 3.83-.244 7.085 2.49 7.668 6.108.108.672.695 1.16 1.372 1.16.84 0 1.499-.747 1.367-1.578C19.67 3.316 14.91-.551 9.4.064z"></path>
    </symbol>

    <symbol id="icon-scheme" viewBox="0 0 34 34">
        <path d="M33.395 5.64a.61.61 0 0 0-.61.61v26.522h-4.909v-1.381h2.936a.61.61 0 0 0 .61-.612V19.933a.61.61 0 0 0-.61-.61h-2.624v-1.356h2.624a.61.61 0 0 0 .61-.61V3.175a.61.61 0 0 0-.61-.611H18.299a.61.61 0 0 0-.611.61v8.887h-1.355V3.177a.61.61 0 0 0-.611-.611H3.195a.61.61 0 0 0-.61.61V17.35a.61.61 0 0 0 .61.611h2.219a.61.61 0 0 0 .61-.61.61.61 0 0 0-.61-.612h-1.6v-1.401h2.603a3.943 3.943 0 0 0 3.938-3.939V3.787h4.742v8.887a.61.61 0 0 0 .612.61h2.583a.61.61 0 0 0 .611-.61V3.787h11.285v1.58h-1.621a.61.61 0 0 0-.611.611v8.43a.61.61 0 0 0 .61.61h1.622v1.714h-2.624a.61.61 0 0 0-.611.61v2.585a.61.61 0 0 0 .611.61h2.623v9.625h-2.935a.61.61 0 0 0-.611.61v2.611a.61.61 0 0 0 .61.611h6.138a.61.61 0 0 0 .61-.611V6.257a.605.605 0 0 0-.604-.617zM9.127 11.398a2.713 2.713 0 0 1-2.71 2.71H3.814V3.787h.445v.398a.61.61 0 0 0 .611.611.61.61 0 0 0 .611-.61v-.4h.365v1.628a.61.61 0 0 0 .611.611.61.61 0 0 0 .612-.611V3.787h.365v.398a.61.61 0 0 0 .61.611.61.61 0 0 0 .612-.61v-.4H9.1l.026 7.612zm21.068 2.398h-1.01V6.59h1.01v7.206z"></path><path d="M33.395 0H.61A.61.61 0 0 0 0 .611V33.39a.61.61 0 0 0 .611.61h21.705a.61.61 0 0 0 .611-.611v-2.61a.61.61 0 0 0-.61-.611h-3.408V24.19a.61.61 0 0 0-.611-.611h-2.584a.61.61 0 0 0-.61.61v5.979H3.811v-1.409H5.68a1.7 1.7 0 0 0 1.394-.73 3.86 3.86 0 0 0 1.794.425c1.913 0 3.473-1.335 3.473-2.982 0-.492-.14-.97-.405-1.402a.614.614 0 0 0-.843-.199.614.614 0 0 0-.2.844c.147.239.22.491.22.757 0 .97-1.01 1.753-2.245 1.753-.552 0-1.083-.16-1.495-.451v-2.61a2.647 2.647 0 0 1 1.495-.452c.358 0 .697.066 1.016.192a.614.614 0 0 0 .797-.338.614.614 0 0 0-.339-.797 3.932 3.932 0 0 0-1.474-.28 3.88 3.88 0 0 0-1.794.426 1.682 1.682 0 0 0-1.388-.731H3.812V20.55H20.75a.61.61 0 0 0 .61-.61v-2.585a.61.61 0 0 0-.61-.61H7.379a.61.61 0 0 0-.611.61.61.61 0 0 0 .611.611h12.752v1.355H3.195a.61.61 0 0 0-.611.611v10.853a.61.61 0 0 0 .61.611h12.514a.61.61 0 0 0 .61-.61v-5.978h1.356v5.977a.61.61 0 0 0 .61.611h3.408v1.382H1.229V1.228h31.548v2.844a.61.61 0 0 0 .611.61.61.61 0 0 0 .611-.61V.612A.6.6 0 0 0 33.395 0zM3.812 23.413H5.68c.252 0 .465.206.465.465v3.201a.466.466 0 0 1-.465.465H3.812v-4.131z"></path><path d="M25.65 5.367h-4.53a.61.61 0 0 0-.61.61v8.43a.61.61 0 0 0 .61.61h4.53a.61.61 0 0 0 .611-.61v-8.43a.605.605 0 0 0-.61-.611zm-.61 6.422h-1.17V8.601h1.17v3.188zm0-4.417h-1.787a.61.61 0 0 0-.611.612V12.4a.61.61 0 0 0 .61.611h1.787v.778h-3.3v-7.2h3.3v.783zM8.688 26.083a.611.611 0 1 0 0-1.222.611.611 0 0 0 0 1.222zM6.469 12.487a.611.611 0 1 0 0-1.222.611.611 0 0 0 0 1.222z"></path>
    </symbol>

    <symbol id="icon-squares" viewBox="0 0 20 20">
        <rect width="8.182" height="8.182" rx="2"></rect><rect y="11.818" width="8.182" height="8.182" rx="2"></rect><rect x="11.818" width="8.182" height="8.182" rx="2"></rect><rect x="11.818" y="11.818" width="8.182" height="8.182" rx="2"></rect>
    </symbol>

    <symbol id="icon-tg" viewBox="0 0 26 22">
        <path d="M24.618.375c-.083 0-.165 0-.29.043L.935 9.736c-.66.259-.66 1.25.042 1.467L6.422 13.1l3.26 6.858c.04.13.165.216.33.216a.308.308 0 0 0 .206-.086l3.053-2.718-3.424-2.717.288 3.58-2.475-5.35 13.08-8.238-10.893 10.05 8.5 6.73c.288.216.618.345.948.345.66 0 1.32-.474 1.485-1.208l4.58-19.196c.124-.517-.247-.992-.742-.992z"></path>
    </symbol>

    <symbol id="icon-vk" viewBox="0 0 9 12">
        <path d="M8.098 3.604c0 .409-.096.796-.286 1.163a2.105 2.105 0 0 1-.768.864c1.003.44 1.505 1.256 1.505 2.45 0 .985-.296 1.775-.888 2.372-.592.587-1.41.88-2.454.88H.314V.353h4.471c.984 0 1.782.293 2.394.88.612.575.919 1.366.919 2.371zM4.62 2.364H2.557V4.86H4.62c.381 0 .682-.105.903-.314.231-.21.351-.498.361-.864.01-.398-.1-.718-.33-.958-.232-.241-.543-.362-.934-.362zm.331 4.413H2.557v2.514h2.5c.38 0 .682-.105.903-.314.22-.22.341-.519.361-.896.02-.482-.135-.843-.467-1.084-.2-.146-.502-.22-.903-.22z"></path>
    </symbol>

    <symbol id="icon-wt" viewBox="0 0 26 26">
        <path fill-rule="evenodd" clip-rule="evenodd" d="M25.554 12.862c0 6.709-5.603 12.181-12.496 12.181-2.204 0-4.25-.556-6.044-1.515L.089 25.692l2.266-6.523a11.895 11.895 0 0 1-1.794-6.276C.593 6.123 6.164.682 13.058.682c6.925 0 12.496 5.44 12.496 12.18zM13.058 2.63c-5.792 0-10.482 4.576-10.482 10.233 0 2.226.755 4.298 2.014 5.998l-1.322 3.803 4.03-1.268a10.586 10.586 0 0 0 5.791 1.7c5.792 0 10.513-4.575 10.513-10.233C23.572 7.205 18.85 2.63 13.058 2.63zm6.327 13.016c-.063-.124-.284-.186-.599-.34-.314-.155-1.825-.866-2.077-.959-.283-.092-.472-.154-.692.155-.19.309-.787.958-.976 1.175-.19.185-.347.216-.661.061-.315-.154-1.29-.463-2.456-1.483-.912-.804-1.51-1.763-1.7-2.072-.188-.309-.03-.464.127-.618.125-.124.314-.34.472-.526.157-.185.189-.309.314-.494a.52.52 0 0 0-.031-.526c-.063-.154-.692-1.608-.944-2.226-.252-.587-.504-.587-.693-.587-.189 0-.503.062-.503.062s-.599.061-.882.37c-.283.31-1.07 1.02-1.07 2.474 0 1.453 1.102 2.875 1.259 3.091.157.186 2.109 3.308 5.225 4.514 3.117 1.206 3.117.804 3.683.742.567-.062 1.826-.711 2.078-1.422.189-.65.189-1.268.126-1.391z"></path>
    </symbol>



    <symbol id="icon-pay" viewBox="0 0 48 48">
    </symbol>

    <symbol id="icon-pay-2" viewBox="0 0 41 46">
        <path d="M40.728 37.663a3.373 3.373 0 0 0-1.759-1.941 3.337 3.337 0 0 0-2.61-.099l-.997.377V24.222a.9.9 0 0 0-.897-.899.9.9 0 0 0-.897.899v12.461L29.27 38.31a7.265 7.265 0 0 1-3.598.404c.323-.368.583-.799.744-1.293.61-1.887-.448-3.971-2.396-4.483l-7.869-2.067a.956.956 0 0 0-.224-.027h-6.12v-1.689a.9.9 0 0 0-.897-.898H7.044V7.466h4.8a.9.9 0 0 0 .898-.898V1.797h20.817V16.19a.9.9 0 0 0 .897.898.9.9 0 0 0 .897-.898V.898A.9.9 0 0 0 34.456 0H11.844a.904.904 0 0 0-.628.26L5.518 5.93a.914.914 0 0 0-.269.638v21.66H.897a.9.9 0 0 0-.897.9V44.5a.9.9 0 0 0 .897.898H8.91a.9.9 0 0 0 .897-.898v-1.618h3.267l11.763 2.858a9.27 9.27 0 0 0 2.154.26 9.096 9.096 0 0 0 3.4-.665l8.426-3.414a3.367 3.367 0 0 0 1.911-4.258zM10.947 5.669h-2.62l2.62-2.614v2.614zM8.013 43.601H1.795V30.026h6.218V43.6zm30.13-3.342l-8.425 3.414a7.222 7.222 0 0 1-4.46.323l-11.87-2.884a.882.882 0 0 0-.216-.026H9.798v-8.473h6.003l7.762 2.04c.27.072.511.206.709.395.592.557.682 1.456.278 2.147a1.765 1.765 0 0 1-1.813.845l-5.23-1.231a.892.892 0 0 0-1.078.665.893.893 0 0 0 .664 1.078h.01c.17.036 2.978.7 5.132 1.213 1.193.278 2.405.647 3.634.764 1.445.134 2.862-.108 4.208-.611 1.714-.647 6.317-2.39 6.91-2.606.816-.305 1.758.126 2.045.953a1.582 1.582 0 0 1-.888 1.994z"></path><path d="M15.677 15.472h-2.594a.9.9 0 0 0-.897.898.9.9 0 0 0 .897.899h1.239v.539a.9.9 0 0 0 .897.898.9.9 0 0 0 .897-.898v-.575a2.578 2.578 0 0 0 2.136-2.543v-.108a2.583 2.583 0 0 0-2.575-2.579h-.916a.782.782 0 0 1 0-1.563h2.593a.9.9 0 0 0 .898-.899.9.9 0 0 0-.898-.898h-1.238v-.54a.9.9 0 0 0-.897-.898.9.9 0 0 0-.897.899v.575a2.578 2.578 0 0 0-2.136 2.543 2.583 2.583 0 0 0 2.575 2.578h.916c.43 0 .78.35.78.782v.108a.776.776 0 0 1-.78.782zM28.202 7.17H22.01a.9.9 0 0 0-.898.898.9.9 0 0 0 .898.898h6.19a.9.9 0 0 0 .898-.898.9.9 0 0 0-.897-.899zm0 4.744H22.01a.9.9 0 0 0-.898.898.9.9 0 0 0 .898.898h6.19a.9.9 0 0 0 .898-.898.9.9 0 0 0-.897-.898zm0 4.744H22.01a.901.901 0 0 0-.898.9c0 .494.404.899.898.899h6.19a.901.901 0 0 0 .898-.9c0-.494-.404-.9-.897-.9zm0 4.742h-15.11a.9.9 0 0 0-.898.899.9.9 0 0 0 .898.899h15.11a.9.9 0 0 0 .897-.899.9.9 0 0 0-.897-.899zm0 4.745h-15.11a.9.9 0 0 0-.898.898.9.9 0 0 0 .898.898h15.11a.9.9 0 0 0 .897-.898.9.9 0 0 0-.897-.898zm7.008-6.452a.912.912 0 0 0-1.248-.252.916.916 0 0 0-.25 1.25.912.912 0 0 0 1.246.252.918.918 0 0 0 .252-1.25z"></path>
    </symbol>

    <symbol id="icon-pay-card" viewBox="0 0 47 45">
    </symbol>

    <symbol id="icon-shield" viewBox="0 0 46 45">
    </symbol>

    <symbol id="icon-calc-and-document" viewBox="0 0 41 49">
    </symbol>

    <symbol id="icon-cogwheel" viewBox="0 0 49 48">
    </symbol>

</svg>