<svg xmlns="http://www.w3.org/2000/svg" width="48" height="48"   style="position:absolute" >
    <path d="M9.01 37.264c-.665 0-1.306.165-1.874.476a21.809 21.809 0 0 1-4.635-13.423c0-12.038 9.838-21.831 21.93-21.831 1.47 0 2.94.145 4.367.433a.925.925 0 0 0 .368-1.814 24.068 24.068 0 0 0-4.735-.47C18.077.636 12.103 3.1 7.61 7.573 3.116 12.045.642 17.992.642 24.317a23.658 23.658 0 0 0 5.12 14.677 3.846 3.846 0 0 0-.655 2.155 3.85 3.85 0 0 0 1.143 2.747 3.885 3.885 0 0 0 2.76 1.138 3.886 3.886 0 0 0 2.76-1.138 3.85 3.85 0 0 0 1.142-2.747 3.85 3.85 0 0 0-1.143-2.747 3.886 3.886 0 0 0-2.76-1.138zm1.446 5.324c-.386.384-.9.596-1.445.596-.546 0-1.06-.212-1.446-.596a2.017 2.017 0 0 1-.599-1.44c0-.543.213-1.054.6-1.438.385-.385.899-.596 1.445-.596s1.059.212 1.445.596c.386.384.599.895.599 1.439a2.02 2.02 0 0 1-.599 1.439zM43.1 9.64a3.879 3.879 0 0 0-.49-4.901 3.887 3.887 0 0 0-2.759-1.138 3.887 3.887 0 0 0-2.76 1.138 3.851 3.851 0 0 0-1.142 2.747c0 1.038.405 2.014 1.143 2.748a3.886 3.886 0 0 0 2.76 1.138c.665 0 1.306-.166 1.874-.476a21.81 21.81 0 0 1 4.634 13.422c0 12.039-9.837 21.832-21.929 21.832a22.18 22.18 0 0 1-4.326-.425.926.926 0 0 0-.365 1.814 24.08 24.08 0 0 0 4.691.461c6.354 0 12.328-2.463 16.82-6.936 4.493-4.473 6.968-10.42 6.968-16.746a23.66 23.66 0 0 0-5.12-14.678zm-4.694-.714a2.017 2.017 0 0 1-.6-1.44c0-.543.214-1.054.6-1.439.386-.384.9-.596 1.445-.596a2.036 2.036 0 1 1 0 4.07c-.546 0-1.06-.211-1.445-.595z"></path><path d="M20.597 40.229c0 .51.416.925.929.925h5.81c.513 0 .93-.414.93-.925v-1.794a14.607 14.607 0 0 0 3.487-1.439l1.272 1.267a.932.932 0 0 0 1.314 0l4.107-4.092a.922.922 0 0 0 0-1.308l-1.27-1.265a14.452 14.452 0 0 0 1.444-3.472h1.795c.513 0 .93-.414.93-.925v-5.784a.927.927 0 0 0-.93-.925H38.62a14.456 14.456 0 0 0-1.445-3.472l1.264-1.258a.924.924 0 0 0 0-1.309l-4.11-4.088a.932.932 0 0 0-1.315 0l-1.261 1.257a14.588 14.588 0 0 0-3.488-1.44V8.407a.927.927 0 0 0-.929-.925h-5.81a.927.927 0 0 0-.93.925v1.777a14.6 14.6 0 0 0-3.486 1.439l-1.262-1.257a.933.933 0 0 0-1.314 0l-4.11 4.089a.922.922 0 0 0 0 1.308l1.263 1.258a14.45 14.45 0 0 0-1.445 3.472H8.45a.927.927 0 0 0-.93.924l-.003 5.785a.925.925 0 0 0 .929.925h1.795c.329 1.216.813 2.38 1.445 3.472l-1.27 1.265a.922.922 0 0 0 0 1.308l4.106 4.091a.932.932 0 0 0 1.314 0l1.272-1.266a14.597 14.597 0 0 0 3.488 1.44v1.793zm-3.123-5.178a.932.932 0 0 0-1.162.123L15.181 36.3l-2.793-2.783 1.13-1.125a.922.922 0 0 0 .123-1.156 12.632 12.632 0 0 1-1.76-4.23.929.929 0 0 0-.908-.73H9.377l.002-3.934h1.594a.928.928 0 0 0 .908-.73 12.664 12.664 0 0 1 1.76-4.23.922.922 0 0 0-.123-1.155l-1.123-1.119 2.795-2.78 1.122 1.117a.934.934 0 0 0 1.162.123 12.743 12.743 0 0 1 4.247-1.752.927.927 0 0 0 .734-.905v-1.58h3.952v1.58c0 .436.305.813.734.904 1.514.324 2.944.914 4.247 1.752a.932.932 0 0 0 1.161-.123l1.123-1.117 2.795 2.781-1.123 1.118a.922.922 0 0 0-.123 1.157 12.637 12.637 0 0 1 1.76 4.228c.091.427.47.73.908.73h1.597v3.935h-1.597a.929.929 0 0 0-.909.73 12.627 12.627 0 0 1-1.76 4.23.922.922 0 0 0 .124 1.156l1.13 1.125-2.793 2.783-1.131-1.126a.932.932 0 0 0-1.162-.123 12.758 12.758 0 0 1-4.247 1.752.926.926 0 0 0-.734.905v1.596h-3.952v-1.596a.927.927 0 0 0-.734-.905 12.75 12.75 0 0 1-4.247-1.752z"></path><path d="M32.108 24.317c0-4.214-3.444-7.643-7.678-7.643-4.233 0-7.678 3.429-7.678 7.643 0 4.215 3.445 7.644 7.678 7.644 4.234 0 7.678-3.43 7.678-7.644zm-13.497 0c0-3.194 2.61-5.793 5.82-5.793 3.208 0 5.819 2.599 5.819 5.793 0 3.195-2.61 5.794-5.82 5.794-3.209 0-5.82-2.6-5.82-5.794zM32.987 4.134a.938.938 0 0 0 .657-.27.934.934 0 0 0 .273-.656c0-.242-.1-.481-.273-.654a.938.938 0 0 0-.657-.271.931.931 0 0 0-.93.925.932.932 0 0 0 .93.926zM15.916 44.517a.93.93 0 0 0-.93.925.929.929 0 0 0 1.86 0 .93.93 0 0 0-.93-.925z" ></path>
</svg>