<svg xmlns="http://www.w3.org/2000/svg" width="48" height="48"   style="position:absolute" >
    <path d="M44.578 17.114l-9.789-4.178v-8.21c0-.274-.109-.529-.299-.723L30.768.298A1.038 1.038 0 0 0 30.042 0H2.516A2.515 2.515 0 0 0 0 2.505v39.99C0 43.875 1.13 45 2.516 45h29.757a2.515 2.515 0 0 0 2.516-2.505v-1.697l3.755-2.666a15.877 15.877 0 0 0 6.661-12.888V18.06a1.04 1.04 0 0 0-.627-.946zm-1.433 1.617v6.513a13.828 13.828 0 0 1-5.802 11.22l-3.584 2.552-3.584-2.547a13.835 13.835 0 0 1-5.802-11.22V18.73l9.386-4.004 9.386 4.004zM28.55 7.23h4.178v5.705l-9.79 4.178c-.38.161-.621.53-.621.94v7.19c.004 5.1 2.492 9.92 6.66 12.889l3.756 2.665v1.697a.46.46 0 0 1-.46.459H2.515a.46.46 0 0 1-.46-.459V2.505a.46.46 0 0 1 .46-.458h25.01v4.159c0 .567.46 1.025 1.025 1.025zm1.03-2.046V2.047h.034l3.114 3.1v.033H29.58v.005z"></path><path d="M30.147 35.004l2.972 2.368a1.02 1.02 0 0 0 1.282 0l2.971-2.368a12.889 12.889 0 0 0 3.585-4.471 12.899 12.899 0 0 0 1.272-5.583v-4.674c0-.42-.252-.794-.646-.95l-7.439-2.964a1.01 1.01 0 0 0-.764 0l-7.44 2.964c-.393.156-.645.53-.645.95v4.674a12.846 12.846 0 0 0 1.272 5.583 12.822 12.822 0 0 0 3.58 4.471zM27.35 24.95v-3.98l6.409-2.552 6.409 2.553v3.984a10.69 10.69 0 0 1-4.083 8.451L33.76 35.26l-2.331-1.857a10.693 10.693 0 0 1-4.078-8.452zM24.835 2.963H4.003a1.03 1.03 0 0 0-1.03 1.026v8.886c0 .562.46 1.025 1.03 1.025H24.83a1.03 1.03 0 0 0 1.03-1.025V3.989a1.023 1.023 0 0 0-1.025-1.026zm-1.03 2.047v6.839H5.032v-6.84h18.771zm-3.433 26.094H4.002a1.03 1.03 0 0 0-1.03 1.025v8.885a1.03 1.03 0 0 0 1.03 1.026h16.365a1.03 1.03 0 0 0 1.03-1.026V32.13c0-.567-.46-1.025-1.025-1.025zm-1.03 2.046v6.839H5.033V33.15h14.309zM21.4 17.034H2.977v2.045h18.425v-2.045zm0 4.443H2.977v2.046h18.425v-2.046zm0 4.443H2.977v2.046h18.425V25.92z"></path>
</svg>