<svg width="42" height="53" viewBox="0 0 42 53" fill="none" xmlns="http://www.w3.org/2000/svg">
<g clip-path="url(#clip0_30_2)">
<path d="M21 8.21202H5.325C5.05713 8.21202 4.80024 8.10561 4.61082 7.91619C4.42141 7.72678 4.315 7.46989 4.315 7.20202C4.315 6.93415 4.42141 6.67725 4.61082 6.48784C4.80024 6.29843 5.05713 6.19202 5.325 6.19202H21C21.552 6.19202 22.01 6.64902 22.01 7.20202C22.01 7.46989 21.9036 7.72678 21.7142 7.91619C21.5248 8.10561 21.2679 8.21202 21 8.21202ZM14.968 15.11H5.325C5.05713 15.11 4.80024 15.0036 4.61082 14.8142C4.42141 14.6248 4.315 14.3679 4.315 14.1C4.315 13.8321 4.42141 13.5753 4.61082 13.3858C4.80024 13.1964 5.05713 13.09 5.325 13.09H14.968C15.521 13.09 15.978 13.548 15.978 14.1C15.978 14.3679 15.8716 14.6248 15.6822 14.8142C15.4928 15.0036 15.2359 15.11 14.968 15.11ZM5.477 21.143C5.20913 21.143 4.95224 21.0366 4.76282 20.8472C4.57341 20.6578 4.467 20.4009 4.467 20.133C4.467 19.8651 4.57341 19.6083 4.76282 19.4188C4.95224 19.2294 5.20913 19.123 5.477 19.123H29.624C30.177 19.123 30.634 19.58 30.634 20.133C30.634 20.2657 30.6079 20.397 30.5571 20.5195C30.5064 20.6421 30.432 20.7534 30.3382 20.8472C30.2444 20.941 30.1331 21.0154 30.0105 21.0661C29.888 21.1169 29.7566 21.143 29.624 21.143H5.477V21.143ZM10.642 24.297H13.234C13.5019 24.297 13.7588 24.4034 13.9482 24.5928C14.1376 24.7823 14.244 25.0391 14.244 25.307C14.244 25.5749 14.1376 25.8318 13.9482 26.0212C13.7588 26.2106 13.5019 26.317 13.234 26.317H10.642C10.089 26.317 9.632 25.86 9.632 25.307C9.632 24.754 10.08 24.297 10.642 24.297V24.297ZM5.477 24.297H7.202C7.755 24.297 8.212 24.755 8.212 25.307C8.212 25.5749 8.10559 25.8318 7.91618 26.0212C7.72677 26.2106 7.46987 26.317 7.202 26.317H5.477C4.925 26.317 4.467 25.86 4.467 25.307C4.467 24.754 4.915 24.297 5.477 24.297V24.297ZM10.642 27.746H13.234C13.5019 27.746 13.7588 27.8524 13.9482 28.0418C14.1376 28.2313 14.244 28.4881 14.244 28.756C14.244 29.0239 14.1376 29.2808 13.9482 29.4702C13.7588 29.6596 13.5019 29.766 13.234 29.766H10.642C10.089 29.766 9.632 29.309 9.632 28.756C9.632 28.203 10.08 27.746 10.642 27.746V27.746ZM5.477 27.746H7.202C7.755 27.746 8.212 28.204 8.212 28.756C8.212 29.0239 8.10559 29.2808 7.91618 29.4702C7.72677 29.6596 7.46987 29.766 7.202 29.766H5.477C4.925 29.766 4.467 29.309 4.467 28.756C4.467 28.203 4.915 27.746 5.477 27.746V27.746ZM10.642 31.196H13.234C13.5019 31.196 13.7588 31.3024 13.9482 31.4918C14.1376 31.6813 14.244 31.9381 14.244 32.206C14.244 32.4739 14.1376 32.7308 13.9482 32.9202C13.7588 33.1096 13.5019 33.216 13.234 33.216H10.642C10.089 33.216 9.632 32.759 9.632 32.206C9.632 31.653 10.08 31.196 10.642 31.196ZM5.477 31.196H7.202C7.755 31.196 8.212 31.653 8.212 32.206C8.212 32.4739 8.10559 32.7308 7.91618 32.9202C7.72677 33.1096 7.46987 33.216 7.202 33.216H5.477C4.925 33.216 4.467 32.759 4.467 32.206C4.467 31.653 4.915 31.196 5.477 31.196V31.196ZM10.642 34.646H13.234C13.5019 34.646 13.7588 34.7524 13.9482 34.9418C14.1376 35.1313 14.244 35.3881 14.244 35.656C14.244 35.9239 14.1376 36.1808 13.9482 36.3702C13.7588 36.5596 13.5019 36.666 13.234 36.666H10.642C10.089 36.666 9.632 36.208 9.632 35.656C9.632 35.102 10.08 34.646 10.642 34.646V34.646ZM5.477 34.646H7.202C7.755 34.646 8.212 35.103 8.212 35.656C8.212 35.9239 8.10559 36.1808 7.91618 36.3702C7.72677 36.5596 7.46987 36.666 7.202 36.666H5.477C4.925 36.666 4.467 36.208 4.467 35.656C4.467 35.102 4.915 34.646 5.477 34.646V34.646ZM10.642 38.105H13.234C13.5019 38.105 13.7588 38.2114 13.9482 38.4008C14.1376 38.5902 14.244 38.8471 14.244 39.115C14.244 39.3829 14.1376 39.6398 13.9482 39.8292C13.7588 40.0186 13.5019 40.125 13.234 40.125H10.642C10.089 40.125 9.632 39.668 9.632 39.115C9.632 38.562 10.08 38.105 10.642 38.105V38.105ZM5.477 38.105H7.202C7.755 38.105 8.212 38.563 8.212 39.115C8.212 39.3829 8.10559 39.6398 7.91618 39.8292C7.72677 40.0186 7.46987 40.125 7.202 40.125H5.477C4.925 40.125 4.467 39.668 4.467 39.115C4.467 38.562 4.915 38.105 5.477 38.105V38.105ZM21.715 14.1C21.715 13.547 22.163 13.09 22.725 13.09H23.592C24.144 13.09 24.602 13.548 24.602 14.1C24.602 14.3679 24.4956 14.6248 24.3062 14.8142C24.1168 15.0036 23.8599 15.11 23.592 15.11H22.724C22.172 15.11 21.714 14.653 21.714 14.1H21.715ZM27.91 15.11H27.042C26.7741 15.11 26.5172 15.0036 26.3278 14.8142C26.1384 14.6248 26.032 14.3679 26.032 14.1C26.032 13.8321 26.1384 13.5753 26.3278 13.3858C26.5172 13.1964 26.7741 13.09 27.042 13.09H27.909C28.462 13.09 28.919 13.548 28.919 14.1C28.919 14.2327 28.8929 14.364 28.8421 14.4865C28.7914 14.6091 28.717 14.7204 28.6232 14.8142C28.5294 14.908 28.4181 14.9824 28.2955 15.0331C28.173 15.0839 28.0416 15.11 27.909 15.11H27.91ZM17.398 14.1C17.398 13.547 17.846 13.09 18.408 13.09H19.275C19.828 13.09 20.285 13.548 20.285 14.1C20.285 14.3679 20.1786 14.6248 19.9892 14.8142C19.7998 15.0036 19.5429 15.11 19.275 15.11H18.408C17.855 15.11 17.398 14.653 17.398 14.1ZM22.725 11.662H5.325C5.05713 11.662 4.80024 11.5556 4.61082 11.3662C4.42141 11.1768 4.315 10.9199 4.315 10.652C4.315 10.3841 4.42141 10.1273 4.61082 9.93784C4.80024 9.74843 5.05713 9.64202 5.325 9.64202H22.725C23.277 9.64202 23.735 10.099 23.735 10.652C23.735 10.9199 23.6286 11.1768 23.4392 11.3662C23.2498 11.5556 22.9929 11.662 22.725 11.662Z" fill="#071E1E" stroke="#435366" stroke-width="0.3"/>
<path d="M34.95 22.422V22.572H38.248C39.2029 22.5733 40.1183 22.9533 40.7936 23.6285C41.4688 24.3037 41.8487 25.2191 41.85 26.174V48.596C41.8487 49.551 41.4688 50.4665 40.7936 51.1419C40.1184 51.8173 39.203 52.1974 38.248 52.199H19.275C18.3202 52.1974 17.4049 51.8174 16.7298 51.1423C16.0546 50.4671 15.6746 49.5518 15.673 48.597V47.024H2.88502C2.52591 47.0242 2.17028 46.9535 1.83846 46.8162C1.50664 46.6789 1.20513 46.4775 0.951148 46.2236C0.697167 45.9697 0.495692 45.6683 0.358234 45.3365C0.220775 45.0047 0.150025 44.6491 0.150025 44.29V2.88502C0.149893 2.52582 0.220546 2.17011 0.357946 1.83823C0.495347 1.50635 0.6968 1.20479 0.950795 0.950795C1.20479 0.6968 1.50635 0.495347 1.83823 0.357946C2.17011 0.220546 2.52582 0.149893 2.88502 0.150025H25.307C25.58 0.150025 25.834 0.255025 26.027 0.449025L34.652 9.07302L34.654 9.07502C34.7492 9.16673 34.8247 9.27693 34.8758 9.39885C34.9268 9.52077 34.9524 9.65185 34.951 9.78403V22.422H34.95ZM32.92 10.944V10.794H27.9C27.4269 10.7943 26.9583 10.7013 26.5211 10.5204C26.0839 10.3395 25.6867 10.0742 25.3521 9.73967C25.0175 9.40515 24.7521 9.00798 24.571 8.57084C24.39 8.1337 24.2969 7.66517 24.297 7.19202V2.17002H2.88502C2.79109 2.16989 2.69806 2.1883 2.61125 2.22418C2.52444 2.26007 2.44557 2.31273 2.37915 2.37915C2.31273 2.44557 2.26007 2.52444 2.22418 2.61125C2.1883 2.69806 2.16989 2.79109 2.17002 2.88502V44.29C2.17002 44.685 2.49002 45.005 2.88502 45.005H15.673V26.175C15.6743 25.22 16.0542 24.3045 16.7294 23.6291C17.4046 22.9538 18.32 22.5736 19.275 22.572H32.921V10.944H32.92ZM26.583 3.85802L26.327 3.60202V7.20202C26.327 8.07202 27.03 8.77402 27.899 8.77402H31.499L31.243 8.51802L26.583 3.85802ZM19.275 24.602C19.0685 24.6018 18.864 24.6422 18.6731 24.7211C18.4823 24.8001 18.3089 24.9158 18.1629 25.0619C18.0168 25.2079 17.9011 25.3813 17.8221 25.5721C17.7432 25.763 17.7028 25.9675 17.703 26.174V48.596C17.703 49.466 18.406 50.169 19.275 50.169H38.248C38.4545 50.1693 38.6591 50.1288 38.8499 50.0499C39.0408 49.971 39.2142 49.8552 39.3602 49.7092C39.5062 49.5632 39.622 49.3898 39.7009 49.1989C39.7798 49.0081 39.8203 48.8035 39.82 48.597V26.174C39.8203 25.9675 39.7798 25.763 39.7009 25.5721C39.622 25.3813 39.5062 25.2079 39.3602 25.0619C39.2142 24.9158 39.0408 24.8001 38.8499 24.7211C38.6591 24.6422 38.4545 24.6018 38.248 24.602H19.275V24.602Z" fill="#071E1E" stroke="#435366" stroke-width="0.3"/>
<path d="M21.153 31.046V31.196H36.38V28.042H21.153V31.046ZM36.523 33.226H21C20.5022 33.226 20.0248 33.0282 19.6727 32.6762C19.3207 32.3242 19.123 31.8468 19.123 31.349V27.899C19.123 26.862 19.963 26.022 21 26.022H36.523C37.56 26.022 38.4 26.862 38.4 27.899V31.349C38.4 32.386 37.56 33.226 36.523 33.226ZM21.153 38.813V38.963H22.583V37.533H21.152V38.813H21.153ZM22.725 40.983H21C20.5021 40.9827 20.0247 40.7847 19.6727 40.4326C19.3207 40.0804 19.123 39.6029 19.123 39.105V37.38C19.123 36.344 19.963 35.503 21 35.503H22.725C23.762 35.503 24.602 36.343 24.602 37.38V39.105C24.602 40.142 23.762 40.983 22.725 40.983V40.983ZM36.37 37.683V37.533H34.95V38.963H36.37V37.683ZM34.798 35.513H36.523C37.559 35.513 38.4 36.353 38.4 37.391V39.115C38.4 40.152 37.56 40.993 36.523 40.993H34.798C34.5513 40.9931 34.3071 40.9446 34.0792 40.8503C33.8512 40.756 33.6442 40.6176 33.4697 40.4432C33.2953 40.2688 33.157 40.0617 33.0627 39.8338C32.9683 39.6059 32.9199 39.3616 32.92 39.115V37.391C32.92 36.354 33.761 35.513 34.798 35.513ZM29.472 37.683V37.533H28.042V38.963H29.472V37.683ZM27.899 35.513H29.624C30.661 35.513 31.502 36.353 31.502 37.391V39.115C31.502 39.6131 31.3041 40.0907 30.9519 40.4429C30.5997 40.7951 30.1221 40.993 29.624 40.993H27.9C27.6534 40.993 27.4093 40.9444 27.1815 40.85C26.9537 40.7556 26.7467 40.6173 26.5724 40.4429C26.3981 40.2685 26.2598 40.0614 26.1656 39.8336C26.0713 39.6057 26.0229 39.3616 26.023 39.115V37.391C26.023 36.354 26.863 35.513 27.9 35.513H27.899ZM21.153 45.712V45.862H22.583V44.432H21.152V45.712H21.153ZM22.725 47.882H21C20.5022 47.882 20.0248 47.6842 19.6727 47.3322C19.3207 46.9802 19.123 46.5028 19.123 46.005V44.28C19.123 43.243 19.963 42.402 21 42.402H22.725C23.762 42.402 24.602 43.243 24.602 44.28V46.005C24.602 47.041 23.762 47.882 22.725 47.882V47.882ZM36.37 44.582V44.432H34.95V45.862H36.37V44.582ZM34.798 42.412H36.523C37.559 42.412 38.4 43.252 38.4 44.29V46.014C38.4 47.051 37.56 47.892 36.523 47.892H34.798C34.5513 47.8921 34.3071 47.8436 34.0792 47.7493C33.8512 47.655 33.6442 47.5166 33.4697 47.3422C33.2953 47.1678 33.157 46.9607 33.0627 46.7328C32.9683 46.5049 32.9199 46.2606 32.92 46.014V44.29C32.92 43.253 33.761 42.412 34.798 42.412V42.412ZM29.472 44.582V44.432H28.042V45.862H29.472V44.582ZM27.899 42.412H29.624C30.661 42.412 31.502 43.252 31.502 44.29V46.014C31.502 46.512 31.3041 46.9897 30.9519 47.3419C30.5997 47.6941 30.1221 47.892 29.624 47.892H27.9C27.6534 47.892 27.4093 47.8434 27.1815 47.749C26.9537 47.6546 26.7467 47.5163 26.5724 47.3419C26.3981 47.1675 26.2598 46.9604 26.1656 46.7326C26.0713 46.5047 26.0229 46.2605 26.023 46.014V44.29C26.023 43.253 26.863 42.412 27.9 42.412H27.899Z" fill="#071E1E" stroke="#435366" stroke-width="0.3"/>
</g>
<defs>
<clipPath id="clip0_30_2">
<rect width="42" height="53" fill="white"/>
</clipPath>
</defs>
</svg>
