<svg width="48" height="48" viewBox="0 0 48 48" fill="none" xmlns="http://www.w3.org/2000/svg">
<g clip-path="url(#clip0_30_9)">
<path d="M36.472 19.34V19.585L36.643 19.411C37.13 18.914 40.364 15.681 40.871 15.174C41.6443 14.405 42.6905 13.9734 43.781 13.9734C44.8715 13.9734 45.9177 14.405 46.691 15.174C47.0738 15.5557 47.3776 16.0092 47.5849 16.5085C47.7922 17.0078 47.899 17.5431 47.8991 18.0838C47.8992 18.6244 47.7926 19.1597 47.5855 19.6591C47.3783 20.1585 47.0747 20.6121 46.692 20.994L36.492 31.204L36.462 31.234V43.78C36.4604 44.8717 36.0261 45.9184 35.2542 46.6904C34.4822 47.4625 33.4357 47.8971 32.344 47.899H4.21898C3.12721 47.8974 2.0806 47.4631 1.30851 46.6912C0.536418 45.9192 0.101827 44.8727 0.0999756 43.781V4.21998C0.101298 3.12786 0.535656 2.08084 1.3078 1.30851C2.07995 0.536175 3.12686 0.101564 4.21898 0.0999758H28.369C29.464 0.0996315 30.5143 0.534141 31.289 1.30798L35.264 5.28298C35.6476 5.66413 35.9519 6.11756 36.1593 6.61705C36.3666 7.11653 36.4729 7.65216 36.472 8.19298V19.341V19.34ZM28.125 2.71298H28.025V8.53898H33.85V8.37398C33.853 8.06998 33.858 7.57998 33.408 7.12998L29.433 3.15498C28.979 2.70098 28.469 2.70898 28.191 2.71298H28.125V2.71298ZM25.413 2.81298V2.71298H4.21798C3.38398 2.71298 2.71098 3.38598 2.71098 4.21998V43.78C2.71098 44.614 3.38398 45.287 4.21798 45.287H32.343C33.176 45.287 33.849 44.614 33.849 43.78V33.855L33.679 34.026L33.512 34.193H33.511C33.3651 34.3347 33.1895 34.4423 32.997 34.508H32.995L27.033 36.496C26.563 36.653 26.04 36.531 25.693 36.183C25.5219 36.01 25.402 35.7932 25.3464 35.5564C25.2908 35.3195 25.3017 35.072 25.378 34.841L27.366 28.878C27.426 28.687 27.54 28.503 27.679 28.364L29.667 26.377L33.82 22.224L33.849 22.194V11.15H26.719C26.5474 11.1502 26.3774 11.1166 26.2189 11.0511C26.0603 10.9856 25.9162 10.8894 25.7949 10.768C25.6736 10.6467 25.5774 10.5026 25.5119 10.3441C25.4463 10.1855 25.4127 10.0156 25.413 9.84398V2.81298V2.81298ZM30.671 29.218L30.6 29.148L30.53 29.218L29.77 29.978L29.753 29.994L29.746 30.016L28.752 32.997L28.689 33.187L28.879 33.124L31.859 32.13L31.882 32.123L31.899 32.106L32.659 31.346L32.729 31.276L32.659 31.206L30.671 29.218V29.218ZM34.504 29.359L34.575 29.43L34.645 29.36L41.405 22.59L41.475 22.52L41.405 22.449L39.418 20.461L39.346 20.391L39.276 20.461C38.283 21.464 33.585 26.162 32.52 27.227L32.517 27.23L32.447 27.301L32.517 27.371L34.504 29.359V29.359ZM44.846 19.159C45.1261 18.8737 45.283 18.4898 45.283 18.09C45.283 17.6902 45.1261 17.3063 44.846 17.021C44.5624 16.741 44.18 16.584 43.7815 16.584C43.383 16.584 43.0005 16.741 42.717 17.021L41.264 18.474L41.193 18.544L41.263 18.616L43.251 20.603L43.321 20.673L43.392 20.603L44.845 19.159H44.846Z" fill="#071E1E" stroke="#435366" stroke-width="0.2"/>
<path d="M7.031 14.162H26.72C27.443 14.162 28.026 14.746 28.026 15.469C28.026 16.192 27.443 16.775 26.72 16.775H7.03C6.85842 16.7753 6.68847 16.7416 6.5299 16.6761C6.37133 16.6106 6.22726 16.5144 6.10593 16.3931C5.98461 16.2717 5.88842 16.1277 5.82288 15.9691C5.75734 15.8105 5.72374 15.6406 5.724 15.469C5.724 14.746 6.307 14.163 7.03 14.163L7.031 14.162ZM7.031 19.788H21.094C21.817 19.788 22.4 20.371 22.4 21.094C22.4 21.817 21.817 22.4 21.094 22.4H7.03C6.85842 22.4003 6.68847 22.3666 6.5299 22.3011C6.37133 22.2356 6.22726 22.1394 6.10593 22.0181C5.98461 21.8967 5.88842 21.7527 5.82288 21.5941C5.75734 21.4355 5.72374 21.2656 5.724 21.094C5.724 20.371 6.307 19.788 7.03 19.788H7.031ZM7.031 25.413H21.094C21.817 25.413 22.4 25.996 22.4 26.719C22.4 27.442 21.817 28.025 21.094 28.025H7.03C6.85842 28.0253 6.68847 27.9916 6.5299 27.9261C6.37133 27.8606 6.22726 27.7644 6.10593 27.6431C5.98461 27.5217 5.88842 27.3777 5.82288 27.2191C5.75734 27.0605 5.72374 26.8906 5.724 26.719C5.724 25.996 6.307 25.413 7.03 25.413H7.031ZM7.031 31.038H21.094C21.817 31.038 22.4 31.621 22.4 32.344C22.4 33.067 21.817 33.65 21.094 33.65H7.03C6.85842 33.6503 6.68847 33.6167 6.5299 33.5511C6.37133 33.4856 6.22726 33.3894 6.10593 33.2681C5.98461 33.1467 5.88842 33.0027 5.82288 32.8441C5.75734 32.6855 5.72374 32.5156 5.724 32.344C5.724 31.621 6.307 31.038 7.03 31.038H7.031ZM18.281 39.663H26.719C27.442 39.663 28.025 40.246 28.025 40.969C28.025 41.692 27.442 42.275 26.719 42.275H18.28C18.1084 42.2753 17.9385 42.2417 17.7799 42.1761C17.6213 42.1106 17.4773 42.0144 17.3559 41.8931C17.2346 41.7717 17.1384 41.6277 17.0729 41.4691C17.0073 41.3105 16.9737 41.1406 16.974 40.969C16.974 40.246 17.557 39.663 18.28 39.663H18.281Z" fill="#071E1E" stroke="#435366" stroke-width="0.2"/>
</g>
<defs>
<clipPath id="clip0_30_9">
<rect width="48" height="48" fill="white"/>
</clipPath>
</defs>
</svg>
