<svg width="48" height="41" viewBox="0 0 48 41" fill="none" xmlns="http://www.w3.org/2000/svg">
<g clip-path="url(#clip0_30_12)">
<path d="M45.909 22.149C44.486 20.016 42.557 18.834 40.481 18.834H36.905C38.451 16.794 39.335 13.907 39.335 10.834C39.335 8.436 38.812 6.172 37.82 4.28C37.7049 4.06155 37.509 3.8968 37.274 3.821C37.0383 3.75029 36.7842 3.77545 36.567 3.891C36.3489 4.00942 36.1862 4.20906 36.1143 4.44662C36.0425 4.68419 36.0671 4.94051 36.183 5.16C37.036 6.779 37.482 8.748 37.482 10.833C37.482 14.18 36.252 17.308 34.337 18.833H29.294C27.379 17.308 26.149 14.18 26.149 10.833C26.149 8.373 26.779 6.078 27.917 4.358C28.987 2.763 30.37 1.876 31.815 1.876C32.83 1.876 33.83 2.319 34.706 3.152C34.7934 3.23707 34.8971 3.30369 35.0107 3.34791C35.1244 3.39213 35.2458 3.41304 35.3678 3.4094C35.4897 3.40576 35.6096 3.37765 35.7205 3.32673C35.8313 3.27581 35.9308 3.20313 36.013 3.113C36.1817 2.93166 36.2722 2.69126 36.2651 2.44371C36.258 2.19617 36.1538 1.96136 35.975 1.79C34.745 0.623 33.307 0 31.815 0H15.055C12.978 0 11.049 1.175 9.626 3.315C8.281 5.339 7.535 8.008 7.535 10.833C7.535 13.923 8.411 16.803 9.957 18.833H7.519C5.444 18.833 3.514 20.009 2.091 22.149C0.738 24.172 0 26.842 0 29.667C0 32.492 0.738 35.169 2.091 37.185C3.514 39.317 5.444 40.5 7.52 40.5H40.482C42.557 40.5 44.487 39.325 45.91 37.185C47.254 35.16 48 32.492 48 29.667C48 26.842 47.254 24.172 45.909 22.149ZM15.423 9.705C15.431 10.016 15.323 10.312 15.108 10.537C14.893 10.763 14.608 10.887 14.301 10.887H9.38C9.356 10.032 9.418 9.237 9.548 8.623H14.246C14.876 8.615 15.407 9.105 15.422 9.705H15.423ZM14.309 12.755C14.7091 12.7566 15.1052 12.6759 15.4728 12.518C15.8405 12.36 16.1717 12.1283 16.446 11.837C16.7261 11.5452 16.9441 11.1996 17.0867 10.8211C17.2294 10.4426 17.2938 10.0391 17.276 9.635C17.223 8.032 15.862 6.732 14.255 6.732H10.025C10.2977 5.89364 10.6807 5.0953 11.164 4.358C12.233 2.755 13.617 1.876 15.054 1.876H27.556C27.1569 2.27637 26.7941 2.71141 26.472 3.176H20.905C19.268 3.176 17.93 4.529 17.93 6.187C17.93 7.845 19.268 9.199 20.905 9.199H24.381C24.3261 9.74196 24.2977 10.2873 24.296 10.833C24.296 13.915 25.173 16.803 26.726 18.833H12.54C11.01 17.612 9.903 15.363 9.534 12.756H14.308L14.309 12.755ZM20.905 7.323C20.6057 7.32088 20.3194 7.20007 20.109 6.98709C19.8987 6.7741 19.7814 6.48635 19.783 6.187C19.783 5.557 20.283 5.051 20.905 5.051H25.442C25.124 5.78376 24.8742 6.54432 24.696 7.323H20.906H20.905ZM7.25 29.31H1.86C1.884 28.54 1.96 27.777 2.107 27.045H7.25C7.54952 27.0469 7.83606 27.1675 8.04663 27.3806C8.25721 27.5936 8.3746 27.8815 8.373 28.181C8.3717 28.479 8.25316 28.7645 8.043 28.9758C7.83285 29.187 7.54798 29.3071 7.25 29.31ZM7.197 31.185C8.827 31.185 10.187 29.87 10.218 28.244C10.2275 27.844 10.1577 27.4461 10.0125 27.0733C9.86724 26.7005 9.64956 26.3602 9.372 26.072C9.09701 25.7841 8.76645 25.555 8.40032 25.3986C8.0342 25.2421 7.64014 25.1617 7.242 25.162H2.63C2.8819 24.4687 3.21452 23.8075 3.621 23.192C4.691 21.597 6.074 20.71 7.519 20.71H20.021C19.598 21.13 19.206 21.605 18.845 22.142C17.499 24.166 16.754 26.835 16.754 29.66C16.754 31.24 16.992 32.812 17.445 34.236H13.678C13.4301 34.2386 13.1933 34.3391 13.0191 34.5155C12.8449 34.692 12.7475 34.9301 12.748 35.178C12.748 35.699 13.163 36.119 13.678 36.119H18.222C18.492 36.617 19.152 37.699 20.052 38.625H7.519C6.074 38.625 4.69 37.746 3.629 36.143C2.729 34.789 2.145 33.076 1.938 31.185H7.197V31.185ZM20.383 23.2C21.451 21.596 22.835 20.717 24.273 20.717C25.718 20.717 27.095 21.597 28.163 23.2C29.309 24.912 29.932 27.215 29.932 29.675C29.932 32.134 29.302 34.43 28.163 36.15C27.095 37.753 25.711 38.632 24.273 38.632C22.828 38.632 21.451 37.752 20.383 36.15C20.367 36.126 18.606 33.325 18.606 29.675C18.614 27.207 19.236 24.912 20.382 23.2H20.383ZM29.709 37.192C31.054 35.17 31.8 32.5 31.8 29.675C31.8 26.849 31.062 24.172 29.709 22.157C29.3666 21.6407 28.9722 21.1609 28.532 20.725H36.222C35.798 21.145 35.406 21.62 35.045 22.157C33.699 24.18 32.953 26.849 32.953 29.675C32.953 32.5 33.691 35.177 35.045 37.192C35.387 37.7083 35.7811 38.1881 36.221 38.624H28.532C28.9723 38.1882 29.3667 37.7083 29.709 37.192V37.192ZM46.147 29.667C46.147 32.127 45.517 34.422 44.379 36.142C43.31 37.745 41.926 38.624 40.489 38.624C39.043 38.624 37.667 37.745 36.598 36.142C35.452 34.43 34.829 32.126 34.829 29.667C34.829 27.207 35.459 24.912 36.598 23.192C37.667 21.589 39.051 20.709 40.488 20.709C41.934 20.709 43.31 21.589 44.378 23.192C45.517 24.912 46.147 27.207 46.147 29.667Z" fill="#071E1E"/>
<path d="M42.033 25.799C41.8077 25.9024 41.6313 26.0892 41.541 26.32C41.4959 26.4345 41.4741 26.5567 41.4769 26.6796C41.4796 26.8026 41.5069 26.9237 41.557 27.036C41.872 27.768 42.049 28.702 42.049 29.666C42.049 31.947 41.095 33.465 40.472 33.465C39.842 33.465 38.896 31.955 38.896 29.667C38.896 27.387 39.85 25.869 40.472 25.869C40.7199 25.8664 40.9567 25.7659 41.1309 25.5895C41.3051 25.4131 41.4025 25.175 41.402 24.927C41.4029 24.8041 41.3796 24.6822 41.3333 24.5684C41.287 24.4545 41.2187 24.3509 41.1323 24.2635C41.0459 24.1761 40.9431 24.1066 40.8298 24.0589C40.7165 24.0113 40.5949 23.9866 40.472 23.986C39.442 23.986 38.527 24.655 37.882 25.869C37.336 26.896 37.036 28.243 37.036 29.659C37.036 31.075 37.336 32.422 37.881 33.449C38.527 34.663 39.442 35.332 40.472 35.332C41.502 35.332 42.418 34.663 43.063 33.449C43.609 32.422 43.909 31.075 43.909 29.659C43.909 28.414 43.686 27.239 43.256 26.266C43.2066 26.1548 43.1358 26.0545 43.0475 25.9708C42.9592 25.887 42.8553 25.8216 42.7416 25.7782C42.628 25.7348 42.5068 25.7143 42.3852 25.7179C42.2636 25.7214 42.1439 25.749 42.033 25.799V25.799ZM24.273 35.34C25.303 35.34 26.218 34.671 26.863 33.457C27.41 32.43 27.71 31.083 27.71 29.667C27.71 28.25 27.41 26.904 26.864 25.877C26.226 24.663 25.303 23.993 24.273 23.993C23.243 23.993 22.328 24.663 21.682 25.877C21.136 26.904 20.836 28.25 20.836 29.667C20.836 31.083 21.136 32.43 21.682 33.457C22.328 34.671 23.25 35.34 24.272 35.34H24.273ZM22.697 29.667C22.697 27.387 23.65 25.869 24.273 25.869C24.903 25.869 25.849 27.379 25.849 29.667C25.849 31.947 24.895 33.465 24.273 33.465C23.65 33.465 22.697 31.947 22.697 29.667ZM31.816 5.16003C30.786 5.16003 29.871 5.83003 29.225 7.04303C28.679 8.07103 28.379 9.41703 28.379 10.833C28.379 12.25 28.679 13.596 29.225 14.623C29.87 15.838 30.785 16.507 31.815 16.507C32.846 16.507 33.761 15.837 34.407 14.623C34.953 13.596 35.253 12.25 35.253 10.833C35.253 9.41703 34.953 8.07103 34.407 7.04303C33.761 5.82903 32.838 5.16003 31.816 5.16003V5.16003ZM33.392 10.833C33.392 13.113 32.438 14.631 31.816 14.631C31.186 14.631 30.24 13.121 30.24 10.833C30.24 8.55303 31.193 7.03503 31.816 7.03503C32.438 7.03503 33.392 8.55303 33.392 10.833Z" fill="#071E1E"/>
</g>
<defs>
<clipPath id="clip0_30_12">
<rect width="48" height="41" fill="white"/>
</clipPath>
</defs>
</svg>
