<svg xmlns="http://www.w3.org/2000/svg" width="41" height="49"   style="position:absolute" >
    <path d="M3.917 26.201h13.568a.76.76 0 0 0 .754-.76v-3.04a.76.76 0 0 0-.754-.76H3.917a.76.76 0 0 0-.753.76v3.04c0 .418.339.76.753.76zm.754-3.04h12.06v1.52H4.671v-1.52zm11.306 4.56c-1.244 0-2.261 1.026-2.261 2.28 0 1.254 1.017 2.28 2.261 2.28 1.244 0 2.261-1.026 2.261-2.28 0-1.254-1.017-2.28-2.26-2.28zm0 3.04a.76.76 0 0 1-.754-.76c0-.418.34-.76.754-.76a.76.76 0 0 1 0 1.52zm-5.275-3.04c-1.244 0-2.262 1.026-2.262 2.28 0 1.254 1.018 2.28 2.262 2.28 1.243 0 2.261-1.026 2.261-2.28 0-1.254-1.018-2.28-2.261-2.28zm0 3.04a.76.76 0 0 1 0-1.52.76.76 0 0 1 0 1.52zM5.425 32.28c1.244 0 2.261-1.025 2.261-2.28 0-1.253-1.017-2.279-2.261-2.279-1.244 0-2.261 1.026-2.261 2.28 0 1.254 1.017 2.28 2.26 2.28zm0-3.039a.76.76 0 0 1 0 1.52.76.76 0 0 1 0-1.52zm10.552 3.8c-1.244 0-2.261 1.026-2.261 2.28 0 1.253 1.017 2.279 2.261 2.279 1.244 0 2.261-1.026 2.261-2.28 0-1.253-1.017-2.279-2.26-2.279zm0 3.04a.759.759 0 0 1 0-1.52.759.759 0 0 1 0 1.52zm-5.275-3.04c-1.244 0-2.262 1.026-2.262 2.28 0 1.253 1.018 2.279 2.262 2.279 1.243 0 2.261-1.026 2.261-2.28 0-1.253-1.018-2.279-2.261-2.279zm0 3.04a.759.759 0 0 1 0-1.52.759.759 0 0 1 0 1.52zM5.425 37.6c1.244 0 2.261-1.026 2.261-2.28 0-1.253-1.017-2.279-2.261-2.279-1.244 0-2.261 1.026-2.261 2.28 0 1.253 1.017 2.279 2.26 2.279zm0-3.04a.759.759 0 0 1 0 1.52.759.759 0 0 1 0-1.52zm10.552 3.8c-1.244 0-2.261 1.026-2.261 2.28 0 1.254 1.017 2.28 2.261 2.28 1.244 0 2.261-1.026 2.261-2.28 0-1.254-1.017-2.28-2.26-2.28zm0 3.04a.759.759 0 0 1-.754-.76c0-.418.34-.76.754-.76a.76.76 0 0 1 0 1.52zm-5.275-3.04c-1.244 0-2.262 1.026-2.262 2.28 0 1.254 1.018 2.28 2.262 2.28 1.243 0 2.261-1.026 2.261-2.28 0-1.254-1.018-2.28-2.261-2.28zm0 3.04a.76.76 0 0 1 0-1.52.76.76 0 0 1 0 1.52zm-5.277 1.52c1.244 0 2.261-1.026 2.261-2.28 0-1.254-1.017-2.28-2.261-2.28-1.244 0-2.261 1.026-2.261 2.28 0 1.254 1.017 2.28 2.26 2.28zm0-3.04a.76.76 0 0 1 0 1.52.759.759 0 0 1 0-1.52zm22.604-28.108h-.057a6.094 6.094 0 0 0-2.959-4.484v-.323c0-.038-.018-.076-.018-.114-.01-.057-.01-.114-.029-.161-.018-.048-.047-.086-.075-.133-.028-.038-.047-.076-.075-.114-.038-.048-.095-.076-.142-.105-.028-.019-.047-.047-.075-.057-.01 0-.019-.01-.019-.01-.01 0-.01 0-.019-.009a5.997 5.997 0 0 0-5.088 0h-.01c-.009 0-.018.01-.027.01-.038.019-.057.047-.085.066a.459.459 0 0 0-.132.105.795.795 0 0 0-.076.114.454.454 0 0 0-.075.133c-.019.047-.019.104-.028.161-.01.038-.02.076-.02.114v.323a6.148 6.148 0 0 0-2.967 4.493h-.057a.76.76 0 0 0-.753.76v2.28c0 .418.339.76.753.76h12.06a.76.76 0 0 0 .755-.76v-2.28c-.029-.427-.368-.77-.782-.77zM18.983 9.14v.352c0 .418.34.76.754.76a.76.76 0 0 0 .754-.76V7.478a4.559 4.559 0 0 1 3.015 0v2.014c0 .418.34.76.754.76a.76.76 0 0 0 .753-.76V9.14a4.577 4.577 0 0 1 1.433 2.632h-8.904a4.644 4.644 0 0 1 1.441-2.632zm8.292 4.912H16.722v-.76h10.553v.76zm5.285 7.6h2.262a.76.76 0 0 0 .754-.76.76.76 0 0 0-.754-.761h-2.261a.76.76 0 0 0-.754.76c0 .419.33.76.754.76zm2.262 2.279h-3.015a.76.76 0 0 0-.754.76c0 .419.34.761.754.761h3.015a.76.76 0 0 0 .754-.76.76.76 0 0 0-.754-.76zm0 3.8h-2.261a.76.76 0 0 0-.754.76c0 .42.34.761.754.761h2.261a.76.76 0 0 0 .754-.76.76.76 0 0 0-.754-.76zm-.001 3.799h-1.507a.76.76 0 0 0-.754.76c0 .418.34.76.754.76h1.507a.76.76 0 0 0 .754-.76.76.76 0 0 0-.754-.76zm.001 3.8h-2.261a.76.76 0 0 0-.754.76c0 .418.34.76.754.76h2.261a.76.76 0 0 0 .754-.76.76.76 0 0 0-.754-.76zm0 3.8h-3.015a.76.76 0 0 0-.754.76c0 .417.34.76.754.76h3.015a.76.76 0 0 0 .754-.76.76.76 0 0 0-.754-.76z"></path><path d="M40.843 6.451a.768.768 0 0 0-.217-.532L35.35.6a.638.638 0 0 0-.245-.17.75.75 0 0 0-.283-.057h-24.12a.76.76 0 0 0-.755.76v17.47H2.41c-1.244 0-2.262 1.025-2.262 2.28V46.72C.148 47.974 1.166 49 2.41 49h16.583c1.243 0 2.261-1.026 2.261-2.28v-.76h18.844a.76.76 0 0 0 .754-.76l-.01-38.749c.01 0 .01 0 0 0 .01 0 0 0 0 0zm-5.267-3.486l2.694 2.726h-2.694V2.965zM1.656 20.881c0-.418.34-.76.754-.76h16.583a.76.76 0 0 1 .754.76v22.8a.76.76 0 0 1-.754.759H2.41a.76.76 0 0 1-.754-.76V20.881zM18.993 47.48H2.41a.76.76 0 0 1-.754-.76v-.902c.236.085.49.142.754.142h16.583c.264 0 .518-.057.754-.142v.902a.76.76 0 0 1-.754.76zm2.261-3.8v-3.03h6.774a.76.76 0 0 0 0-1.52h-6.774v-2.28h6.774a.76.76 0 0 0 0-1.52h-6.774v-2.28h6.774a.76.76 0 0 0 .754-.76.76.76 0 0 0-.753-.76h-6.775v-2.28h6.774a.76.76 0 1 0 0-1.52h-6.774v-2.28h6.774a.76.76 0 0 0 0-1.52h-6.774v-2.279h6.774a.76.76 0 0 0 0-1.52h-6.915a2.254 2.254 0 0 0-2.13-1.53h-7.537V1.891h22.613v4.56c0 .418.339.76.753.76h4.523v37.22H21.254v-.75z"></path>
</svg>