<svg xmlns="http://www.w3.org/2000/svg" width="41" height="46"   style="position:absolute" >
    <path d="M40.728 37.663a3.373 3.373 0 0 0-1.759-1.941 3.337 3.337 0 0 0-2.61-.099l-.997.377V24.222a.9.9 0 0 0-.897-.899.9.9 0 0 0-.897.899v12.461L29.27 38.31a7.265 7.265 0 0 1-3.598.404c.323-.368.583-.799.744-1.293.61-1.887-.448-3.971-2.396-4.483l-7.869-2.067a.956.956 0 0 0-.224-.027h-6.12v-1.689a.9.9 0 0 0-.897-.898H7.044V7.466h4.8a.9.9 0 0 0 .898-.898V1.797h20.817V16.19a.9.9 0 0 0 .897.898.9.9 0 0 0 .897-.898V.898A.9.9 0 0 0 34.456 0H11.844a.904.904 0 0 0-.628.26L5.518 5.93a.914.914 0 0 0-.269.638v21.66H.897a.9.9 0 0 0-.897.9V44.5a.9.9 0 0 0 .897.898H8.91a.9.9 0 0 0 .897-.898v-1.618h3.267l11.763 2.858a9.27 9.27 0 0 0 2.154.26 9.096 9.096 0 0 0 3.4-.665l8.426-3.414a3.367 3.367 0 0 0 1.911-4.258zM10.947 5.669h-2.62l2.62-2.614v2.614zM8.013 43.601H1.795V30.026h6.218V43.6zm30.13-3.342l-8.425 3.414a7.222 7.222 0 0 1-4.46.323l-11.87-2.884a.882.882 0 0 0-.216-.026H9.798v-8.473h6.003l7.762 2.04c.27.072.511.206.709.395.592.557.682 1.456.278 2.147a1.765 1.765 0 0 1-1.813.845l-5.23-1.231a.892.892 0 0 0-1.078.665.893.893 0 0 0 .664 1.078h.01c.17.036 2.978.7 5.132 1.213 1.193.278 2.405.647 3.634.764 1.445.134 2.862-.108 4.208-.611 1.714-.647 6.317-2.39 6.91-2.606.816-.305 1.758.126 2.045.953a1.582 1.582 0 0 1-.888 1.994z"></path><path d="M15.677 15.472h-2.594a.9.9 0 0 0-.897.898.9.9 0 0 0 .897.899h1.239v.539a.9.9 0 0 0 .897.898.9.9 0 0 0 .897-.898v-.575a2.578 2.578 0 0 0 2.136-2.543v-.108a2.583 2.583 0 0 0-2.575-2.579h-.916a.782.782 0 0 1 0-1.563h2.593a.9.9 0 0 0 .898-.899.9.9 0 0 0-.898-.898h-1.238v-.54a.9.9 0 0 0-.897-.898.9.9 0 0 0-.897.899v.575a2.578 2.578 0 0 0-2.136 2.543 2.583 2.583 0 0 0 2.575 2.578h.916c.43 0 .78.35.78.782v.108a.776.776 0 0 1-.78.782zM28.202 7.17H22.01a.9.9 0 0 0-.898.898.9.9 0 0 0 .898.898h6.19a.9.9 0 0 0 .898-.898.9.9 0 0 0-.897-.899zm0 4.744H22.01a.9.9 0 0 0-.898.898.9.9 0 0 0 .898.898h6.19a.9.9 0 0 0 .898-.898.9.9 0 0 0-.897-.898zm0 4.744H22.01a.901.901 0 0 0-.898.9c0 .494.404.899.898.899h6.19a.901.901 0 0 0 .898-.9c0-.494-.404-.9-.897-.9zm0 4.742h-15.11a.9.9 0 0 0-.898.899.9.9 0 0 0 .898.899h15.11a.9.9 0 0 0 .897-.899.9.9 0 0 0-.897-.899zm0 4.745h-15.11a.9.9 0 0 0-.898.898.9.9 0 0 0 .898.898h15.11a.9.9 0 0 0 .897-.898.9.9 0 0 0-.897-.898zm7.008-6.452a.912.912 0 0 0-1.248-.252.916.916 0 0 0-.25 1.25.912.912 0 0 0 1.246.252.918.918 0 0 0 .252-1.25z"></path>
</svg>