<svg width="41" height="51" viewBox="0 0 41 51" fill="none" xmlns="http://www.w3.org/2000/svg">
<g clip-path="url(#clip0_30_6)">
<path d="M27.774 4.92695L27.715 4.86695H27.421V10.222C27.421 11.702 28.593 12.916 30.047 12.916H35.544L35.214 12.576L27.774 4.92595V4.92695ZM24.944 2.96895V2.76895H5.31301C3.85901 2.76895 2.68701 3.98195 2.68701 5.46195V45.202C2.68701 46.682 3.85901 47.895 5.31301 47.895H34.685C36.138 47.895 37.31 46.683 37.32 45.213V15.494H30.056C27.236 15.494 24.944 13.135 24.944 10.232V2.96895V2.96895ZM27.064 0.574951L39.431 13.29C39.663 13.529 39.798 13.865 39.808 14.202V45.202C39.808 48.114 37.505 50.464 34.695 50.464H5.31301C2.49301 50.464 0.200012 48.114 0.200012 45.212V5.46195C0.200012 2.54995 2.49301 0.199951 5.31301 0.199951H26.187C26.507 0.199951 26.832 0.335951 27.064 0.574951V0.574951Z" fill="#071E1E" stroke="#435366" stroke-width="0.4"/>
<path d="M8.87602 28.617V28.817H12.577V25.023H8.87602V28.617ZM7.63202 22.455H13.811C14.493 22.455 15.055 23.022 15.064 23.74V30.102C15.064 30.818 14.504 31.386 13.82 31.386H7.63202C6.94902 31.386 6.38802 30.818 6.38802 30.102V23.739C6.38802 23.023 6.94902 22.455 7.63202 22.455V22.455ZM8.87602 41.333V41.533H12.577V37.739H8.87602V41.333V41.333ZM7.63202 35.18H13.811C14.493 35.18 15.055 35.748 15.064 36.465V42.827C15.064 43.543 14.504 44.111 13.82 44.111H7.63202C6.94902 44.111 6.38802 43.543 6.38802 42.827V36.464C6.38802 35.748 6.94902 35.18 7.63202 35.18ZM19.999 25.023C19.316 25.023 18.755 24.455 18.755 23.739C18.755 23.023 19.315 22.455 19.999 22.455H26.187C26.87 22.455 27.431 23.023 27.431 23.739C27.431 24.455 26.871 25.023 26.187 25.023H20H19.999ZM19.999 28.817H32.366C33.049 28.817 33.609 29.385 33.609 30.102C33.609 30.818 33.049 31.386 32.366 31.386H19.999C19.316 31.386 18.755 30.818 18.755 30.102C18.755 29.385 19.315 28.817 19.999 28.817V28.817ZM26.187 37.749H20C19.317 37.749 18.756 37.18 18.756 36.464C18.756 35.748 19.316 35.18 20 35.18H26.188C26.871 35.18 27.432 35.748 27.432 36.464C27.432 37.18 26.872 37.749 26.188 37.749H26.187ZM19.999 41.533H32.366C33.049 41.533 33.609 42.101 33.609 42.817C33.609 43.533 33.049 44.101 32.366 44.101H19.999C19.316 44.101 18.755 43.533 18.755 42.817C18.755 42.101 19.315 41.533 19.999 41.533V41.533ZM15.36 10.714H7.63202C6.94902 10.714 6.38802 10.146 6.38802 9.43C6.38802 8.714 6.94902 8.146 7.63202 8.146H15.36C16.043 8.146 16.604 8.714 16.604 9.43C16.604 10.146 16.044 10.714 15.36 10.714ZM20 17.077H7.63102C6.94802 17.077 6.38702 16.509 6.38702 15.793C6.38702 15.077 6.94802 14.509 7.63102 14.509H20C20.683 14.509 21.244 15.077 21.244 15.793C21.244 16.509 20.684 17.077 20 17.077Z" fill="#071E1E" stroke="#435366" stroke-width="0.4"/>
</g>
<defs>
<clipPath id="clip0_30_6">
<rect width="41" height="51" fill="white"/>
</clipPath>
</defs>
</svg>
