<svg xmlns="http://www.w3.org/2000/svg" width="48" height="48"   style="position:absolute" >
    <path d="M16.18 36.58a.65.65 0 0 0-.056-.177 2.394 2.394 0 0 0-.084-.16c-.038-.046-.075-.102-.113-.14a.818.818 0 0 0-.14-.111.521.521 0 0 0-.16-.084.566.566 0 0 0-.178-.056.806.806 0 0 0-.365 0 .653.653 0 0 0-.179.056.912.912 0 0 0-.3.196.817.817 0 0 0-.112.14.517.517 0 0 0-.085.159c-.028.056-.037.112-.056.177-.01.056-.018.122-.018.187 0 .056.009.121.018.187a.65.65 0 0 0 .056.177c.029.056.057.112.085.159.037.047.075.103.112.14a.818.818 0 0 0 .141.112.521.521 0 0 0 .16.084.564.564 0 0 0 .178.056c.056.01.121.019.178.019.056 0 .121-.01.178-.019a.652.652 0 0 0 .178-.056.92.92 0 0 0 .3-.196.826.826 0 0 0 .112-.14.517.517 0 0 0 .085-.159c.028-.056.037-.112.056-.177.019-.066.019-.122.019-.187s0-.13-.01-.187z"></path><path d="M43.125 36.868c0-.009-.01-.018-.01-.028-.862-2.006-2.887-2.753-5.278-1.941L31.303 36.7c-.375-1.138-1.322-2.11-2.653-2.604-.01 0-.019-.01-.028-.01L21.44 31.66c-.6-.765-2.466-2.735-5.972-2.735-2.447 0-4.613 1.671-5.86 3.5H.937A.938.938 0 0 0 0 33.36v11.77c0 .513.422.933.937.933h5.579c.515 0 .937-.42.937-.933v-.803h2.616c.515 0 .937-.42.937-.933v-.271c1.528.13 2.025.42 3.422 1.223 1.078.616 2.7 1.55 5.634 2.865.01.01.028.01.038.019.562.224 1.66.57 3.019.57.947 0 2.006-.169 3.103-.663l14.437-5.143c.028-.01.047-.02.075-.028 1.378-.654 3.431-2.437 2.39-5.097zM5.578 44.186H1.875v-9.894h3.703v9.894zm3.544-1.736H7.453v-8.158h1.678v8.158h-.01zm30.862-2.212L25.556 45.38c-.01 0-.028.01-.047.018-.01.01-.028.01-.037.02-2.007.923-3.919.372-4.669.074-2.831-1.27-4.34-2.138-5.447-2.772-1.537-.878-2.269-1.307-4.36-1.475v-7.514c.891-1.447 2.616-2.93 4.473-2.93 3.187 0 4.537 2.062 4.593 2.146a.9.9 0 0 0 .497.392l7.453 2.52c1.19.448 1.82 1.456 1.528 2.474-.13.466-.44.858-.871 1.092-.422.233-.91.29-1.378.168l-8.4-2.651a.937.937 0 1 0-.572 1.783l8.409 2.65c.01 0 .019.01.028.01a3.749 3.749 0 0 0 2.822-.327 3.657 3.657 0 0 0 1.762-2.212l.057-.224 7.04-1.941c1.013-.346 2.353-.467 2.944.896.619 1.577-.984 2.454-1.397 2.66zm-6.319-27.961a.65.65 0 0 0-.056-.177c-.028-.056-.047-.112-.084-.159a.822.822 0 0 0-.253-.252.524.524 0 0 0-.16-.084c-.056-.028-.112-.037-.178-.056a.806.806 0 0 0-.366 0 .659.659 0 0 0-.178.056 2.925 2.925 0 0 0-.16.084c-.046.037-.102.075-.14.112a.822.822 0 0 0-.112.14.516.516 0 0 0-.085.159.56.56 0 0 0-.056.177c-.01.056-.019.122-.019.178 0 .056.01.121.02.177a.609.609 0 0 0 .055.178c.029.056.057.112.085.158a.82.82 0 0 0 .253.252.52.52 0 0 0 .16.085c.056.027.112.037.177.056.066.018.122.018.188.018.056 0 .122-.01.187-.018a.658.658 0 0 0 .178-.056c.057-.029.113-.057.16-.085.047-.037.103-.074.14-.112a.82.82 0 0 0 .113-.14.517.517 0 0 0 .084-.159.56.56 0 0 0 .057-.177 1.18 1.18 0 0 0 .018-.177c0-.056-.018-.112-.028-.178z"></path><path d="M47.063 3.166h-5.579a.938.938 0 0 0-.937.934v.802H37.93a.938.938 0 0 0-.937.934v.27c-1.528-.13-2.025-.42-3.422-1.222-1.078-.616-2.7-1.55-5.634-2.866-.01-.009-.028-.009-.038-.018-.956-.374-3.45-1.111-6.122.093L18.01 3.437 14.83.273a.948.948 0 0 0-1.33 0L3.065 10.67a.918.918 0 0 0 0 1.316l17.84 17.762c.282.28.957.373 1.322 0l9.535-9.492c.243.018.506.037.768.037 2.447 0 4.613-1.67 5.86-3.5h8.672c.515 0 .937-.42.937-.933V4.1a.932.932 0 0 0-.938-.934zm-32.897-.914l2.137 2.128a4.054 4.054 0 0 1-2.137.597c-.769 0-1.5-.205-2.138-.597l2.138-2.128zm-6.975 11.2l-2.138-2.128 2.138-2.128c.394.634.6 1.362.6 2.128 0 .765-.206 1.502-.6 2.128zm14.372 14.317l-2.138-2.128a4.096 4.096 0 0 1 4.275 0l-2.137 2.128zm3.487-3.472a5.99 5.99 0 0 0-6.975 0l-9.534-9.492a5.845 5.845 0 0 0 1.125-3.472c0-1.27-.394-2.473-1.125-3.472l2.137-2.128a5.907 5.907 0 0 0 3.488 1.12 5.907 5.907 0 0 0 3.487-1.12l2.025 2.016c-.44.065-.862.205-1.265.43-.675.373-1.2.933-1.529 1.605a5.404 5.404 0 0 0-2.803 1.465 5.312 5.312 0 0 0 0 7.523 5.343 5.343 0 0 0 3.779 1.559 5.343 5.343 0 0 0 3.778-1.56 5.26 5.26 0 0 0 1.387-2.407l3.169 1.073a5.947 5.947 0 0 0 .994 4.732l-2.138 2.128zm-5.7-9.175c.01 0 .019.01.028.01l1.875.635a3.374 3.374 0 0 1-.937 1.689 3.485 3.485 0 0 1-4.903 0 3.448 3.448 0 0 1 0-4.881 3.374 3.374 0 0 1 1.134-.747c.169 1.428 1.21 2.707 2.803 3.295zm9.197 5.703a4.098 4.098 0 0 1-.6-1.941c.45.326.994.644 1.65.886l-1.05 1.055zm8.456-5.33c-.89 1.447-2.615 2.932-4.472 2.932-.347 0-.675-.029-.975-.066-2.025-.29-3.112-1.437-3.468-1.895-.02-.027-.104-.13-.113-.149a.94.94 0 0 0-.516-.43l-7.453-2.52c-1.19-.447-1.818-1.455-1.528-2.473.131-.466.44-.849.863-1.092.422-.233.91-.289 1.378-.168l8.4 2.651a.937.937 0 1 0 .572-1.783l-6.703-2.1-.057-.056-3.459-3.444 2.972-1.064c.01 0 .019-.009.028-.009h.01c.009-.01.027-.01.037-.019 2.006-.924 3.919-.373 4.669-.074 2.83 1.269 4.34 2.137 5.446 2.772 1.538.877 2.27 1.306 4.36 1.474v7.514h.01zm3.544-.568h-1.678V6.769h1.678v8.158zm5.578 0h-3.703V5.033h3.703v9.893z"></path>
</svg>