<svg xmlns="http://www.w3.org/2000/svg" width="47" height="45"   style="position:absolute" >
    <path d="M38.769 8.106V3.93C38.764 1.87 37.033.203 34.89.198H3.893C1.755.203.024 1.871.02 3.93v16.428c.004 1.907 1.507 3.503 3.476 3.694l2.911 7.287c.77 1.925 3.01 2.881 5.01 2.14l18.191-6.751a10.462 10.462 0 0 0 .968 9.585l.446.688v7.254c0 .41.347.745.774.745h13.95c.427 0 .774-.334.774-.745V19.603c-.004-2.58-1.076-5.055-2.97-6.88l-4.781-4.617zm0 4.468l2.35 5.882c.462 1.157-.138 2.452-1.334 2.896l-1.344.502c.214-.473.328-.98.328-1.496v-7.784zM1.572 20.358V3.93c0-1.237 1.041-2.24 2.326-2.24h30.997c1.285 0 2.326 1.003 2.326 2.24v4.745h-.005l.005.02v11.663a2.078 2.078 0 0 1-.054.387l-7.102-6.843c-1.597-1.5-4.142-1.514-5.748-.028a3.877 3.877 0 0 0-.219 5.533l3.026 3.183H3.893c-1.285.01-2.321-.994-2.321-2.232zm9.924 3.732l-5.51 2.045-.813-2.045h6.323zm-.64 7.994c-1.2.444-2.544-.129-3.005-1.285l-1.31-3.273 9.255-3.436v-.005h12.746l1.007 1.056-18.693 6.943zm34.112 11.42H32.57v-5.973h12.4v5.973zm0-7.468H32.222l-.337-.516a9.025 9.025 0 0 1-.199-9.562.729.729 0 0 0-.099-.874l-6.348-6.675a2.428 2.428 0 0 1 .119-3.48 2.651 2.651 0 0 1 3.61.034l12.35 11.894 1.096-1.056-2.867-2.762.794-.301c1.994-.74 2.99-2.9 2.222-4.822l-2.624-6.56 2.51 2.422c1.602 1.544 2.51 3.641 2.514 5.825v16.433h.005z"></path><path d="M8.852 10.653c1.11 0 2.014-.87 2.014-1.94V5.13c0-1.07-.903-1.94-2.014-1.94h-3.72c-1.11 0-2.013.87-2.013 1.94v3.583c0 1.07.902 1.94 2.013 1.94h3.72zM4.671 8.708V7.662h1.547v-1.49H4.671V5.124c0-.249.208-.45.466-.45h3.72c.258 0 .466.201.466.45V6.17H7.771v1.496h1.552v1.046c0 .248-.208.45-.466.45h-3.72a.461.461 0 0 1-.466-.455zm-.778 4.182h3.1v1.496h-3.1V12.89zm0 4.482h3.1v1.496h-3.1v-1.496zm13.951 0h3.1v1.496h-3.1v-1.496zm-9.3-4.482h3.1v1.496h-3.1V12.89zm4.648 0h3.1v1.496h-3.1V12.89zm4.652 0h3.1v1.496h-3.1V12.89zm14.725-8.96h1.552v2.242H32.57V3.93zm-3.099 0h1.547v2.242h-1.552V3.93h.005zm-3.1 0h1.552v2.242H26.37V3.93zm-3.1 0h1.547v2.242h-1.552V3.93h.005zm10.847 35.092h1.553v1.497h-1.553v-1.497z"></path>
</svg>