<svg width="418" height="140" viewBox="0 0 418 140" fill="none" xmlns="http://www.w3.org/2000/svg">
<path d="M61 78H79.5C80.0523 78 80.5 77.5523 80.5 77V40.5C80.5 39.9477 80.9477 39.5 81.5 39.5H86.7283C87.6647 39.5 88.0874 38.3282 87.3667 37.7303L46.1349 3.52665C45.7662 3.22086 45.2325 3.21938 44.8622 3.52312L3.16183 37.7268C2.43567 38.3224 2.85683 39.5 3.79601 39.5H9C9.55228 39.5 10 39.9477 10 40.5V77C10 77.5523 10.4477 78 11 78H27.5" stroke="#E9EDEA" stroke-width="5"/>
<path d="M86.752 77V43.4H101.776C105.552 43.4 108.496 44.152 110.608 45.656C112.72 47.128 113.776 49.256 113.776 52.04C113.776 54.792 112.768 56.92 110.752 58.424C108.736 59.896 106.08 60.632 102.784 60.632L103.648 58.904C107.392 58.904 110.288 59.656 112.336 61.16C114.384 62.664 115.408 64.84 115.408 67.688C115.408 70.6 114.336 72.888 112.192 74.552C110.048 76.184 106.88 77 102.688 77H86.752ZM92.896 72.2H102.496C104.672 72.2 106.32 71.8 107.44 71C108.56 70.168 109.12 68.904 109.12 67.208C109.12 65.512 108.56 64.28 107.44 63.512C106.32 62.712 104.672 62.312 102.496 62.312H92.896V72.2ZM92.896 57.752H101.248C103.264 57.752 104.8 57.352 105.856 56.552C106.912 55.72 107.44 54.536 107.44 53C107.44 51.4 106.912 50.2 105.856 49.4C104.8 48.6 103.264 48.2 101.248 48.2H92.896V57.752ZM138.117 77.48C135.493 77.48 133.077 77.048 130.869 76.184C128.661 75.32 126.741 74.12 125.109 72.584C123.477 71.016 122.213 69.192 121.317 67.112C120.421 65 119.973 62.696 119.973 60.2C119.973 57.704 120.421 55.416 121.317 53.336C122.213 51.224 123.477 49.4 125.109 47.864C126.741 46.296 128.661 45.08 130.869 44.216C133.077 43.352 135.477 42.92 138.069 42.92C140.693 42.92 143.093 43.352 145.269 44.216C147.477 45.08 149.397 46.296 151.029 47.864C152.661 49.4 153.925 51.224 154.821 53.336C155.717 55.416 156.165 57.704 156.165 60.2C156.165 62.696 155.717 65 154.821 67.112C153.925 69.224 152.661 71.048 151.029 72.584C149.397 74.12 147.477 75.32 145.269 76.184C143.093 77.048 140.709 77.48 138.117 77.48ZM138.069 72.008C139.765 72.008 141.333 71.72 142.773 71.144C144.213 70.568 145.461 69.752 146.517 68.696C147.573 67.608 148.389 66.36 148.965 64.952C149.573 63.512 149.877 61.928 149.877 60.2C149.877 58.472 149.573 56.904 148.965 55.496C148.389 54.056 147.573 52.808 146.517 51.752C145.461 50.664 144.213 49.832 142.773 49.256C141.333 48.68 139.765 48.392 138.069 48.392C136.373 48.392 134.805 48.68 133.365 49.256C131.957 49.832 130.709 50.664 129.621 51.752C128.565 52.808 127.733 54.056 127.125 55.496C126.549 56.904 126.261 58.472 126.261 60.2C126.261 61.896 126.549 63.464 127.125 64.904C127.733 66.344 128.565 67.608 129.621 68.696C130.677 69.752 131.925 70.568 133.365 71.144C134.805 71.72 136.373 72.008 138.069 72.008ZM161.502 77.48C160.958 77.48 160.414 77.432 159.87 77.336C159.326 77.24 158.734 77.128 158.094 77L158.526 71.576C158.974 71.704 159.454 71.768 159.966 71.768C161.31 71.768 162.382 71.224 163.182 70.136C163.982 69.016 164.558 67.384 164.91 65.24C165.262 63.096 165.502 60.456 165.63 57.32L166.11 43.4H190.83V77H184.686V47.144L186.126 48.68H170.142L171.486 47.096L171.15 57.08C171.054 60.408 170.83 63.336 170.478 65.864C170.126 68.392 169.582 70.52 168.846 72.248C168.142 73.944 167.198 75.24 166.014 76.136C164.83 77.032 163.326 77.48 161.502 77.48ZM238.106 77L228.314 60.632L233.594 57.512L245.306 77H238.106ZM222.074 62.84V57.464H232.202V62.84H222.074ZM233.93 60.92L228.122 60.152L237.962 43.4H244.586L233.93 60.92ZM203.546 77H196.346L208.058 57.512L213.386 60.632L203.546 77ZM223.898 77H217.802V43.4H223.898V77ZM219.626 62.84H209.45V57.464H219.626V62.84ZM207.77 60.92L197.066 43.4H203.69L213.482 60.152L207.77 60.92ZM265.004 77.48C262.444 77.48 260.06 77.064 257.852 76.232C255.676 75.368 253.772 74.168 252.14 72.632C250.54 71.064 249.292 69.224 248.396 67.112C247.5 65 247.052 62.696 247.052 60.2C247.052 57.704 247.5 55.4 248.396 53.288C249.292 51.176 250.556 49.352 252.188 47.816C253.82 46.248 255.724 45.048 257.9 44.216C260.076 43.352 262.46 42.92 265.052 42.92C267.804 42.92 270.316 43.4 272.588 44.36C274.86 45.288 276.78 46.68 278.348 48.536L274.316 52.328C273.1 51.016 271.74 50.04 270.236 49.4C268.732 48.728 267.1 48.392 265.34 48.392C263.58 48.392 261.964 48.68 260.492 49.256C259.052 49.832 257.788 50.648 256.7 51.704C255.644 52.76 254.812 54.008 254.204 55.448C253.628 56.888 253.34 58.472 253.34 60.2C253.34 61.928 253.628 63.512 254.204 64.952C254.812 66.392 255.644 67.64 256.7 68.696C257.788 69.752 259.052 70.568 260.492 71.144C261.964 71.72 263.58 72.008 265.34 72.008C267.1 72.008 268.732 71.688 270.236 71.048C271.74 70.376 273.1 69.368 274.316 68.024L278.348 71.864C276.78 73.688 274.86 75.08 272.588 76.04C270.316 77 267.788 77.48 265.004 77.48ZM306.366 77L294.99 60.632L300.03 57.512L313.422 77H306.366ZM284.142 77V43.4H290.286V77H284.142ZM288.414 62.84V57.464H299.742V62.84H288.414ZM300.606 60.92L294.894 60.152L306.366 43.4H312.99L300.606 60.92ZM317.705 77V43.4H323.849V67.256L341.897 43.4H347.705V77H341.561V53.192L323.513 77H317.705ZM357.174 77V43.4H363.318V67.256L381.366 43.4H387.174V77H381.03V53.192L362.982 77H357.174ZM372.102 41.144C369.222 41.144 367.046 40.536 365.574 39.32C364.134 38.104 363.398 36.392 363.366 34.184H367.734C367.766 35.368 368.15 36.28 368.886 36.92C369.654 37.56 370.726 37.88 372.102 37.88C373.478 37.88 374.55 37.56 375.318 36.92C376.118 36.28 376.534 35.368 376.566 34.184H380.886C380.854 36.392 380.102 38.104 378.63 39.32C377.158 40.536 374.982 41.144 372.102 41.144ZM86.704 125V91.4H100.528C103.504 91.4 106.048 91.88 108.16 92.84C110.304 93.8 111.952 95.176 113.104 96.968C114.256 98.76 114.832 100.888 114.832 103.352C114.832 105.816 114.256 107.944 113.104 109.736C111.952 111.528 110.304 112.904 108.16 113.864C106.048 114.824 103.504 115.304 100.528 115.304H90.16L92.944 112.376V125H86.704ZM92.944 113.048L90.16 110.024H100.24C102.992 110.024 105.056 109.448 106.432 108.296C107.84 107.112 108.544 105.464 108.544 103.352C108.544 101.208 107.84 99.56 106.432 98.408C105.056 97.256 102.992 96.68 100.24 96.68H90.16L92.944 93.608V113.048ZM126.495 105.368H143.199V110.504H126.495V105.368ZM126.975 119.768H145.935V125H120.735V91.4H145.263V96.632H126.975V119.768ZM152.94 125V91.4H158.028L172.764 115.928H170.028L184.524 91.4H189.612L189.708 125H183.756L183.708 100.664H184.956L172.668 121.16H169.884L157.404 100.664H158.844V125H152.94ZM214.71 125.48C212.086 125.48 209.67 125.048 207.462 124.184C205.254 123.32 203.334 122.12 201.702 120.584C200.07 119.016 198.806 117.192 197.91 115.112C197.014 113 196.566 110.696 196.566 108.2C196.566 105.704 197.014 103.416 197.91 101.336C198.806 99.224 200.07 97.4 201.702 95.864C203.334 94.296 205.254 93.08 207.462 92.216C209.67 91.352 212.07 90.92 214.662 90.92C217.286 90.92 219.686 91.352 221.862 92.216C224.07 93.08 225.99 94.296 227.622 95.864C229.254 97.4 230.518 99.224 231.414 101.336C232.31 103.416 232.758 105.704 232.758 108.2C232.758 110.696 232.31 113 231.414 115.112C230.518 117.224 229.254 119.048 227.622 120.584C225.99 122.12 224.07 123.32 221.862 124.184C219.686 125.048 217.302 125.48 214.71 125.48ZM214.662 120.008C216.358 120.008 217.926 119.72 219.366 119.144C220.806 118.568 222.054 117.752 223.11 116.696C224.166 115.608 224.982 114.36 225.558 112.952C226.166 111.512 226.47 109.928 226.47 108.2C226.47 106.472 226.166 104.904 225.558 103.496C224.982 102.056 224.166 100.808 223.11 99.752C222.054 98.664 220.806 97.832 219.366 97.256C217.926 96.68 216.358 96.392 214.662 96.392C212.966 96.392 211.398 96.68 209.958 97.256C208.55 97.832 207.302 98.664 206.214 99.752C205.158 100.808 204.326 102.056 203.718 103.496C203.142 104.904 202.854 106.472 202.854 108.2C202.854 109.896 203.142 111.464 203.718 112.904C204.326 114.344 205.158 115.608 206.214 116.696C207.27 117.752 208.518 118.568 209.958 119.144C211.398 119.72 212.966 120.008 214.662 120.008ZM263.273 91.4H269.513V125H263.273V91.4ZM245.897 125H239.657V91.4H245.897V125ZM263.753 110.6H245.369V105.272H263.753V110.6ZM285.994 125V95.144L287.482 96.68H274.906V91.4H303.322V96.68H290.746L292.186 95.144V125H285.994Z" fill="#E9EDEA"/>
<g clip-path="url(#clip0_8_34)">
<path d="M51.9352 29.6687C51.1688 29.3825 50.3061 29.4843 49.6281 29.9487C49.5061 30.0322 49.3924 30.1277 49.2878 30.2309C48.81 30.7023 48.5461 31.3288 48.5397 31.9979L48.4771 41.6214L44.7947 44.7366L41.1523 41.5722L41.2171 31.9507C41.2245 31.1312 40.8293 30.3593 40.1542 29.8821C39.4817 29.4094 38.6214 29.297 37.853 29.5781C35.1425 30.5691 32.6205 32.1655 30.5638 34.1944C26.7284 37.9778 24.5946 43.0287 24.5568 48.4162C24.5053 56.2461 28.7856 63.1816 35.7598 66.6327L35.3866 121.07C35.3584 125.203 38.66 128.593 42.7467 128.622L45.6912 128.645C47.6524 128.656 49.5086 127.901 50.9158 126.513C52.3473 125.101 53.1435 123.211 53.1572 121.194L53.5269 66.7512C55.5402 65.7834 57.3694 64.4925 58.9725 62.9111C62.8069 59.1288 64.94 54.0751 64.9776 48.6874C65.0336 40.3024 59.7935 32.6587 51.9352 29.6687ZM55.4504 59.3465C53.9238 60.8486 52.1391 61.9941 50.1466 62.7517C49.8175 62.8756 49.5216 63.0626 49.2725 63.3083C48.7966 63.7778 48.5336 64.4072 48.53 65.0772L48.3191 95.5898L48.3079 95.6008L48.1325 121.158C48.1287 121.841 47.8621 122.478 47.3853 122.949C46.9346 123.393 46.3443 123.637 45.7263 123.631L42.7817 123.612C41.4647 123.603 40.3991 122.477 40.4103 121.104L40.583 95.5489L40.5739 95.5396L40.7821 65.0189C40.7845 63.978 40.1606 63.058 39.1966 62.6779C33.3019 60.3473 29.523 54.7622 29.568 48.4448C29.5946 44.3973 31.1973 40.6014 34.0817 37.7562C34.7274 37.1191 35.4313 36.541 36.1808 36.028L36.1354 42.6864C36.1294 43.4195 36.4418 44.1167 36.9964 44.599L43.1276 49.926C44.0637 50.7388 45.4355 50.7498 46.3902 49.9483L52.5944 44.7029C52.642 44.6633 52.6886 44.6211 52.7334 44.5769C53.2037 44.113 53.4751 43.4678 53.4797 42.8042L53.5251 36.1496C57.5634 39.0098 60.0018 43.6858 59.9688 48.6509C59.9384 52.7044 58.3329 56.503 55.4504 59.3465Z" fill="#E9EDEA"/>
</g>
<defs>
<clipPath id="clip0_8_34">
<rect width="42" height="63" fill="white" transform="translate(23.5 26.5)"/>
</clipPath>
</defs>
</svg>
