<svg width="337" height="141" viewBox="0 0 337 141" fill="none" xmlns="http://www.w3.org/2000/svg">
<path d="M61 78H79.5C80.0523 78 80.5 77.5523 80.5 77V40.5C80.5 39.9477 80.9477 39.5 81.5 39.5H86.7283C87.6647 39.5 88.0874 38.3282 87.3667 37.7303L46.1349 3.52665C45.7662 3.22086 45.2325 3.21938 44.8622 3.52312L3.16183 37.7268C2.43567 38.3224 2.85683 39.5 3.79601 39.5H9C9.55228 39.5 10 39.9477 10 40.5V77C10 77.5523 10.4477 78 11 78H27.5" stroke="black" stroke-width="5"/>
<path d="M87.252 77.5V43.9H102.276C106.052 43.9 108.996 44.652 111.108 46.156C113.22 47.628 114.276 49.756 114.276 52.54C114.276 55.292 113.268 57.42 111.252 58.924C109.236 60.396 106.58 61.132 103.284 61.132L104.148 59.404C107.892 59.404 110.788 60.156 112.836 61.66C114.884 63.164 115.908 65.34 115.908 68.188C115.908 71.1 114.836 73.388 112.692 75.052C110.548 76.684 107.38 77.5 103.188 77.5H87.252ZM93.396 72.7H102.996C105.172 72.7 106.82 72.3 107.94 71.5C109.06 70.668 109.62 69.404 109.62 67.708C109.62 66.012 109.06 64.78 107.94 64.012C106.82 63.212 105.172 62.812 102.996 62.812H93.396V72.7ZM93.396 58.252H101.748C103.764 58.252 105.3 57.852 106.356 57.052C107.412 56.22 107.94 55.036 107.94 53.5C107.94 51.9 107.412 50.7 106.356 49.9C105.3 49.1 103.764 48.7 101.748 48.7H93.396V58.252ZM138.617 77.98C135.993 77.98 133.577 77.548 131.369 76.684C129.161 75.82 127.241 74.62 125.609 73.084C123.977 71.516 122.713 69.692 121.817 67.612C120.921 65.5 120.473 63.196 120.473 60.7C120.473 58.204 120.921 55.916 121.817 53.836C122.713 51.724 123.977 49.9 125.609 48.364C127.241 46.796 129.161 45.58 131.369 44.716C133.577 43.852 135.977 43.42 138.569 43.42C141.193 43.42 143.593 43.852 145.769 44.716C147.977 45.58 149.897 46.796 151.529 48.364C153.161 49.9 154.425 51.724 155.321 53.836C156.217 55.916 156.665 58.204 156.665 60.7C156.665 63.196 156.217 65.5 155.321 67.612C154.425 69.724 153.161 71.548 151.529 73.084C149.897 74.62 147.977 75.82 145.769 76.684C143.593 77.548 141.209 77.98 138.617 77.98ZM138.569 72.508C140.265 72.508 141.833 72.22 143.273 71.644C144.713 71.068 145.961 70.252 147.017 69.196C148.073 68.108 148.889 66.86 149.465 65.452C150.073 64.012 150.377 62.428 150.377 60.7C150.377 58.972 150.073 57.404 149.465 55.996C148.889 54.556 148.073 53.308 147.017 52.252C145.961 51.164 144.713 50.332 143.273 49.756C141.833 49.18 140.265 48.892 138.569 48.892C136.873 48.892 135.305 49.18 133.865 49.756C132.457 50.332 131.209 51.164 130.121 52.252C129.065 53.308 128.233 54.556 127.625 55.996C127.049 57.404 126.761 58.972 126.761 60.7C126.761 62.396 127.049 63.964 127.625 65.404C128.233 66.844 129.065 68.108 130.121 69.196C131.177 70.252 132.425 71.068 133.865 71.644C135.305 72.22 136.873 72.508 138.569 72.508ZM162.002 77.98C161.458 77.98 160.914 77.932 160.37 77.836C159.826 77.74 159.234 77.628 158.594 77.5L159.026 72.076C159.474 72.204 159.954 72.268 160.466 72.268C161.81 72.268 162.882 71.724 163.682 70.636C164.482 69.516 165.058 67.884 165.41 65.74C165.762 63.596 166.002 60.956 166.13 57.82L166.61 43.9H191.33V77.5H185.186V47.644L186.626 49.18H170.642L171.986 47.596L171.65 57.58C171.554 60.908 171.33 63.836 170.978 66.364C170.626 68.892 170.082 71.02 169.346 72.748C168.642 74.444 167.698 75.74 166.514 76.636C165.33 77.532 163.826 77.98 162.002 77.98ZM200.83 77.5V43.9H223.63L223.582 49.18H205.486L206.926 47.692L206.974 77.5H200.83ZM218.12 77.5L233.24 43.9H239.384L254.552 77.5H248.024L235.016 47.212H237.512L224.552 77.5H218.12ZM225.08 69.724L226.76 64.828H244.904L246.584 69.724H225.08ZM87.204 125.5V91.9H101.028C104.004 91.9 106.548 92.38 108.66 93.34C110.804 94.3 112.452 95.676 113.604 97.468C114.756 99.26 115.332 101.388 115.332 103.852C115.332 106.316 114.756 108.444 113.604 110.236C112.452 112.028 110.804 113.404 108.66 114.364C106.548 115.324 104.004 115.804 101.028 115.804H90.66L93.444 112.876V125.5H87.204ZM93.444 113.548L90.66 110.524H100.74C103.492 110.524 105.556 109.948 106.932 108.796C108.34 107.612 109.044 105.964 109.044 103.852C109.044 101.708 108.34 100.06 106.932 98.908C105.556 97.756 103.492 97.18 100.74 97.18H90.66L93.444 94.108V113.548ZM126.995 105.868H143.699V111.004H126.995V105.868ZM127.475 120.268H146.435V125.5H121.235V91.9H145.763V97.132H127.475V120.268ZM153.44 125.5V91.9H158.528L173.264 116.428H170.528L185.024 91.9H190.112L190.208 125.5H184.256L184.208 101.164H185.456L173.168 121.66H170.384L157.904 101.164H159.344V125.5H153.44ZM215.21 125.98C212.586 125.98 210.17 125.548 207.962 124.684C205.754 123.82 203.834 122.62 202.202 121.084C200.57 119.516 199.306 117.692 198.41 115.612C197.514 113.5 197.066 111.196 197.066 108.7C197.066 106.204 197.514 103.916 198.41 101.836C199.306 99.724 200.57 97.9 202.202 96.364C203.834 94.796 205.754 93.58 207.962 92.716C210.17 91.852 212.57 91.42 215.162 91.42C217.786 91.42 220.186 91.852 222.362 92.716C224.57 93.58 226.49 94.796 228.122 96.364C229.754 97.9 231.018 99.724 231.914 101.836C232.81 103.916 233.258 106.204 233.258 108.7C233.258 111.196 232.81 113.5 231.914 115.612C231.018 117.724 229.754 119.548 228.122 121.084C226.49 122.62 224.57 123.82 222.362 124.684C220.186 125.548 217.802 125.98 215.21 125.98ZM215.162 120.508C216.858 120.508 218.426 120.22 219.866 119.644C221.306 119.068 222.554 118.252 223.61 117.196C224.666 116.108 225.482 114.86 226.058 113.452C226.666 112.012 226.97 110.428 226.97 108.7C226.97 106.972 226.666 105.404 226.058 103.996C225.482 102.556 224.666 101.308 223.61 100.252C222.554 99.164 221.306 98.332 219.866 97.756C218.426 97.18 216.858 96.892 215.162 96.892C213.466 96.892 211.898 97.18 210.458 97.756C209.05 98.332 207.802 99.164 206.714 100.252C205.658 101.308 204.826 102.556 204.218 103.996C203.642 105.404 203.354 106.972 203.354 108.7C203.354 110.396 203.642 111.964 204.218 113.404C204.826 114.844 205.658 116.108 206.714 117.196C207.77 118.252 209.018 119.068 210.458 119.644C211.898 120.22 213.466 120.508 215.162 120.508ZM263.773 91.9H270.013V125.5H263.773V91.9ZM246.397 125.5H240.157V91.9H246.397V125.5ZM264.253 111.1H245.869V105.772H264.253V111.1ZM286.494 125.5V95.644L287.982 97.18H275.406V91.9H303.822V97.18H291.246L292.686 95.644V125.5H286.494Z" fill="black"/>
<g clip-path="url(#clip0_8_34)">
<path d="M51.4352 30.1687C50.6688 29.8825 49.8061 29.9843 49.1281 30.4487C49.0061 30.5322 48.8924 30.6277 48.7878 30.7309C48.31 31.2023 48.0461 31.8288 48.0397 32.4979L47.9771 42.1214L44.2947 45.2366L40.6523 42.0722L40.7171 32.4507C40.7245 31.6312 40.3293 30.8593 39.6542 30.3821C38.9817 29.9094 38.1214 29.797 37.353 30.0781C34.6424 31.0691 32.1205 32.6655 30.0638 34.6944C26.2284 38.4778 24.0946 43.5287 24.0569 48.9162C24.0053 56.7461 28.2856 63.6816 35.2598 67.1327L34.8866 121.57C34.8584 125.703 38.16 129.093 42.2467 129.122L45.1912 129.145C47.1524 129.156 49.0086 128.401 50.4158 127.013C51.8473 125.601 52.6435 123.711 52.6572 121.694L53.0269 67.2512C55.0402 66.2834 56.8694 64.9925 58.4725 63.4111C62.3069 59.6288 64.44 54.5751 64.4776 49.1874C64.5336 40.8024 59.2935 33.1587 51.4352 30.1687ZM54.9504 59.8465C53.4238 61.3486 51.6391 62.494 49.6466 63.2517C49.3175 63.3756 49.0216 63.5626 48.7725 63.8083C48.2966 64.2778 48.0336 64.9072 48.03 65.5772L47.8191 96.0898L47.8079 96.1008L47.6325 121.658C47.6287 122.341 47.3621 122.978 46.8853 123.449C46.4346 123.893 45.8443 124.137 45.2263 124.131L42.2817 124.112C40.9647 124.103 39.8991 122.977 39.9103 121.604L40.083 96.0489L40.0739 96.0396L40.2821 65.5189C40.2845 64.478 39.6606 63.558 38.6966 63.1779C32.8019 60.8473 29.023 55.2622 29.068 48.9448C29.0946 44.8973 30.6973 41.1014 33.5817 38.2562C34.2274 37.6191 34.9313 37.041 35.6808 36.528L35.6354 43.1864C35.6294 43.9195 35.9418 44.6167 36.4964 45.099L42.6276 50.426C43.5637 51.2388 44.9355 51.2498 45.8902 50.4483L52.0944 45.2029C52.142 45.1633 52.1886 45.1211 52.2334 45.0769C52.7037 44.613 52.9751 43.9678 52.9796 43.3042L53.0251 36.6496C57.0634 39.5098 59.5018 44.1858 59.4688 49.1509C59.4384 53.2044 57.8329 57.003 54.9504 59.8465Z" fill="#010002"/>
</g>
<defs>
<clipPath id="clip0_8_34">
<rect width="42" height="63" fill="white" transform="translate(23.5 26.5)"/>
</clipPath>
</defs>
</svg>
