<svg width="64" height="64" viewBox="0 0 64 64" fill="none" xmlns="http://www.w3.org/2000/svg">
<path d="M35.0137 31.8325C35.5625 31.7729 35.959 31.2793 35.8994 30.7304C35.8398 30.1811 35.3476 29.787 34.7969 29.8442C28.3037 30.5478 25.2163 28.1562 23.771 26.0239C21.7515 23.0439 21.7065 18.7422 23.6567 15.0649C25.5996 11.4023 29.0127 9.3022 33.0224 9.3022C33.0234 9.3022 33.0244 9.3022 33.0253 9.3022C36.08 9.3022 38.8202 10.5483 40.3554 12.6347C41.957 14.811 42.2187 17.8359 41.1132 21.3832C40.6796 22.7753 39.2646 24.6015 38.0194 24.9613C37.5116 25.1097 37.1102 25.0551 36.7958 24.7948C36.4335 24.4935 36.3036 24.0258 36.3144 23.8407C36.3164 23.829 36.3173 23.8182 36.3183 23.8065L37.414 12.8504C37.4726 12.3011 37.0751 11.8084 36.5263 11.7503C35.9677 11.6893 35.4843 12.0892 35.4257 12.6385L35.3288 13.5471C35.3113 13.5341 35.2969 13.5184 35.2792 13.5057C33.9979 12.5843 32.2025 12.4945 30.4745 13.266C27.5321 14.5775 25.4076 18.746 25.9276 22.1859C26.3177 24.766 28.1366 26.4369 30.9193 26.7704C32.1966 26.9223 33.7645 26.5453 34.9276 25.6854C35.0965 25.9281 35.2958 26.1488 35.5184 26.3338C36.3426 27.0174 37.4276 27.2132 38.575 26.8826C40.5838 26.3015 42.4139 23.9324 43.0232 21.9778C44.6677 16.6985 43.3562 13.3382 41.9666 11.4495C40.0555 8.8523 36.7127 7.302 33.0252 7.302C33.0242 7.302 33.0232 7.302 33.0223 7.302C28.2484 7.302 24.1908 9.7898 21.89 14.1272C19.597 18.4504 19.6854 23.5603 22.1156 27.1458C24.2489 30.2933 27.9388 31.9646 32.6488 31.9646C33.4111 31.9648 34.2002 31.9209 35.0137 31.8325ZM34.9131 17.4961L34.3438 23.4375C33.7627 24.3921 32.2383 24.9121 31.1563 24.7847C29.2554 24.5567 28.1617 23.5821 27.9053 21.8872C27.5205 19.3418 29.1646 16.0395 31.2891 15.0923C31.8028 14.8633 32.3223 14.749 32.7998 14.749C33.3027 14.749 33.7598 14.8764 34.1113 15.1294C34.7412 15.582 35.0176 16.4004 34.9131 17.4961Z" fill="#071E1E"/>
<path d="M59.3057 21.6533L52.042 17.1551V2C52.042 1.4478 51.5947 1 51.042 1H12.4771C11.9249 1 11.4771 1.4478 11.4771 2V17.0159C8.0057 19.2043 5.6711 20.8006 4.5606 21.7505C3.0352 23.0547 2.1954 24.9136 2.1954 26.9839V56.0088C2.1953 59.8638 5.3315 63 9.186 63H54.8144C56.6981 63 58.4069 62.2476 59.6652 61.0317C59.6675 61.0294 59.6706 61.0287 59.6728 61.0264C59.6739 61.0252 59.6741 61.0237 59.6752 61.0225C60.9859 59.751 61.8046 57.975 61.8046 56.0088V26.9839C61.8047 25.2393 61.1504 22.7964 59.3057 21.6533ZM52.042 19.5073L57.1013 22.6404L52.042 27.0533V19.5073ZM58.784 23.826C59.4804 24.6256 59.8047 25.903 59.8047 26.9839V56.0088C59.8047 57.0835 59.4556 58.0737 58.8756 58.8892L39.5911 40.5665L58.784 23.826ZM13.4771 3H50.042V28.7969L31.998 44.5361L13.477 28.3886V3H13.4771ZM11.4771 19.3841V26.6465L6.7792 22.551C7.835 21.7673 9.4214 20.6976 11.4771 19.3841ZM4.1953 56.0088V26.9839C4.1953 25.7912 4.5749 24.7434 5.2735 23.8921L25.1248 41.1979L5.7814 59.6376C4.8109 58.7264 4.1953 57.4419 4.1953 56.0088ZM9.186 61C8.6136 61 8.0722 60.8832 7.5597 60.705L26.6386 42.5176L31.3407 46.6168C31.5292 46.7809 31.7636 46.8629 31.9979 46.8629C32.2322 46.8629 32.4671 46.7809 32.6551 46.6163L38.0773 41.8869L57.4072 60.2526C56.6494 60.7177 55.7672 61 54.8145 61H9.186Z" fill="#071E1E"/>
</svg>
