<svg width="64" height="64" viewBox="0 0 64 64" fill="none" xmlns="http://www.w3.org/2000/svg">
<path d="M37.4066 52.3916C46.368 40.4911 50.7529 30.0082 50.7529 20.4985C50.7529 9.7471 42.3398 1 31.998 1C21.6586 1 13.247 9.7471 13.247 20.4985C13.247 30.0102 17.6306 40.4931 26.5899 52.3917C20.601 52.9611 14.8129 54.5599 14.8129 57.5678C14.813 61.3003 23.7212 63 31.998 63C40.2773 63 49.1874 61.3003 49.1874 57.5679C49.1875 54.5599 43.3968 52.9611 37.4066 52.3916ZM15.2471 20.4985C15.2471 10.8496 22.7617 3 31.998 3C41.2363 3 48.7529 10.8496 48.7529 20.4985C48.7529 30.8081 43.2705 42.4326 31.998 56.0097C20.7285 42.4351 15.2471 30.8105 15.2471 20.4985ZM31.998 61C22.1728 61 16.8129 58.7329 16.8129 57.5679C16.8129 56.6505 20.573 54.8039 28.0445 54.2789C29.0603 55.5752 30.1112 56.8826 31.2338 58.2129C31.4237 58.438 31.7035 58.5679 31.998 58.5679C32.2925 58.5679 32.5722 58.438 32.7622 58.2129C33.8849 56.8825 34.9359 55.575 35.9518 54.2786C43.4258 54.8032 47.1875 56.6502 47.1875 57.5678C47.1875 58.7329 41.8262 61 31.998 61Z" fill="#071E1E"/>
<path d="M44.5137 20.3291C44.5137 13.4282 38.8994 7.81396 31.9981 7.81396C25.0992 7.81396 19.4869 13.4283 19.4869 20.3291C19.4869 27.228 25.0992 32.8408 31.9981 32.8408C38.8994 32.8408 44.5137 27.228 44.5137 20.3291ZM24.3084 27.472C22.5636 25.5947 21.4868 23.0883 21.4868 20.3291C21.4868 14.5312 26.2021 9.81396 31.998 9.81396C37.7959 9.81396 42.5136 14.5313 42.5136 20.3291C42.5136 23.0888 41.4358 25.5957 39.6896 27.4731C38.2675 24.5831 35.2984 22.6685 31.9979 22.6685C28.7015 22.6685 25.733 24.5825 24.3084 27.472ZM31.998 24.6685C34.717 24.6685 37.1279 26.3724 38.1038 28.8707C36.3802 30.1055 34.2754 30.8409 31.998 30.8409C29.7207 30.8409 27.6162 30.1051 25.8931 28.8696C26.8719 26.3718 29.2825 24.6685 31.998 24.6685Z" fill="#071E1E"/>
<path d="M36.3135 16.8584C36.3135 14.481 34.378 12.5464 31.9981 12.5464C29.6207 12.5464 27.6866 14.481 27.6866 16.8584C27.6866 19.2378 29.6207 21.1733 31.9981 21.1733C34.3779 21.1733 36.3135 19.2378 36.3135 16.8584ZM29.6865 16.8584C29.6865 15.5835 30.7236 14.5464 31.998 14.5464C33.2744 14.5464 34.3134 15.5835 34.3134 16.8584C34.3134 18.1348 33.2743 19.1733 31.998 19.1733C30.7236 19.1733 29.6865 18.1348 29.6865 16.8584Z" fill="#071E1E"/>
</svg>
