<svg width="416" height="206" viewBox="0 0 416 206" fill="none" xmlns="http://www.w3.org/2000/svg">
<path d="M133.378 86.1419V86.6599L133.801 86.9587L156.654 103.1C156.839 103.256 156.929 103.442 156.972 103.755C157.009 104.029 157.003 104.289 156.994 104.629C156.99 104.798 156.985 104.988 156.985 105.209V191.465C156.985 192.468 156.815 193.432 156.478 194.105C156.158 194.745 155.767 195.005 155.261 195.005H4.60814C2.7399 194.734 1.27142 193.265 1 191.397V105.253C1.08072 104.402 1.52151 103.625 2.21196 103.12L25.9892 86.7844L26.423 86.4864V85.9602V62.5863C26.6238 60.7509 28.0317 59.2789 29.8545 58.995H129.947C131.77 59.2786 133.177 60.7508 133.378 62.5863V86.1419ZM134.944 94.0336L133.378 92.9594V94.8582V117.375V119.385L134.981 118.173L150.598 106.37L151.706 105.533L150.561 104.747L134.944 94.0336ZM128.114 65.2587V64.2587H127.114H32.6867H32.6863H31.6863V65.2587V123.005V123.504L32.0844 123.804L79.2984 159.396L79.9004 159.85L80.5024 159.396L127.716 123.804L128.114 123.504V123.005V65.2587ZM26.423 94.6767V92.7597L24.8508 93.8566L9.23372 104.752L8.11329 105.534L9.19708 106.366L24.8141 118.351L26.423 119.586V117.558V94.6767ZM7.86734 112.22L6.2637 111.006V113.017V185.836V187.717L7.82318 186.665L58.6691 152.344L59.8279 151.562L58.7133 150.718L7.86734 112.22ZM15.422 187.912L12.7031 189.741H15.9803H143.821H147.083L144.381 187.913L95.5328 154.863L94.9345 154.458L94.3622 154.899L80.9346 165.242C80.9329 165.244 80.9312 165.245 80.9295 165.246C80.8017 165.342 80.696 165.423 80.6051 165.493C80.3967 165.653 80.2658 165.753 80.1231 165.837C79.9867 165.916 79.888 165.949 79.7317 165.95C79.0269 165.927 78.3468 165.683 77.7883 165.251L77.7821 165.246L64.889 155.44L64.3193 155.007L63.7254 155.407L15.422 187.912ZM150.164 185.395L151.722 186.441V184.565V113.017V110.991L150.113 112.224L100.357 150.358L99.2515 151.205L100.408 151.982L150.164 185.395Z" fill="url(#paint0_linear_26_9)" stroke="white" stroke-width="2"/>
<path d="M67.1894 87.8656H50.8462C49.3926 87.8656 48.2144 86.6873 48.2144 85.2337C48.2144 83.7802 49.3926 82.6019 50.8462 82.6019H67.1894C68.643 82.6019 69.8212 83.7802 69.8212 85.2337C69.8212 86.6873 68.643 87.8656 67.1894 87.8656Z" fill="url(#paint1_linear_26_9)" stroke="white" stroke-width="2"/>
<path d="M108.956 104.209H50.8462C49.3926 104.209 48.2144 103.031 48.2144 101.577C48.2144 100.124 49.3926 98.9453 50.8462 98.9453H108.956C110.409 98.9453 111.588 100.124 111.588 101.577C111.588 103.031 110.409 104.209 108.956 104.209Z" fill="url(#paint2_linear_26_9)" stroke="white" stroke-width="2"/>
<path d="M108.955 115.288C110.409 115.288 111.587 116.467 111.587 117.92C111.587 119.374 110.409 120.552 108.956 120.552H50.8462C49.3926 120.552 48.2144 119.374 48.2144 117.92C48.2144 116.467 49.3926 115.288 50.8462 115.288H108.955Z" fill="url(#paint3_linear_26_9)" stroke="white" stroke-width="2"/>
<path d="M246.645 52.1762L247.071 52.3864L247.303 51.9716L267.612 15.6014L268.223 14.5082L267.027 14.8802L209.358 32.8231L208.163 33.1951L209.286 33.749L246.645 52.1762ZM234.126 50.4141L234.353 49.9635L233.901 49.7402L207.41 36.674L206.365 36.1587L206.711 37.271L219.324 77.8084L219.691 78.9876L220.248 77.8854L234.126 50.4141ZM237.894 51.7102L237.45 51.4911L237.227 51.9332L223.22 79.6592L222.688 80.7128L223.815 80.3621L282.094 62.2294L283.221 61.8787L282.185 61.3131L254.92 46.4279L254.486 46.1906L254.244 46.623L248.486 56.9345L237.894 51.7102ZM256.416 42.7349L256.169 43.1756L256.612 43.4175L283.626 58.1659L284.71 58.7576L284.343 57.5785L271.731 17.041L271.385 15.9288L270.817 16.9458L256.416 42.7349ZM218.174 85.7338L201.36 31.6953L272.974 9.41356L289.787 63.4521L218.174 85.7338Z" fill="url(#paint4_linear_26_9)" stroke="white"/>
<path d="M391.59 46.5367L391.689 46.6993L391.856 46.6094L410.202 36.7537L410.643 36.5167L410.16 36.3846L381.035 28.4213L380.552 28.2892L380.812 28.7177L391.59 46.5367ZM386.722 42.4074L386.896 42.3045L386.792 42.1318L379.148 29.4968L378.907 29.0982L378.784 29.5476L373.187 50.0204L373.056 50.4969L373.481 50.2453L386.722 42.4074ZM387.944 44.0367L387.841 43.8672L387.671 43.9681L374.307 51.8787L373.901 52.1192L374.356 52.2437L403.789 60.2912L404.245 60.4158L404.017 60.002L396.538 46.3924L396.442 46.2188L396.268 46.3125L391.024 49.1292L387.944 44.0367ZM398.229 45.259L398.051 45.3545L398.148 45.5315L405.559 59.016L405.797 59.4489L405.927 58.9724L411.525 38.4996L411.648 38.0501L411.237 38.2706L398.229 45.259ZM370.459 53.0714L377.948 25.6837L414.211 35.599L406.723 62.9867L370.459 53.0714Z" fill="url(#paint5_linear_26_9)" stroke="white" stroke-width="0.4"/>
<defs>
<linearGradient id="paint0_linear_26_9" x1="79.0001" y1="57.995" x2="79.0001" y2="196.005" gradientUnits="userSpaceOnUse">
<stop stop-color="#1D6262"/>
<stop offset="1" stop-color="#071E1E"/>
</linearGradient>
<linearGradient id="paint1_linear_26_9" x1="59.0178" y1="81.6019" x2="59.0178" y2="88.8656" gradientUnits="userSpaceOnUse">
<stop stop-color="#1D6262"/>
<stop offset="1" stop-color="#071E1E"/>
</linearGradient>
<linearGradient id="paint2_linear_26_9" x1="79.901" y1="97.9453" x2="79.901" y2="105.209" gradientUnits="userSpaceOnUse">
<stop stop-color="#1D6262"/>
<stop offset="1" stop-color="#071E1E"/>
</linearGradient>
<linearGradient id="paint3_linear_26_9" x1="79.9008" y1="114.288" x2="79.9008" y2="121.552" gradientUnits="userSpaceOnUse">
<stop stop-color="#1D6262"/>
<stop offset="1" stop-color="#071E1E"/>
</linearGradient>
<linearGradient id="paint4_linear_26_9" x1="237.018" y1="20.077" x2="254.129" y2="75.0704" gradientUnits="userSpaceOnUse">
<stop stop-color="#1D6262"/>
<stop offset="1" stop-color="#071E1E"/>
</linearGradient>
<linearGradient id="paint5_linear_26_9" x1="396.132" y1="30.4484" x2="388.538" y2="58.222" gradientUnits="userSpaceOnUse">
<stop stop-color="#1D6262"/>
<stop offset="1" stop-color="#071E1E"/>
</linearGradient>
</defs>
</svg>
