<svg width="512" height="512" viewBox="0 0 512 512" fill="none" xmlns="http://www.w3.org/2000/svg">
<path d="M348.73 450.06C333.087 449.944 317.512 447.98 302.33 444.21C249.9 431.56 195.91 399.47 150.33 353.85C104.75 308.23 72.62 254.23 59.97 201.85C46.65 146.75 56.15 99.61 86.69 69.07L95.41 60.35C103.322 52.4542 114.042 48.0198 125.22 48.0198C136.397 48.0198 147.118 52.4542 155.03 60.35L205.14 110.45C213.041 118.359 217.478 129.081 217.478 140.26C217.478 151.439 213.041 162.161 205.14 170.07L175.54 199.66C189.73 224.56 209.03 249.48 231.84 272.29C254.65 295.1 279.59 314.41 304.48 328.6L334.07 299C337.984 295.084 342.631 291.978 347.746 289.859C352.861 287.74 358.343 286.649 363.88 286.649C369.416 286.649 374.899 287.74 380.014 289.859C385.129 291.978 389.776 295.084 393.69 299L443.79 349.1C451.692 357.006 456.132 367.727 456.132 378.905C456.132 390.083 451.692 400.804 443.79 408.71L435.06 417.43C413.53 439 383.73 450.06 348.73 450.06ZM125.22 78C123.623 77.9921 122.041 78.3029 120.566 78.9142C119.091 79.5255 117.753 80.425 116.63 81.56L107.9 90.28C85.03 113.15 78.35 150.28 89.09 194.77C100.46 241.9 129.73 290.87 171.5 332.63C213.27 374.39 262.23 403.63 309.37 415.04C353.87 425.78 390.98 419.1 413.85 396.23L422.57 387.51C424.848 385.23 426.128 382.138 426.128 378.915C426.128 375.692 424.848 372.6 422.57 370.32L372.48 320.22C370.2 317.942 367.108 316.662 363.885 316.662C360.662 316.662 357.57 317.942 355.29 320.22L317.78 357.73C315.529 359.982 312.62 361.459 309.474 361.948C306.328 362.437 303.108 361.913 300.28 360.45C269.53 344.55 238.53 321.4 210.63 293.5C182.73 265.6 159.63 234.62 143.69 203.87C142.226 201.043 141.7 197.823 142.187 194.677C142.674 191.531 144.15 188.622 146.4 186.37L183.92 148.86C186.198 146.58 187.478 143.488 187.478 140.265C187.478 137.042 186.198 133.95 183.92 131.67L133.82 81.56C132.693 80.4269 131.353 79.5288 129.877 78.9177C128.401 78.3066 126.818 77.9946 125.22 78Z" fill="#071E1E"/>
<path d="M364.75 269.73C360.772 269.73 356.956 268.15 354.143 265.337C351.33 262.524 349.75 258.708 349.75 254.73C349.721 228.415 339.255 203.187 320.649 184.578C302.042 165.97 276.815 155.502 250.5 155.47C246.522 155.47 242.706 153.89 239.893 151.077C237.08 148.264 235.5 144.448 235.5 140.47C235.5 136.492 237.08 132.676 239.893 129.863C242.706 127.05 246.522 125.47 250.5 125.47C321.77 125.47 379.75 183.47 379.75 254.73C379.75 258.708 378.17 262.524 375.357 265.337C372.544 268.15 368.728 269.73 364.75 269.73Z" fill="#071E1E"/>
<path d="M428.15 269.73C424.172 269.73 420.356 268.15 417.543 265.337C414.73 262.524 413.15 258.708 413.15 254.73C413.15 165.04 340.15 92.07 250.5 92.07C246.522 92.07 242.706 90.4897 239.893 87.6766C237.08 84.8636 235.5 81.0483 235.5 77.07C235.5 73.0918 237.08 69.2765 239.893 66.4634C242.706 63.6504 246.522 62.07 250.5 62.07C356.73 62.07 443.15 148.5 443.15 254.73C443.15 258.708 441.57 262.524 438.757 265.337C435.944 268.15 432.128 269.73 428.15 269.73Z" fill="#071E1E"/>
</svg>
