<svg width="403" height="403" viewBox="0 0 403 403" fill="none" xmlns="http://www.w3.org/2000/svg">
<path d="M294.73 402.06C279.087 401.944 263.512 399.98 248.33 396.21C195.9 383.56 141.91 351.47 96.33 305.85C50.75 260.23 18.62 206.23 5.97004 153.85C-7.34996 98.75 2.15004 51.61 32.69 21.07L41.41 12.35C49.3216 4.45423 60.0426 0.0197754 71.22 0.0197754C82.3975 0.0197754 93.1184 4.45423 101.03 12.35L151.14 62.45C159.041 70.359 163.479 81.0809 163.479 92.26C163.479 103.439 159.041 114.161 151.14 122.07L121.54 151.66C135.73 176.56 155.03 201.48 177.84 224.29C200.65 247.1 225.59 266.41 250.48 280.6L280.07 251C283.984 247.084 288.631 243.978 293.746 241.859C298.861 239.74 304.344 238.649 309.88 238.649C315.417 238.649 320.899 239.74 326.014 241.859C331.129 243.978 335.776 247.084 339.69 251L389.79 301.1C397.693 309.006 402.132 319.727 402.132 330.905C402.132 342.083 397.693 352.804 389.79 360.71L381.06 369.43C359.53 391 329.73 402.06 294.73 402.06ZM71.22 30C69.6234 29.9921 68.0412 30.3029 66.5662 30.9142C65.0912 31.5255 63.753 32.425 62.63 33.56L53.9 42.28C31.03 65.15 24.35 102.28 35.09 146.77C46.46 193.9 75.73 242.87 117.5 284.63C159.27 326.39 208.23 355.63 255.37 367.04C299.87 377.78 336.98 371.1 359.85 348.23L368.57 339.51C370.848 337.23 372.128 334.138 372.128 330.915C372.128 327.692 370.848 324.6 368.57 322.32L318.48 272.22C316.2 269.942 313.108 268.662 309.885 268.662C306.662 268.662 303.57 269.942 301.29 272.22L263.78 309.73C261.529 311.982 258.62 313.459 255.474 313.948C252.328 314.437 249.108 313.913 246.28 312.45C215.53 296.55 184.53 273.4 156.63 245.5C128.73 217.6 105.63 186.62 89.69 155.87C88.2262 153.043 87.6998 149.823 88.187 146.677C88.6742 143.531 90.1497 140.622 92.4 138.37L129.92 100.86C132.198 98.5798 133.478 95.4883 133.478 92.265C133.478 89.0416 132.198 85.9502 129.92 83.67L79.82 33.56C78.6935 32.4269 77.3533 31.5288 75.877 30.9177C74.4007 30.3066 72.8178 29.9946 71.22 30V30Z" fill="#E9EDEA"/>
<path d="M310.75 221.73C306.772 221.73 302.957 220.15 300.143 217.337C297.33 214.524 295.75 210.708 295.75 206.73C295.721 180.415 285.255 155.187 266.649 136.578C248.042 117.97 222.815 107.502 196.5 107.47C192.522 107.47 188.707 105.89 185.893 103.077C183.08 100.264 181.5 96.4482 181.5 92.47C181.5 88.4918 183.08 84.6764 185.893 81.8634C188.707 79.0504 192.522 77.47 196.5 77.47C267.77 77.47 325.75 135.47 325.75 206.73C325.75 210.708 324.17 214.524 321.357 217.337C318.544 220.15 314.728 221.73 310.75 221.73Z" fill="#E9EDEA"/>
<path d="M374.15 221.73C370.172 221.73 366.357 220.15 363.543 217.337C360.73 214.524 359.15 210.708 359.15 206.73C359.15 117.04 286.15 44.07 196.5 44.07C192.522 44.07 188.707 42.4897 185.893 39.6766C183.08 36.8636 181.5 33.0483 181.5 29.07C181.5 25.0918 183.08 21.2765 185.893 18.4634C188.707 15.6504 192.522 14.07 196.5 14.07C302.73 14.07 389.15 100.5 389.15 206.73C389.15 210.708 387.57 214.524 384.757 217.337C381.944 220.15 378.128 221.73 374.15 221.73Z" fill="#E9EDEA"/>
</svg>
