<svg width="400" height="400" viewBox="0 0 400 400" fill="none" xmlns="http://www.w3.org/2000/svg">
<path d="M368.194 303.307L329.393 277.437L294.9 254.446C288.244 250.017 279.297 251.469 274.383 257.777L253.039 285.215C248.455 291.169 240.207 292.881 233.633 289.24C219.149 281.184 202.024 273.599 164.237 235.764C126.449 197.927 118.816 180.85 110.76 166.368C107.12 159.793 108.831 151.546 114.785 146.961L142.223 125.618C148.531 120.704 149.983 111.758 145.554 105.101L123.269 71.6698L96.6936 31.8058C92.1702 25.0205 83.1154 22.9834 76.1224 27.1772L45.473 45.5643C37.1901 50.4444 31.1014 58.3248 28.4682 67.5717C20.0867 98.1301 18.3969 165.54 126.431 273.575C234.465 381.609 301.869 379.913 332.427 371.532C341.675 368.898 349.555 362.81 354.435 354.526L372.822 323.878C377.017 316.884 374.979 307.83 368.194 303.307Z" fill="#071E1E"/>
</svg>
